<mxfile host="app.diagrams.net" modified="2024-06-24T06:41:43.403Z" agent="Mozilla/5.0 (Windows NT 10.0; Win64; x64) AppleWebKit/537.36 (KHTML, like Gecko) Chrome/126.0.0.0 Safari/537.36" etag="Nr6r4L-_z52Bkt27XoeV" version="24.6.0" type="device" pages="7">
  <diagram id="zbRJboMPB2E2Ye5TR3gh" name="README">
    <mxGraphModel dx="1052" dy="561" grid="1" gridSize="10" guides="1" tooltips="1" connect="1" arrows="1" fold="1" page="1" pageScale="1" pageWidth="850" pageHeight="1100" math="0" shadow="0">
      <root>
        <mxCell id="0" />
        <mxCell id="1" parent="0" />
        <mxCell id="k0sswO82KjMeQ6A6vRZo-1" value="The page &quot;Campaign&quot; will contain the names of each puzzle as a box, then connect them as they would appear in the puzzle select menu.&amp;nbsp;" style="text;html=1;align=center;verticalAlign=middle;whiteSpace=wrap;rounded=0;" parent="1" vertex="1">
          <mxGeometry x="80" y="110" width="290" height="30" as="geometry" />
        </mxCell>
        <mxCell id="k0sswO82KjMeQ6A6vRZo-2" value="Each page after that is categorized to provide a set of puzzles for which that branch belongs to. That will be highlighted on the campaign but won&#39;t necessarily exist in the game UI itself (we&#39;ll see). It&#39;s just better for organization.&amp;nbsp;" style="text;html=1;align=center;verticalAlign=middle;whiteSpace=wrap;rounded=0;" parent="1" vertex="1">
          <mxGeometry x="80" y="200" width="290" height="30" as="geometry" />
        </mxCell>
        <mxCell id="k0sswO82KjMeQ6A6vRZo-7" value="Key" style="text;html=1;align=center;verticalAlign=middle;whiteSpace=wrap;rounded=0;" parent="1" vertex="1">
          <mxGeometry x="79.46" y="290" width="40" height="30" as="geometry" />
        </mxCell>
        <mxCell id="k0sswO82KjMeQ6A6vRZo-11" value="BranchEqual - Every branching path connecting to this node must be of equal length.&amp;nbsp;" style="text;html=1;align=left;verticalAlign=middle;whiteSpace=wrap;rounded=0;" parent="1" vertex="1">
          <mxGeometry x="130.67" y="330" width="310" height="30" as="geometry" />
        </mxCell>
        <mxCell id="2cZN8TN8h8QhDMtTMVAk-1" value="Next to each puzzle I&#39;ll include an explanation of why this puzzle exists, as there really shouldn&#39;t be any &quot;filler&quot; in the campaign, the player should be introduced to a new concept or solidify their understanding of a mechanic at each puzzle.&amp;nbsp;" style="text;html=1;align=center;verticalAlign=middle;whiteSpace=wrap;rounded=0;" parent="1" vertex="1">
          <mxGeometry x="450" y="200" width="290" height="30" as="geometry" />
        </mxCell>
        <mxCell id="Ko-hfjFKKhqByK9CzCEL-9" value="Disconnected - No nodes in this set may have a path to each other.&amp;nbsp;" style="text;html=1;align=left;verticalAlign=middle;whiteSpace=wrap;rounded=0;" parent="1" vertex="1">
          <mxGeometry x="130.67" y="645.14" width="310" height="30" as="geometry" />
        </mxCell>
        <mxCell id="Ko-hfjFKKhqByK9CzCEL-19" value="Homomorphism - Sets with this rule must be homomorphic to each other." style="text;html=1;align=left;verticalAlign=middle;whiteSpace=wrap;rounded=0;" parent="1" vertex="1">
          <mxGeometry x="128.12000000000003" y="765" width="310" height="30" as="geometry" />
        </mxCell>
        <mxCell id="XDREiczh1BjlEG057Aef-2" value="" style="shape=image;verticalLabelPosition=bottom;labelBackgroundColor=default;verticalAlign=top;aspect=fixed;imageAspect=0;image=data:image/png,iVBORw0KGgoAAAANSUhEUgAAAN0AAADgCAYAAACHIGNpAAAAAXNSR0IArs4c6QAAAARnQU1BAACxjwv8YQUAAAAJcEhZcwAADsMAAA7DAcdvqGQAABGiSURBVHhe7Z0H8F1FFcZRwQIoUgekOIqF3pEiD4IlBAgYhQCRlsQgBIgYAREQpDiCVKkBNEhAQqgSkBIIAv4RAQFFHEGwwVhAioChSPX77i6MSPLPK7tnz73v+82cObt3kv97d/d87967d/fsPEIIIYQQQgghhBBCCCGEEEIIIYQQQgghhBBCCOGVt0UvasrAwMDicAvCZrVarceqg8I1El0NgdBGwI2CbQqj6F6HorsRNhUCnF4dEe6Q6GoExLY23HGwIdWBwbkJth/Ed1eoCi9IdDUBgtsObhqskz57DbY9hHdxqAoPSHQ1AIIbCjcj1LpiKIR3fSyLwkh0zoHg5oO7D7Z8daA7/ghbEcJ7KVRFSd4evfDLgbBeBEf4//l3hAMkOv/sFn2vjIteFEaicwxuLTeAWybUemZZ/L31Y1kURKLzzWrRp2L16EVBJDrfLBF9KlL/PdEFEp1v+KogJfNGLwoi0TkFz1/LwW0Uasl4R/SiIBKdXzjlKzUSnQMkOr8sHX1K9HLcARKdX3LMFvpr9KIgEp1fHok+JXdELwoi0fnl19GnZKnoRUEkOqe0Wq0H4X4Vasl4Z/SiIBKdb94VfSr+Fb0oiETnm9S3g49GLwoi0TllYGBgfriFQy0ZEp0DJDq/pBbcs3hOfCqWRUEkOr8sEH0qdJVzgkTnF95epuTZ6EVhJDq/MDdKSl6IXhRGovNL6snJr0QvCiPR+UWiaygSnV9SvxgXTpDo/JJadMpx6gSJzi+p++bV6EVhJDq/pBaJFrA6QaLzS+qBD4nOCRKdX1K/p5PonCDR+SX12jeJzgkSnV9Sz738T/SiMBKdX7iPeEo0DcwJEp1fUl/pJDonSHR+ST0NTKJzgkTnl9T7DjwfvSiMROeX1H2j0UsnSHR+Sd03r0UvCiPR9Q8SnRMkOiGMkej8knopjrbJcoJE55fUItEurE6Q6PySWnSpJ1CLLpHo/JJ6aY9ypDhBovPLy9GnQqJzgkTnl9Qrx5WuwQkSnV/0Xq2hSHR+Sf3KQCJ2gkTnF6VraCgSnV9S572U6Jwg0fnlPdGnQkt7nCDR+SX1VlkSnRMkOr+kTtfwXPSiMBKdX1KLTptCOkGi88u7o0+FROcEic4vqZPNKu+lEyQ6v6R+T6dpYE6Q6PySeuDjvdGLwkh0fvl39KlYKHpRGInOL89En4rFoheFkej88nj0qZDonCDR+SW16BaJXhRGovPLk9GnYtHoRWEkOr88EX0qNHrpBInOL6kHUlJPoBZdItH5JfW0rdRLhUSXSHR+Sb3oVBmenSDR+SV1yjyJzgkSnV9SJxJKnehIdIlE55fUVyYlm3WCROeX1KLTKgMnSHR+Sb3LTuo07aJLJDq/SHQNRaLzS+rbS4nOCRKdXzSQ0lAkOr+k7hsNpDhBovOLRNdQJDq/aNeehiLRCWGMRCeEMRKdEMZIdH7RM11Dkej8kjqtujaFdIJE55fUO7G+GL0ojETnl9TpFV6IXhRGovOLtj9uKBKdX1LvTyfROUGi80vqZzrtT+cEic4vqfen00CKEyQ6v6ROg671dE6Q6BwyMDAwBm7vUEvGMtGLwigtmyMgNj7HnQEbXR1ICzNGb95qtQZCVZRCVzonQHAbwt0JyyE4sgDsenzOFqEqSiHROQBC2Avu57BVqgP54JX0KnzeqFAVJZDoCgMBfB/u1FAzYyo+d49YFsboma4QCPqV4SbD1qsOlGFvPOOdFsvCCImuABDc5+GmwDxs1DgewuPgjTBCt5fGQHAT4S6DedkZdRK+09hYFgZIdIYguI+AOyHUXDEZ323nWBaZ0e2lEQjqk+EmhJpbxuBW85xYFpmQ6AyA4M6Fq8uVZAKEZz2a2ldIdBmB2JaEmwrbtDpQHw6F8I6MZZEYiS4TENzqcBfCPl4dqB+nQ3h8aS8SI9FlAIL7LBwFt3B1oL5cCOHtEMsiERJdYiA4TrHiLWVTuA62DcQ3K1RFr+iVQUIgOE6tapLgyFDYTJzb0qEqekWiSwSC8qtwk0KtcXCq2gyc4/KhKnpBoksAgpGzTE4MtcbCuaLX4lxXClXRLRJdjyAIucK7xCwTLgXaLxTN+AjsGpzzGqEqukGi6wEE39fhTgk1U05rtVobwY5HmZOnLVkORuGtG6qiUzR62SUIuqPhDgg1U74MsXEN3hvguwyDmw5Lvf/BYDwGG47vckeoinaR6LoAQX4W3G6hZsZ9sNFzCnJ8J856uRLGtAxWPAHbEt/p9lAV7SDRdQiCmyOU1quur4btiOB+KlRnD75bC47CW6g6YMPjsC3w3X4ZqmJuSHQdgKA+HW58qJlxPgJ6p1ieK/iO68Bxvd6y1QEbHoENw/e8J1TFYGggpU0QzFzyYi04Dpi0LTiCf8+MYpyGdm91wAZO7J6ONlohVMVg6Eo3FxBIC8JxlslW1QE7joSADo3ljsH3XgyO8z8/VR2w4QHYpvjefw9VMTskukFA4PKF8HmwNasDduyOwOVgTc/gHC6CGxlqJtyM7z4klsVs0O3lHECwDoe7BWYpuOdgW6cSHMHf2g7uzFAzYRO0HX+oxByQ6GYDgoZpFTgK+P7qgA0PwXhrxs9NCv4mR1uZn8WKndCGXd8aNx3dXv4fCJbj4PYNNTPuho2EOP4UqnnAuX0F7qRQM2E7nNPFsSwiEt3/gKA8H+6LoWYGN/QYgeB8MlTzgnPcFc4q+dAzsPVwbveHqiASHUAgfhiOyV83qg7Y8TMYd9Lhs5wZON/t4aaFWnZuxfl9MpYF6PtnOgQgF2lyxr614H4B46CJqeAIPpOvEr4QatnZEG3M9IMi0teiQzBwwGQGjC93LbkJxivc06FqDz77x3AcoX21OpCXCWjrjl7yN5m+vb1EEHBJTurdTtvhWhif4VxsvI922AzuJ7B5qwP54A/MmjjvP4dq/9J3okOQzQ93KYzLYay5DEG3TSy7AW3CW2wKb77qQD6uwfn3/aaUfXV7ieDi1CjeTpYQHCcuuxMcwfdixi9Oc3ulOpCPzdEHB8dy39I3Vzp0Np/broKtVR2wZTICe1wsuwVtNAKOz3q54YoE/vj1JX1xpYtXuCtgJQR3ah0ER/A9L4f7Uqhl5az4I9iXNF506Fwu6KTgSuT0OBaB7H2nnjeB73s2XO5bQOZZ+WEo9h+NFh0Ex0ETCm6D6oAt+yKAmbioduB7fweOC3ZzMgz943Gvvuw0/Up3CWzjUDTjZdgOCNxaBxS+PzcP4YhmTiZCeEzS21c0VnTozAvgNg81M/4AY2o8zvhoAnyh/ftQzMaJ6CuXo7q5aKTo0Il88W292wwnLm8CwTUmMxbOhS+0LQZWLkKfWd+RFKNxokPnHQJnPdOEy1camaYA58R5qbkHgxiHl6LvSowum9Oo93TotH3gvhdqZhyFwDwolhsL2parwXPPn3wYxjyavw3VZtKYKx2CYhc4a8GN6wfBRXj3kHveJF8lXIm+XDVUm0kjrnToJGY3/mmomcBf5F0guJtDtT9AO3OqGF/B5OYfME4Kb2TK9tpf6RAIy8BxxbcVM2Eb9pvgCM6Z+Vu4aUluloJdh761TB9oRu2vdOgYzqe0mrnO5K8llgO5Am1+Gxw3iswN1/ptiza3mA9qRq2vdOh8ZriyEtxECe4NrKa2MT4vQz+PCdVmUNsrHTpifTimPLDgLdtT9Tto/z3hTgs1EzitrhHTxup8pftu9LnZQ4J7K2gTzs3k5GgrjofQOSe09tTySofG57a/x4ZaVnhLaf0aojagH/ijzec7yxUcfF/IffoscrtkoXaiQ0evAmexI80R6NhvxbKYA7E/eJvPjVas4F54Y9E/tXyJXsfbS4v7+lMkuPaIgT821MzglfU2CJ75O2tHrUSHRj4Qjnuv5eQ8BBLTj4s2QXtx7qn12kFu8zwNMXF4qNaH2txeonH565Z7hoLLbF11AX1UKq0h9w/cGX1Xi+e8Ol3pct9WXifB9Qbaj+/vuB+eNdx/4haIfvlQ9U0tRIfG5EvwnGnPOQJnlWa80UB4fM5iSj9rmJIDoTLw6VD1i3vRxUbkGrlccHLtjgiWZ0NVJICp/Lg5ijWcszkTMcP9+NziWnRoPKbOy/1iegIEl3VfuH4D7fk83NYw7tlQgkmIHbezV7xf6X4A+1AoZoETmJliXSQG7cpUD8ykzb0bSsCkR9NhlrvptoXb0Us0Fl8P5Jz2w4Q7qyI4XgpVkQv05blwO4eaOXyPyMeH34RqeVyKDp3E5ziuW8vJcHQElwUJA9CnnCtbKg8od4TdHv1d6qr7JtzdXqJzFoY7K9SywVTnEpwhaO8D4ErluHwf7BrElnWGuNni8ZnuTBi3I87FAzBOmBbGQHgnwW0Le7E6YM8FEN7usVwMV6JDg/DXcGSoZWMfdL6LDRn7EbQ9B65aMCbmLcEZiLP9Y7kIbkSHhmA+jKNDLRvHodNd3Nf3M+gDTufjy+xSt/jHIN4Oi2VzXAykoAE4efVu2MeqA3m4B529RiwLJ6Dvmejoa6FmDndVMh/c8XKlmwTLKTjSdxtV1AEE/b5wu4WaOftD9N+OZTOKiw4nzQfb3O9wDkPnlpodIeYC+oaTIEo95x2MGPxmLJtQ9PYSJ8uGzj1H7wZ06mdiWTgG8bA4HPOuDK8O2LI74iT3q6qKYqJDA3MZxo2wZasDeXgOthYaM/d2TyIhiI2j4L4RaqZshVjJvSdfmdtLNOqicFx3lVNwZC8Jrn6gzzgFkI8c1lP0piA2V4jlbJiLDifFCahMz517W6QT0HnnxLKoGei7H8Ext+l91QEbFoFRePOGah5MRYeT4Qglbylz7wE+E53GUTFRY9CHfI3EzSKvrw7Y8AkYJ2hnw+yZDoLjYAZzFi5ZHcjHk7B10GG5t3UShiB+psBxOzQrOEH7ZMRR8o0+TUSHBpsIZ7WocCQaihv8i4aBODoGznoK1wsw7kZ7CeLqjOpIj2QVHRqJt6+8VO9YHcjP0WgYPoSLhoKY4vzc3NMF58RDsAMRYxeEandkEx0aZwgch375MGyB3sf1CYgtjmxmfe6aC0ci1g6N5Y7JMpASbwM4YGIluFkw7iIj+gAEPMcG+AP7WHXAnkMQ412/R0x+pcOX4VCv1e3k6+yKjij5yycKgFhbCW4arNQe5Rsj7gZiuW2SXunQCNw+yVpwZ0pw/Qn6/XdwXBJmud/8/9LVnM1kooPgmERofKiZwXVZe4Wi6EcgvMfhuL/F1dUBW4Yi7jteLpZEdPhgbrhhPWr4KGwnNPoroSr6FcTAq7AtUeQ4gjVbRd82PYsOglsRjrkvrGFatQdjWQgyCmYdEx3veZ/iSsf3JtaMguBuiGUhKhATvPvZFfZadcCG9XHh+WAst0VPosOHcfIyT9KSPdG4HLES4i0gNrgrrHVMdnS16/VKx5EjS7jvAFM7CDFHECN8j8ednqzYLPq26FV0K0dvAQV3aiwLMSiIFW5fPTnUsrN69G3Rq+i4/sgCpsSW4ERHIGbGwVm8Slgi+rboVXScgZ2Th2GboPFK7O4pmgE3qeQqgZx0tMK9V9HlXLN2Mwx6a5XYXFA0BMQP5+V+DnZndSAPf4m+LXoVHUeKcsBUC0NgvNIJ0ROIoyfg+PL81upAejrSQU+iw8ncC8epWCkZjb+rVAsiKYipf8JxlDHHFmyXR98WvV7pSKrZKBQw2qbFZflCJAexNQvGeZp8pZCKAfzNGbHcFj2LDh84Fe7iUOuaKfg7q8FuiXUhsoE4Y64VLrBOQccrDVJc6chY2O2h2DHT0QijY1kIExBzB8GNCbWu4bvjjgf6kogOH8wRIt4vX1EdaJ+z8X9HxLIQpiD2mBd1bVhHt4eR8fj/Xb07zrFynBuCcCDko9WB2XMXjNsUXRiqQpQFcTsMjlt28ZlvMJgo+XDELmO4K3ImJuJm/UwUSvFx/7mnYffDbsIXzjV0K0RPIG7XhePrBWYg/wCMKxb+BuN7visRu/fACyGEEEIIIYQQQgghhBBCCCGEEEIIIYQQQgghhBBCCCHqxjzz/BfG6hp3srScuAAAAABJRU5ErkJggg==;" parent="1" vertex="1">
          <mxGeometry x="80" y="320" width="39.46" height="40" as="geometry" />
        </mxCell>
        <mxCell id="XDREiczh1BjlEG057Aef-3" value="" style="shape=image;verticalLabelPosition=bottom;labelBackgroundColor=default;verticalAlign=top;aspect=fixed;imageAspect=0;image=data:image/png,iVBORw0KGgoAAAANSUhEUgAAAN0AAADgCAYAAACHIGNpAAAAAXNSR0IArs4c6QAAAARnQU1BAACxjwv8YQUAAAAJcEhZcwAADsMAAA7DAcdvqGQAABi3SURBVHhe7Z0H1GZFecdJTIEoaoLBECKiYqFJEQSFT1CIhYCCS5WmdCmCgSiKiAWFhRxAOkiRIkfqAooozeDHAooQQIiCEDFBQFaIIKAkJub/e+8M582G3e8tM3PL+/+d85xn5rK73Hee+d+5ZeaZRYwxxhhjjDHGGGOMMcYYY4wxxhhjjDHGGGOMMcYYY4wxdfAHwZuWMD09vaTcyrIVZK+SvVq2rGxx2WLB/lj2W9mzwf9K9niwX85njwXjzzwxNTXFMZMRi65hSFR/KLdUsGWCvUa2vOwNsqVlOflP2X2ynwS7U3a7xPhDeZMAi64GJKw/l3uT7PXBlpNFob1c1kQYMefKrpVdJxF+j4NmeCy6Akhkb5R7a7A3yxBa2/mF7JvRJMJnOGhmxqLLgETG7eA7+oznsC7zO9nFsoskvot6R8wCsegSIaH9ldzmsi1kb+PYhPKE7ALZ+RIgt6JmPiy6MZHY1pfbRbZt74Dphxcy52ES4D29I8aiGxWJbUu5fWU8p5mZuUJ2hsR3SVWdXCy6IZHYtpNDbGv0DphhYfQ7WXaKBPhU78iEYdENiMS2k9x+Mj5Mm/HhbedJshMlvn/tHZkQLLoZCCPbAbJVegdMDs6WnSTx3VxVu41FtwAktnfLHSzzM1s5rpGdJfGdW1W7iUU3HxIbcxo/K+P1v6mHR2Vnyc6WAO/qHekQFl0fEhy3kUdWNdMQmPFymsQ3p6q2H4tOSGw8rx0j45ubaSZ3y46W+E6vqu1l4kUnwX1U7qiqZlrAj2SzJT5uP1vJxIpOYmPJzLGy9/UOmLbBx/ZPSnwsPWoVrN2aOCS4neVYH2bBtZe/k92hWB5YVdvDRI10ChCTknl226p3wHQFppbtoVFvXlVtNhMjOgmOCckI7mW9A6Zr/Ey2o4R3fVVtLp0XncRGvpATZLv2DnSf/wqe3z2J7CbhfTmUG0mnRSfBrSeH4FbsHegOXNVvl/ESgWdT3ug9pM5G4qEe+u1/IvdnspfIXhqMNBEYZRIZYZRZZMuLJRId8efbzvFqi31CuXF0VnTqdHvKIbg2QVIghPMffUb9Adn9MiYG36MOxYyNLKjdXim3lmxdGave23rBukn2YbXVHVW1OXRSdOo4R8uxIqDJILDvyP5JdpvsLnWQh+QbhdqSFH+bBNuAYy3iv2V7ql1PrarNoFOiUwf5I7mvyWb1DjQPRiqmNV0p+5Y6w/9wsC2ofbkNjQJs0+eWM2W7q73j826tdEZ06hCkriM5zjq9A83hQdk5sssV9M4sXVF78+y3mYyJ4Xwzazq0/daKAc/DtdIJ0akD8BxyqWzV3oFmwKvrkxVkRt5Oo/YnAS7fPvksszrHGspPZQjv+1W1HlovOgX8tXKXy8h+3ARukB2hwH69qk4Wigd3Gh+SsdK+if2L9PEbKj63VtXytFp0CvAr5L4lYw1c3ZDt6lAFs9MLMAdFsVlC7sOyPWS5U8EPC2v01lKsakmQ21rRKajMLLlKtlrvQH3whuxgBfCwqmrmR7EiRSHiI5V8UyAv59ahXJRWik5B5Lyvk9W9/o2cjp9S8HhWMDOguG0kt7vsvb0D9cPF8tBQLkZbRXehXJ3pFFhQidh4eWOGRPFbSW7HYH/JsRpZQ3Es+nzXOtEpYKyBq3OKz+EK0idC2YyJ4onweOlSVyr6KxVPRuBitEp0CtDH5Q6vasVha6gDFCDeTpqEKK4by9X5tncHxZVvqUVojegUGDbmYGOKOviignJQKJvEKLavk6tzrwOm362gGLP5SXZasXJcQeGjd7ErUR+kAH+nBZcXte+9crR1Xfy17IiqmJ/Gi06CY13YGbI/7R0oByJfXR3i6qpqMvPV4Otit3A3lZ02jHQIrvS3uP0kNu7zfx3qJj+sDHmsKtbGsRJe9repjRadGuAjcuwlUAo2tl9fYvtSVTWlUJvzPEU6xDohh84XqmI+GvsiRYJjb+6Sm8nz7W/XEHxTE4o7z8/FP1jPx6rqB9kWvzZ5pCu56ps5k1tacPWjGDDS1J1W72PBZ6GRotPV7jNypTZdJHUbu/OYhqB4zJbbv6rVwgfUB7NNom+c6PRj15Q7pKplZwsF+JRQNg1CcSHV/V5VrRbeH3xymjjSlZpxsqkCe1Eomwai+Jwox2t8VnKUJtu+hI0SnUY55uGRgSo3sxTQy0LZNJhwYdxQxuLTkmRbhtS0ke7TwedkOwWSNNymJSheZEx7p6zkotMlNQiQCS05jRGdfiCvirP8yD5Ix1b3zAczAorbLXJ7V7ViLB98UhohOgluKbncbxAPUeBOCmXTQhQ/UumRK7QUZL9OTiM+jkt0x8nlvIqdpICR8bk29BsXlSON+YtliwVjXim5OokDLwt+J+MWCuOb4eM672wvEXROfyFHLhPOiRTsGOfzgmC/DxbPDXtWRqLc3wSL5/u0zpXjWdE5c5v57aqWnZ2C0JNSu+jUiGw9TF7+XJDU9T2hnIwgIvK0YCRhJe8mnqlEsYzx3+ncL5SNAi8QmJNIKnW2gqLMMUTJ3NDY+REGyWsRC/sYRJFjUVwYcwsxzos/mxKSuT4le1oWz4t6tCdlnDM+po3nt/yyz+YpXgh9gajteblSIqEw33CTf1JqgujIC5lrv7iHZawUeKSqLhidB8lTWeKBaDAEEzsnm27QYem80ejMJg9RgFxg4kUGgXKhQbC0fYlvufuo7xwfysmoVXTq6CQWynmPTranaRn35ggFATEKIaq/6TNS+XVhtxqTlg9JdF8J5WTULTpyVr6rqiWHW60mfvw37WFziY5U/UmprVNKcHzwzCU4sODMuHArm5w6O2ad8+qMGQT2yEhOLaLTKMcUm02rmjGNZd/gk1LXSLdz8MY0mZU0QGwTysmoS3S15JA3ZgRIhJuU4qLTlYNvcnz3MqYNbKg+mzQxVh0jXa4P4cbkYofgk1CH6N4dvDFtYfvgk1BUdBqmWY3LRF9j2sQS6rvJhFd6pJsK3pi2QVaDJJQW3VuCN6ZtbKDR7o2hPBalRVf3VsXGjEOSW8xiotNVgpn9y1Q1Y1pJkreYJUe6tYI3pq2QrGjsxbMlRcfeBMa0nbGnhZUUXV17ShuTklka7caaUVVEdDpJEt+sW9WMaT2bBz8SRVaOS3Qs45lT1ToBWa/IgBUT7sRkOzGHBzk9YvIg6ljMmsXfJYEPyXdof7JvMWGATFwx/0rMzRKTCMXERyVSSpDxi8RC2G9lnC9G4iMsJg3i3LGYOQyLmcTIckZyJHzMeEYd3wWumJqa2jiUh6aU6I6UO6CqNQI6UUx208tA1efJutWfqQpBIazYEZ9RgyOa4qgdySiG+KIoyf2CvUgWU+jR6bmDwXOeUeS9NHnBuAjwu+Jve+7iod/Gn8uCzp/zQnwxBSHny7ljMXMZRp3fivHnyGyG5+9ibIXNMf4cv5/bPS5W/LdSvEhtRVsOTSnR3ShX4sM4+RBPk8UOhidPI/ZcjsacHcvUh/oZgkWoiJFRNY7KZPVOvTcBOz6NtAFNdtGpIbhCpe7kjED3V8VFHpLdKmPI/0HviDF9qA+SGiR1Kr0T1N9GSpBcQnQkILq6qiXjOP1g9iM3ZkbUB7n1JH9mSu5WH1wplIeixNvLdYJPCberxgyExPG43KVVLRkrSszkSx2aEqLLsY1xyU0kTDfIsT3a24MfijaK7jZduX4RysYMyhXBp2SkvK1ZRafhd1k5Jjqn5IbgjRmYcIs5t6olo3miE6sHnxK/oTSjwo6uKWFF+dDbdecWXY59m+8M3phhSS06GHobttyiWzP4lNwVvDHDcr2MaW4p4ZPYUOQWXerlPHwbybYzqek26jtMh7uqqiVjVd1ist3awGQTnU5kVbnUE3TvDt6YUWF7ttQM9ekg50iX46O4n+fMuOTYr3y94Acip+hG+nA4A7cFb8xI6BbzXrk7qloyLDpjZiD1aLecHqfYr34gsohOJ0ASIiaZpuQOz0Qxibg2+JQMnHgr10iXY5TL8Y3FTCb0JfakT0ntols/+JRYdCYJumNiNX3q6YQDZ39OLjrdWrJGL7Xo+DZ3ZVU0Jgmp52HWJzqB4MhhkZIrdXUi5YIxqUi9JnNpDTgDpebLIbocU79yfNA0k02OhdADLWrNIbocKwssOpMU3Tmx1OenVS0ZA00HyyE6pn+l5H41UExCZExK7gs+FQOtHc0hulcFn4qbgjcmNQ8HnwpycM5IUtHpQXJpudQJPz0LxeRipGSxC6G86ETq1AzglQUmF6SNTwkZq2cktehy5NpPfd9tTIR9FlIy0MiZWnQDDa9D8kDwxqSGfSFSwt4QM9L0ke7Rqamp1HPkjImMlKF5IdQiutTDNTvpGJOc6elpRrnlq1oyfh78Qmm66Dz1y+Ri7eBTMtCjUGrRpd70L3XmJmMiAy/FGYJaRJd6s0T2GTMmB6lFd+/U1BQba85IatGlHpksOpOL1KIbeBJHatGlzknJNr/GJGV6eprM4+zYmpJ/Dn5GUouOvaxTsqgaKMe3PzPZ5NiK+7vBz0hq0bE5fmqGyp5rzAAMvenHDDyp57mbQ3lG2iC61KsWjEktuoFHOUgtukeDT8nKwRszNnpc2UAu9cwpNiYZmKSi0xD773LPVLVkrBa8MSkYemurAahPdIHUqwJyPPSayWWk3VMXwuMabG4J5YHIIbrU69/IsuRbTDM26kdsx516kvNQoxzkEN1Qqh+QHMlrzeQx9AaOAzC06EgMmxRdTdbFVbVkfEND+CahnASdJ7k52W+BXIUY3wOjsQKYeaTYC4JxgWKaG7NufiNjyg/G6mMsTgygTX8vY0kSnvQV/L/wGJPCo/Hvx+Pxzy36PMb/P/6bEOMWz+35LJ57/B2cP38PoxwN4r9N5mMmmfM7o1GPFo/FmUf8vfhvAnWMtsDi3+ffpa1Y+vKEjExc2K+C8d9o08Vki8uIxxKyJYNRxmiL2Jbx/8G5xPPj/4PF84jnFc+RPrQKBxKyivrmUFu4xZNKRujMqZfB07CzZDQsjRk7I7MKMDoVv4VOFDsawsGYSkYQERiCigF9scyYcXhQghso12U/yUUHEh4jHSOeMV3mXIlu+1AemHh7kZrUt5fGNJGRNiGx6IwZnUaJzttama7zc91ajvR5LIvodDK8iRr6VaoxLWLk/p1rpINrgjemizRSdKk3UzemSYwsuiyfDCLT09MPyrG/gTFd4gE9Qo285CznSAfeV850kbG24rbojBkei86YgvBmvrmi030vE1kvq2rGdILL1K/HSjWZe6SDS4M3pguM3Z9LiM4jnekKrHKZUxVHJ7voNBSTIeyCqmZMq7lE/Zn1emNRYqSDrwVvTJtJMnhk/Tjez/T09MNyOfYkN6YE8zTKsYp9bEqNdHBm8Ma0kWR3ayVHutfJ3VPVGkXMeRIt5jyJOTfIHUL6B/J3kPqBlA+keyh5wZp0HpORU5WdTtmdlz0ziBWxI08KKTxgBdnmVTE5a2uk+14oj0Ux0YGEd4XcRlUtKRfKCApCQCAk/UEs0QgQt7fYI8EI5FNqyJHyuei3xJwrGPlWyA0Tjc7Qn8CHdubc+i3mcol1/kyMR+xEEJPsxKQ7/B7gz/YnOJq/jO+3+P+AWMZDPB59/Dc4x35iMiCMi1K8QPVfqLD4+6Mg4rmS1ybmrqHMhYwkQ/Fcnpbx4g2LsSIPCd97F4riwd+/V/aa3oG03KJzeHMoj01s5CKoYbaRO6+qJWWOGuX9oWwmEPWtf5Tbv6olZy/1rxNDeWyKig7UOPPkXlbVkrKFGuaiUDYThPoUWZtzTTl8RP1qqVBOQry9KMm5wafmMDW+d26dMBRzLuCnVLUsnBB8MuoQ3VeDT81ysmS3AKY18Fb8lVUxOSTHPb4qpqO46DRU/0BuuqolZ3td+fYNZdNxFOsvyW1c1bJwpPorGaiTUsdIB6cHn4NjFAwnuu04ivHBch+palng08SRVTEttYhOV4+z5HgdnItTFRReS5sOotjylvJzVS0bh6qfjvQ5aSbqGukg58Pv8rJTq6LpEhLcAXJ8HsjJXAmOW9cs1Ck6hu4ce5RHtlWAPhbKpgMonp+Uy3LLNx+fCj4LtYlOVxJmH+RuwNkK1LahbFqM4vhZuS9Utawcpb6ZNUN5nSMdIDrS9OXkXAXsfaFsWojid6jcp6taVphG9g9VMR+1ik5XFObo8RYqN5cqcJuFsmkRihsvTA6qatnZV30yzm3NRt0jHcL7ilyJrGGXKIBD7yVm6kPxQmwlLspwhPpikex1tYsukPXBtY+zFciPhrJpMIrTJ+S4rSzBzRLcx0M5O40QnX7wrXI0cgmOUkAPD2XTQBQfRrcvVrUi7BN8EYqvMlgYauyr5P62qmXnHIl9h1A2DSFcEIuNOoLnuGNDuQhNE93r5W6XscCxBNfKtlajM+XH1Izif7Zcyefu0xT7XUO5GI0SHajhd5H7clUrwr/IEN4Pq6opjWJO+gtW/7+9d6AMNyrm64RyUZryIuU51BCnyXHFKwV5NeYq8F55XgNqd3LncMdRUnD3y7auiuVpnOgCPNj+pCoWYXHZxeoAx1RVUwK195Qcsz9W6R0oA2vkttLFnZw6tdC428uIArK+3HeqWlG43TxAQRlrZxazcBTfD8idIyt54SdR0rsUW0bW2mis6ECB2U/u6KpWnJNlBylAj1dVkwrFlY/epb7B9bOJ4vmNUK6NRosOFCBe5xb9jtIHafoOVqBOqqpmHBRL0hOeIWOUK01jElc1XnSgYLHzz3urWi2QXuIzCtp1VdUMi2LIm0IuXiv3DpRlG8WuMftpNPVFyvzMktXxfBfhgf9adZxzZLxtM0OgNvt7uRtkdQhuhyYJDlox0oECRyblb8uSZdodA7KOse6KV89mAShmL5cjhR0XzTrYRTHKmY9nJFojOlAQyXHIg/BavQP1c7HsbAX28qpqIooVS6kQXNJErUPwQcWFXDyNo1WigyC8r8vW7h1oBv8mY++yCxXo7/eOTCiKDwl/Z8v27B2oh+0Uh1z5VcemdaIDBZYNO9iG9h29A82C6WRMaUKAP+4dmRAUF4R2iCzJPm4jspnavdH73LdSdKAAs7MMwsuZbHRcmG3BQzwC7Oz3PsXiPXKIrc7bfiatb6l2rvOF20C0VnQRBZxZDdtVtUbDcx/PgAiQrbtaj9p+GTmSBdXd/txRILhWTFpvvehAwSff/F5VrfGwxxzPf+erk9Q+O2JU1OaseSN/CfvL1clcGR++2c+uFXRCdKBOQNbf3ElIU/OQ7HzZBeo0N/eONBy1885yJHx9Q+9AvfDsxuRlLmStoTOiA3WITeV4TcyLlrZxt+wSTJ2IhbyNQe3Kjqm7y/aQsdC4CRyndsq5l0E2OiU6UAehU5BS/W29A+3kThnPgFeqY93YO1IDaktejJDS4oOyJu0Nsb/a5ahQbh2dE11EHYagdCHzF88qLDNiNs516mxZU0uo3V4rxwySLWSrc6xBPCHbUW3AXNzW0lnRgTrQVnJM2WJT/q4Q9/f7LqYOOPanCLUTm+Nza84sklpSGAwAL0x21u+9p6q2l06LDtShXiFHhqk6lpOUABFeL+Ob4A3qlAvdxFDtwfMZk7bfJFtDtp6MlBVN5kT9rra8nZ6Rzosuos7G7dJhMq7qXYYXMqS6eFLG90BExvMYs0T4rrasrC08K9tDgiMLeGeYGNGBhMfv/bysVG58Mzo3yXaT4O6qqt1hokQXkfhWlGMXmC17B0zTOEFi2zuUO8dEii4i8TFnkI0GvUd5M2DHnN0lONIwdpaJFl1E4mPjyANlK/UOmDrgbezeElznk/5adH1IfDvJkYGsjrQCk8znJbYSmz42AovueZD4yKfPlKe39g6YXFwjO1CCY9emicGiWwgS3wZyTPDlI3tbkji1AT7ok1OU3KITh0U3ABIfadcRHjM2NuKYGRnmxSK4id0pyaIbEgmQrGSbyMjDidW9nqwtkILvcxLb1VV1crHoxkACRHBxziK7/liA/5+fyXhR0rhUeHVh0SVCAnyh3DYy5niW3PapqfDcNltiO6KqmohFlwEJcHk5vv3xFpT5jpME+z+w5dgxEtxTvSPm/2DRZUYC5LaTxD3cgnaZ+2S8JDlWYmOislkAFl0hJD5GPG49sS59fOdb2+kSWqP2C2gyFl0NSIBvkWPkw5bjWMvgtpFcNGdKbBP1YTsFFl3NSIBrypEwl+9/LCptMmwVdp7sXN9Cjo5F1yAkQBaa8uaTrblIm7CqrG5ukZHqbo6E9qPeETMWFl2DkQhfIkdGLrYHwyiX2CeAPbmvkH1TQmt9TpKmYdG1DAmRFIM8E7JrESPharJxPsozHYvV2ST+YdbIXAnt1/ImExZdB5AQeRnD21GSMDESMlUNY9sqFoZG4wXIo7J5Ml7x/1gCe0TeGGOMMcYYY4wxxhhjjDHGGGOMMcYYY4wxxhhjjFlkkf8FoTY+yyduJWwAAAAASUVORK5CYII=;" parent="1" vertex="1">
          <mxGeometry x="79.46" y="520" width="39.46" height="40" as="geometry" />
        </mxCell>
        <mxCell id="XDREiczh1BjlEG057Aef-4" value="DegreeEqual - All nodes with condition of same class must have equal number of lines connecting to them." style="text;html=1;align=left;verticalAlign=middle;whiteSpace=wrap;rounded=0;" parent="1" vertex="1">
          <mxGeometry x="130" y="525" width="310" height="30" as="geometry" />
        </mxCell>
        <mxCell id="XDREiczh1BjlEG057Aef-5" value="" style="shape=image;verticalLabelPosition=bottom;labelBackgroundColor=default;verticalAlign=top;aspect=fixed;imageAspect=0;image=data:image/png,iVBORw0KGgoAAAANSUhEUgAAAN0AAADgCAYAAACHIGNpAAAAAXNSR0IArs4c6QAAAARnQU1BAACxjwv8YQUAAAAJcEhZcwAADsMAAA7DAcdvqGQAABeqSURBVHhe7Z0HtF1Fucd3GiGkUxMMSSChCaFLES8gRbqAdCGoCPqeNF9YNIUHCIi+sHyPrqKPJiBd6SWAcEUEdD2KhB6NKYQ0Qrlp93Lv+//3TCTGy737nP3NnL3P+f/W+tY3M5CsnNnz3zN7yjeJEEIIIYQQQgghhBBCCCGEEEIIIYQQQgghhMhMD++FEKC5uXkzuPVg/WF9vfWBLYC92tTU9Dx8LiQ60fBAaGPhToIdAVuTZV3wDux62CUQ4Ly0pEIkOtHQQHCnw/3Y5SpiPuxkCO8ml82ORCcaFgjup3DfdrmqORXC+4lPZ0KiEw0JBHcR3PdcLjdHQHi3+nS3SHSi4YDgvgj3uMuZMAs2FsJrcdmu6em9EI3EGd5bMQw2wSW7R6ITDQV6uQ3h9nQ5U472vlskOtFofNd7azaAoLn00C0SnWgYIIpT4P7N5YLAXrRbJDrREEBwHFL+j8sFY5D3XSLRiboHgtsK7lcuF5SF3neJRCfqGghuE7i7YaunBWF5y/su0TqdqFu84O6DjU4LwjK9qalpHZ/uEvV0oi6B4DipcT8shuDILd53i0Qn6g4IbiTcb2Cj0oLwLIFd6pLdI9GJugKC4wzinbCN0oI4cNPzDJ/uFolO1A0Q3Mpwd8G2SQviMBGCu9KnM6GJFFEXQHCrwN0L2zUtiMPpENxEn86MejpReiC4teEmwWIJ7mbYltUIjqinE6UGguMsJdfhNk4LwnMCxHaVT1eFejpRWiC4zeEegsUS3OV5BUfU04lSAsFtAfcAbHhaEJ5HIbgv+XQu1NOJ0gHBjYPjpEkswU2DfcMl8yPRiVIBwY2B48L3iLQgPIthR6OXy7wO1x0SnSgNEBzDIlBwDAYbi4MguKd82gSJTpQCCG4luNthm6YFcTgYguNEjSkSnSg8EBwn/Li16wtpQRwoOO5uMUeiE4UGguNdAg/C9ksL4nBIKMERiU4UFghuMByHdyGid30a4yE49qrBkOhEIYHgeJHHw7Bd0oI4nATBBQ/rINGJwgHBcZaSB1C3SwviwM3LV/h0ULQjRRQKCG4NOA4pGUwoFqdBcJf4dHAkOlEY/DccJ012SAviUPGtO3mR6EQhgOA4S8keLuY3HO+Xu9yno6FvOlEUeDwn9qRJdMERiU7UHPRynKLf2+WiwCFllEmTzpDoRE2B4Hh98FdcLgrnx/6GWxF904maAcHdCJf5iikDroTgTvTpmiHRiZoAwXER+iiXi8JNEFxMgX8qEp2IDgTHwD5HulwUbofgDvPpmiPRiahAcNxIfJDLReEeCO4Any4EEp2IAsTG83A8gBpzlvJBCG4fny4Mmr0UwYHgBsBx4Tum4BgHs1A93DIkOhEUCG4IHKN2fTEtiMNjsP3Qy7W6bLHQ8FIEA4Lj8RwOKWPupXwaticE1+KyxUOiE0GA4JZdV7VlWhCHF2G7Q3BzXbaYSHTCHAiO0bp4A2qsyMvk77DdILhMVxDXEn3TCVMguLFw/IaLKbgFMAYSKrzgiHo6YQYE9xk4zhrGvJDxY9geENwTLlt81NMJEyA4LgvEvgG1DbZvmQRHJDphBQUXM6YJw51TcAxeVCokOpEb9HI/hzO50SYj/IbbC4J7xGXLhUQncgHBTYA73uWi8A6M63BPumz50ESKqBoIjtusuBYXi7dhB0Jwf3HZciLRiaqA4LaBexw2MC0IzxswfsOVYlmgKzS8FBUDwXEt7jZYLMFRaPvXg+CIRCcqAoLjpYy8BXXdtCA8U2AUHHu6ukCiE5mB4D4LxyM6sdbiXoHtA8G95rL1gb7pRCYgOF6sfw9snbQgPH+AcWvXLJetH9TTiW6B4LaFY7jzWILj5SHc2lV3giPq6USXQHAMd8BJk/5pQXhugNi+5tN1iXo68alAcMfCsdeJJbhr6l1wRKITnQLBfR/uly4XhRshuG/5dF2j4aX4FyA4xvk/weWiMAmC28On6x6JTvwDiI3tgacFYsalfBW2E0RX6BALljSk6NC4NoDjIu/qMN78uRqsF6wDxjphujesj/csb4ctgr3njY1kDux9GIPgzEfDYb6UoE6Gwt0B2zUtiMNHMFRb0wsu2xjUvejQmLhV6QveeN6L1+qygYWAopwBmwpjzA7upuBOCtpkNK6l8IUDdcQT37+FbZ0WxIN7KRnaoaGoK9Gh8YyAo6gYgYqLuZvCuE+wKPA4yu/o0dgKcdoZdcbtXBTcuLQgHt9EHfyvTzcUpRcdGg3Ftb+3z7GsJHwAexT25MCBg57ZYovN/5SWRgR1x2E2d5lsmBbEI/o930WitKJDg9kX7lRYzMjB5vQfMCBZtLAtefrpl95bf/3hj62++kAel7kXjXK6+z/CgPrjKIA9HMPlxeQH+G3n+nRDUjrRobE0wf0nbPe0oMT06bMSRDcwefyxPycjR66WQHD+v6TwcOjNaKC3u6wdqEMOwSk4Dsdj8hP8Hr4oG5pSiQ6N5Ry4H7hc+RkydGgy+ZWpydKlS5LRozmJ2imcmLmGhgY7My3JAepwZzguC3DGNiaFuAW1CJRCdGgo3GjLhrdnWlAH9O7dO+m3ysDkkYefS7bddkzSq1emzUHXwX6Bxst4/RWDeuR3LwXHpZCY/BT/5n/36Yan8KJDQ+E0/y2wWIcmo9C/f/9k1qz3k3ffnZuMHTvMl2aG331XoCHf7bLdg3rk1b+84zs2E/HvPN2nBSi06NBQDoT7NaxvWlBHDB4yJHnxhSkQX+9kjTUG+dKKeR52Pho1NyV/KqhH9jJXuVxUzsa/7SKfFp7CbnhGQ+HmV77J605wpFevXklLy+KkXz9eUFo1XCK5D3V1nsv+K/hvnLioheCOkeA6p5CiQ0P5EdzPXK4+6dGjR9Le3p707Gky2Dj3sstuuMyn/4Hv4S5xuWj8Dca9lLUYypaCQokOjWQojPv/znAl9QsFt9JKvZPWVt5/kZ/W1vaTXnr5lRt8lnV5DFzsHo43oO4IwTW7rOiMwnzToZFwkZszlNyIXPcMGjQ4ef316UlHR1uy9tr5toIuWdKavPyX6cnee2+XzJk9mz0e9zMygFBM7oTYDvFp0QWF6OkguCPhOCPXEIIjS1uXJmuuNTSZP58b7fPBv2OtNYcmS5em+6lPhnG0EJNrJbjs1Fx0EBwbyc0u1zgsWbw4GT58taStrT354IOFvrQ6Zs1akIwcNSz9Oz28tioWl0FwDOsgMlJT0UFw3KFwqcs1Fh0dHcnCloXJhhuOSqZOrf785rRp85KhQwfDBiSLPxFdLC6A4E7xaZGRmonOf+hf7nKNyUcffZiMWGf1ZMiQQclbb1UebW727A+SOXM+TDbbfEzSgr8rMhMgOO6BFRXCE9LRgeD2g2NYt4anrbUtWW/MOsnMmfMgogXJ4MGrZNoSNmPGfPyZ95Ltd9gk6dmjI1m0iOdno3EsBHe1T4sKiS46CG4HuPtgsff/FZL29o+T1tbWZMzYEUlLy5Jk8uSpGHomSd++fZLevf/58bS3dyRz536YvP32u0mPnr2S7bffBALtwJ/LPxlTAYdAcA33DW5J1CUDCG4k3FOwUWlB7eGd1c/BJsOmwVphjIXCci6gMU9j18NYKat645EAxlfhWZzBMJ5Oz7W1hDtUBg4clCxe0pZMmTIzmTljTrpwTvH1wFPiet5HHy1Ohg1bNRk1eniy1lpD0+HpcpMnoWE9HADBMdKzyEE00UFw3M7FZYHPpwXxmQd7E/Y6jKe0uW/xeTQiiiw3+H3ckM2T2BvDNoNtDuO5tYpYqW/fpN/K/VLf0rIoWbhwSTrpQvENGtQ/+fjjtnTCZNHCfDOeFcKulILj8xM5iSk6hgXg0ZKYXAnjm/kFNBieS4sGfi/3RbIXrRoe/+mJYSR7Ou5gaWtrSwUYGW7rOgz1x5eUMCCK6NAAGYDmGy4Xhfmwr6KhPOyytQG/m3FA/sPlSglHBIeiHik8YURw0aHhcaf591wuCvw+OxwNpRD3UuP3c0vW3i5XKhi57CDUI2N8CkOCrtOhwR0HF1NwDGu3S1EE5ynj8gh7OAkuEMF6OgiOJ77/6HJRuA6NJOYQtiJQH9+BOwsWOxhQpfwVtjPqkrO5IgBBRIcGxgUmhspmmLcYlOaEMurmULi9YIz3wsjKRYI7plGVTbkmgETXhBIdZw35Zg8NJ0yORyO5y2XLBeqJN5yyrrZJC2rPkahLhscQATEXHRrSYXC3ulxQ/gzjVDbvCyg1qDPeA1frnfrnoS7P92kREFPRofHwSAlnD0PfTc3hD++kZmjyugB1dzbcBS4XndtQl4f7tAiM9ewl43GEFhx7toPrSXAEv+dCuFpMBHGmsu6vHC4SZj0d3tQMtxB6mxD3RKJ9NsWcFY0K6pH3wzHWSYxJFm6B2wH1qYmTiFj2dDHCnR9Rz4Ij+H18cfEuvWfSgrDw+SvUeWRMRIe381fh2FBCchwaJEOC1z34ndx2xZHDvWlBWMbj+Y33aREBk+ElHhq/C0Le4nkaGmLs+I2FAHXL6M37uFwweGx9XdRx9HgPjUjung6N4ii4kIK7uFEF5+ESTOgd/rxM4UyXFKGxGF4e730IrofgYu7dLBz4/S1wnM4PvdP/LLxAK77JRFROLtHhIXEnBe87C8GzaHBf9+mGBvXA/ZDcPhZymYQn3ye4pAhJ3p4ulCh4UjNkD1o6ILz0bJvLBeMUvEgZhkIEpGrR4eEw/EKoRdWT0Mhe9mnhQZ08Asd75kLB3u4klxShyNPTMW5liEjCvOSem4BFJ6BuboI7zeWCcCJeqIrUFpA8ouOsWgjq/saevEB4nM29wuXMYbSzGCdEGpaqRIc34Xpwu7ucKRehQb3q06ILUE8cBnK4GQIuA4lAVNvThVisZYhiBvIR2eFkU4gZzc/hxcpoZiIA1YpuN+8tuRpvbx5KFRlBff0dLlS0MR31CUSRRHed96ICIDyGN3zW5UzZ13thTMWiw7BjRziGE7fkUTQeLRFUT4htchvhWTNStTCmmp5uF+8tud57UQV4YfHmVS6eW1PGeJ2FpxrRWW/7Ypx8BcPJT4irqxixTBhT0dEeDDcoUs4y5rqhZgUUn8MIPJ/34Qa5nBlD8Hz49wojKu3peFDVUnDkMe9FfkKEIuRhWmFIpaILcc3V77wX+ZnkvSVN3gsjKhUdb1G1ZAqGLm/4tMhPiFGDRGdMpaKz3qXAm2GEEXiBMeyC9Zodd6f092lhQGbRoeJHww13OTMkOntC3Mmn9TpDKunptvTekqe9F3aEEN0474UBlYjO+m03HcOht3xaGIE6/QPcXJczQ6IzpBLR8eJ6SxRVOBzWs5gbeC8MqER01m+7ENuWhIO9nSUbei8MyCS65uZmbnAe63Jm8NJIEQbrOJmj0AasN0U0LFl7uo29t+RF74U9Ie5cH+O9yEmtRDcLH/wzfVoYg7rlJnLrO8O5ZCQMyCq6jby34iXvRTje9t6Kkd6LnNRKdLytVYTF+lpoic6IrKKzHs8r4ld4pnpvhSI/G5FVdNbj+de8F+Gw/qZbzXuRk25F1+xi21vHRJHowmO9K2Wo9yInWXo6Rvy15IOmpqbZPi3CscB7KyQ6I7KIzrqXs/7WEJ3DsBqWSHRG1EJ0H3ovwmJ9lXGIy2IakiyiM7mXfDmWeC/C0uq9FRKdEVlE1+69FdYiFqJUZBEdb0W1pLf3IizWd8xZfyM2LFlEZ/1twBtcRXish4MSnRG1EJ2C3MRhbe+taPFe5CSL6Kwr2zoCseicrb23gtdyCQOyiM760sEh3ouwHOC9FdYbqBuWWohuQHNzcz+fFgFA/W4Ht4nLmfFX70VOuhVdU1MT19Wshbeu9yIMX/beEu2XNSJLT0fmeG+FdbwV8c+EEN0z3oucZBXddO+t+Kz3whgMLTmBsqnLmfEqRjwM2S4MyCq6N723wvp7Q3zCwd5b8oT3woCsorOOxGwduFZ8wiHeW3KP98KArKKzDq8wDsMgnUQ2BnXKa63Wdzkz5mNoGeJ+hIYlq+he8d6SvbwXdoSYQLnDe2FEJtHhTcdwbtbLBl/zXtgRQnS3eS+MyNrTEeuIzHtgOLS3T4ucoC63grO+6GMqXri6E96YSkQX4u6BM70X+dnXe0vu9F4YUonoQlzIvxPe0ON9WuRjf+8tkegCUInoQs1gneO9qBK8uHiVlfV98FwQt75yS4DMosMD4BGfR1zOlPXRaDTMzEeIXu433gtjKunpSKjhxtkQnsJ2V0+I77l7vRfGVCq662G8hskaniY/yyVFJeBltQbcLi5nxt8wstEG50BUJDo8CB7zofBCMAENaAufFtkJscngfu9FACrt6cjl3odgovciOyHWOjW0DEjFokNv9zrc1S5nzu7o7S72aZGNL3lvxVw8Y+21DEg1PR0J2SOdCeGd6NOiC1BP3OBsvXFcJwoCU5Xo8CZkvIyQPdLlaFDam9k9IZYKHvBeBKLano5cCAt55dV1EN7hPi06x1p0DKEv0QWmatGht1sId4HLBePXEN5XfFosB+rl83DWd8E/hOeqSM6BydPTUXhXwP2fywXjTjSwA31afMJh3lvykPciILlE5/mh9yG5W994n4C64OUgX3c5U0Js8xMrkFt06O14sjjGw+I33vd9utH5LmywS5oxGc+Sy0EiMBY9HTnX+9BcCOH90qcbEvx+7lE9w+VM0VJBJExEhzfkH+GudLngHIuG93uY9SnpsvDfsBBBnbQLJRJWPR2ZAIs1PNkR9hyEFyLcXGHB7+XE1dEuZ8qbeHHq7FwkzESHh7YU7mSXiwK/aW5HQ6z7s3j4jRvBJiF5gisxR8GHImLZ01F4nFCJPdlxMRrkz3y67sBv+xYcg0LtlhaE4XbvRQSCXLqPhnIdXOwpfq4xjYfw57psuUEdcgjNF1joiGlPoM529WkRAdOebhl4iFxD4nAoJjxX9ic0Vutd91HBv5+hCXlC//ewGCEKr/VeRCJIT0fQcHjNMYVnHTAnCz+CnQ3xf+yyxQZ1xVuMDoUdAbPe2tUVPCGuuwIjE0x0BI1pBByHfbW4pYd3ZPPc3w1oWDPTkgKBumGYBYqMm7o5lKwFJ6BurvJpEYmgoiNoXGPgKLxaXgT5IOw+GhpZTS+sR31w+HsM7Ki0oHYwxJ7uCawBwUVH0NA2huORkdFpQW1hpOpHYQwXPgkNL/gQFL+fJwJ4DIeblNdjWQE4Cr/9Zp8WEYkiOoKGNw6OwuOQsyi0wp6CNcO4q+Y5NMT34HOB37oq3M4w9mr7wEbCisQd+J38hhQ1IJroCBojv+24QTrmZEGlcFcNe8M3YNNg78A+hDHYLg95dsC4y5+2MqwfjCIbBmMvth2syFHNFsPGQXTWF32KjEQVHYHwPgNH4W2fFojYcC3zVz4takCQdbquwAOfAcehl3ZBxOfHElztid7TLQ96vf+CO83lRGCuh+BCHHwVFVJT0REI7zi4a1xOBOJaCO5YnxY1JvrwckXQGH5BB9Op5TD8XIIrFjUXHUGj4D5DzvrdlRYIK05F3X7bp0VBqPnwckUw3LwE7lSXE1XC5Y7vQHC6L7yAFE50BMLjYdhLXU5UCL+PT4bguB4nCkghRUcgvC/D8XuPG4NF93BP6VkQm7Z2FZxCfNN1BhoPo1NtA9MNMt3DUcFGElw5KGxPtzzo9Rji7zyXE8txE2wixMZwDqIklEJ0BMLjtjFOstTq7FmR4GnvqyG2511WlInSiG4ZEB8X08+BFW3nfmhehXH4yEO5NT0TKPJROtERCI/forw48njYpiyrU+bAuEf1NgjtybRElJ5Sim55/Cwnwx4w8CyP29QDPIVxC4SmzQJ1SOlFtwyIbxU43mW3L2w/2ABYmXgJdivsRoiN5/hEnVI3olsRiHAPuGVW1EOlr8EYu+UuCO2ZtETUPXUruuWBABkiggFVd4LxLF8tgyTxzoD7YQ9AaDyhLhqMhhDdingRcoM1Y3JuDdsKxpAL1rTBnvXGWCxPQmgL4EUD05Ci6wwIcR04Xr/FXnA4jDFPuAWtP4zfh4yHQlhnFBODGtF49zrv6WZAo3mw2bApsLdhr0BkjKsihBBCCCGEEEIIIYQQQgghhBBCCNEoJMn/AyNW70kA8Tv6AAAAAElFTkSuQmCC;" parent="1" vertex="1">
          <mxGeometry x="80" y="360" width="39.46" height="40" as="geometry" />
        </mxCell>
        <mxCell id="XDREiczh1BjlEG057Aef-6" value="Leaf - Only one line may connect to this node.&amp;nbsp;" style="text;html=1;align=left;verticalAlign=middle;whiteSpace=wrap;rounded=0;" parent="1" vertex="1">
          <mxGeometry x="130" y="365" width="310" height="30" as="geometry" />
        </mxCell>
        <mxCell id="XDREiczh1BjlEG057Aef-7" value="" style="shape=image;verticalLabelPosition=bottom;labelBackgroundColor=default;verticalAlign=top;aspect=fixed;imageAspect=0;image=data:image/png,iVBORw0KGgoAAAANSUhEUgAAAN0AAADgCAYAAACHIGNpAAAAAXNSR0IArs4c6QAAAARnQU1BAACxjwv8YQUAAAAJcEhZcwAADsEAAA7BAbiRa+0AABKXSURBVHhe7Z07cBzHEYZ5e2AJmZkZjkxFIiNLmVQFgLqMjExFgjIyohBRjkxVuUpGJAaukjJJkcQIdEZlcHQEj1WkI9CR5EjMTGdwhjLu4b+xc+d77N3tY3q2d/f/qrZ29kDeY7b/7p7ZeVwihBBCak3LnUkF6Ha71zY2Nrbc5aVWq3W6vb39yl2SikDRVYDj4+PPoii6h+K1+JUZXuN41O/3H3Y6nbP4JWIZis4wEtna7fb3iGjvu5dW8TOOuzs7Oy/jS2KVyJ2JMRDd7iCVPEkpOEGi4Av8vwfxJbEKI51BXNvtBMXN+JXMdBDxnroyMQYjnUEkpcQpr+CEQwj3iisTY1B0xpBOkwwp5TK2ECm/cmViDIrOGFEU3XfFouwx2tmEojPE8+fP38XpanxVmE2kqR+6MjEERWeI4XCY9BwuN6PRyOv7ET9QdIaASCajTXyAVLVIZwxRgqIzBETCNlgDoOgICQxFR0hgKDpCAkPRERIYio6QwFB0hASGoiMkMBQdIYGh6AgJDEVHSGAoOkICQ9EREhiKjpDAUHSEBIaiIyQwFB0hgaHoCAkMRUdIYCg6QgJD0RESGIqOkMBQdIQEhqIjJDAUHSGBoegMMRwOuX1xA6DobPHGnUmNoegMEUWR7BvujdFo5PX9iB8oOkP0+/1XOJ3GV8UZDAbc9N8gFJ0hOp2OtOkex1fFQJR7hfd77S6JISg6YyDaHeBUtG13hlT1risTY1B0xkB0eoMote8uczEcDg+2t7clVSUGabkzMUav1/sGp0/jq0wc7ezs3HJlYhBGOqNAOPuIWJIipu1YOcO//5yCsw8jnXG63e5Wu90+bLVaqzbtl0cDdyE49lZWAIquIkB8V6Mouoljsi85ItspjiO0A/k8jhBCCCGEEEIICQA7UipEt9u9trGxMelIabVap3wIXj0ougpwfHz8WRRF91C8Fr8yg4yvfNTv9x+6sZvEOBSdYSSytdvt7xHR3ncvrYLP6ioCR6QYBdHtDlLJk5SCEyQKvsD/exBfEqsw0hnEtd1OUNyMX8lMBxHvqSsTYzDSGURSSpzyCk44hHCvuDIxBkVnDOk0yZBSLmMLkfIrVybGoOiMEUXRfVcsyh6jnU0oOkM8f/78XZyuxleF2USaumpmAikJis4Qw+Ew6Tlcbkajkdf3I36g6AwBkUxGm/gAqWqRzhiiBEVnCIiEbbAGQNEREhiKjpDAUHSEBIaiIyQwFB0hgaHoCAkMRUdIYDi1xxC9Xu/POH0RX3nhYGdnR96zFoyXqxgOh7IG6NLhcvj7a/z9tdXlLCg6Q1B0/2daYO12+3ej0egmXs4zrE12QHqC499yYUGQFJ0hKLq168H45mJ9GQjwSUgBsk1nCNz8t1yxcYjY4HR+guBkHmCogdqSon6BKHqCz/5FnB4irPp4VYrOELj5e67YGCSNfPbs2YvAYkviQoBIaX8S8blpViqYSS/TNpKnsd5gzoLcZPG47tIXptNLWXwJ90/24bM6G0JlecPSRecxhxfxPYHh/qeKYoS338P3PXSXvjArugoIbhqvyxuWJrqADeYLb4XjqWURuvrwva6JSdG53/olipWa7wdn/vmNGzceusvcBG/TSYUHbjBf5Oo4uqEbzFlAfTRiLh3S6C/dva+U4ARxFLDfwuuKBhNdCWJbxkyD2Zr4fAInY2azyHGHCb5TpRfD9SE8ddEZEts8Y/FJ9Cu65J1JBoOBiSXWYQNZV6s2TVHhqYnOUFfwOuS71W45ckSUV51OR9qzpSKCgw1UpcMkNUWEpyK6Knq2ot7LGqj7H12xNOoquDF5bca76Kpc0XUTXplIplNnwY3JYzNeRVcHz0bh+cHDfgyVQWym1+ulXtjXm+jqILgxFF4xpO7q0mmSgdSbtngRXZ0ENyar9yIxLq30OVOiKqTetKWw6OoouCmCbTk1HA5rsXVxk9LKBGTTlrWrdBcSXc0FJ4TcckomW1aahqaV02zCXmR420pyi05GxddccGNSea+ioC69jh4JPRqlwWnlPGu3KMslOolwuKkvUGxCGpHKexWl3+/LQOzT+Ko4oUejlJVWyiAAnA5wHF28UD5rtyjLPMtAPJo8+EaxaXm7+j7evV5PModP46v8iCHu7u6+5y7VgRPWmCGxjJ/R/n2Ez3sJR/Vyfp6bdH7h75KFXUE93EC6G7wzbN1shMyik6FdDc3b3+AmX8dN9haN5pE01jm0IunsGe7PByGnMMHQf8Ep1cTjIuB3fY3f9Qd3uRZP9ZmHlbaSKb1seENZvVMFN+kNvPO+u8wFvOxBSMGJTeCkLjhwlEVwgo/6zMlKW0kd6RqcVk5zBg/2G81oJxRIM4+QAt9yZXUC2kSh3+Urbc+I2MrbInx3PSF1pCvx+Yv0wklD+QBeS7VNlYIg+3jDwPYRse6imFbcZ9KOCCk4IYBNePldOerTB0s74FJFusAN5TGJ61LAu8rCRTdxTPL0wA3mH/Cd5AaqI20SGPbhmt+WWE/aBLAJ6SC5hd/lzdGmrE+fJGZGqUQXqqHsyGVEIkaXR9+OX1EjSIo5TZKjgec+xXGE7xH0edwYbZuQCOdjPZIkxvUJ8X2sLUAEhI92d3dlhekJa0UXMMoV9tgwBOnkkeeHqiRVZJPQtgnUb7BHHgHaewuZ0do2HSr3vitqIg3l60UEJyACeX3AvAx4x9+7YiNRtokzvH+Q9F2AzUnv5rfxlQoLI1RWik48Gk7aaaW3HjekWtIOeBxfqXJ7viKbgrZNIK0M+shDEOG5jhaNQecLnW8r00vtvF0jjdBMMfF9Jcq5q/UdKhBm5lWri4DPUV9kV9MmQqaVSWilmvPt06WiC9E7BePwPnIChi5dtf9CsVAkmhNYEgMcf8Gx4B3x/97C/5cOnTIXZJqseO2uC4P32sJ7ygLBGgQfSTMPbEceav+Eou8sZmbR36VWpR3l5tXvkyIeK4XYSEqkHqU+06BpD1lQinaPIbpPXDm5Ted2LNFMh440K7jf78vD9Fzz0yg4f6QVHP7dKwuCc8gS/L6Z6QNIFB28jlpaBKP+2lfHyTJk6A1uZKYxd2kNhBQjyamF7K1ch1IP+ExnSqLoYIAqo7LFo2UdtJoX9xwtdVcwI1wYxs5t6iw2UVo7bh7XA+79GSx+5ySQJYoOqvy1K3oltEeb6gpe6bnGBkDCMXZylqLcGNjMP13RG/idkzGqyyKd9x1By/JoaCv8gJThOj5/6Rg+RrnSOAelL/2egOp6NQui0+pEKdOjSRsP6WYHRc2RByQ7l914WVPACWs8JJ+wIDqNTpSyolwCCz1TTC1LZ+1CPqGBTajONF8QncYHwnOUvpmFkNQzxdSydILMUcwCsjJVJ7AgOu0PLJOAYzNJBuDoyxy5EwT8xskUrMSOFN9Mf2DZIH3+uysSI0z37NWV6SURg4jOyo6gAm7wggNgikmmgT38yhW9gKAzs0GnuujmP7Bsktp1+I6uRMrAUiYk4Pt4XX1gvk9DXXRWOlHGsF1nD0uZ0HGAJQWDpJfWYLvODpYyIZn/iOaH+n4MIUT3jjubIaldR0oh6NIM62grLSkIJz8zwiWE6G5ae/jp2nWkZGCMwZdmWIZM2kZTSGX1coh5Jn0OIbor1ob6XL58ufbPhSqA6pzKrCDiai22dHZ+fj6TWS30lUtDEl/A99ZQwdeKXMWzZ8/24NUO3WUZyE34a1zMD9pDpexKU5ABItyfLAlOc2kS3KOXu7u7H7jLC5JEJ7urSm7rFXy4mbUi8zgWfP91z/OOcaxcjRjG5n2BWKTuCwvRekZEfSMuFkPqD7//v4PB4LeoAzM7zyovtvQJ7H6mt3zBivAFtFbTCrYc+TqUKnlm8Zm6gLqS35SqR2+ZY5LXham/mbEFzSgnIMOTTURmemcX2nSuk0FjasMdiTCuXBpaU5dgWI3vEV2WCcjrc38zM7MAglNbOBc2kfg4ZEF0+EdqD48lpStbeEhtVNpAlh7w+gTpoIYD3rx8+fIfXbkU5JmcbHCKotqDcNh7YjRf1nv5nTt7p2zhaXi2ZR6tJqi0vVBnD5B1fAnjDz7YGfZ3Z2Nj4wTRV22DU7GJZY9DEkWXND7RJ2UJD5+psiQ4bl6woW7iodHO+nB8uHRZDdwrtbRZhCfGj9+hZvzziODwm2RtS9V99fAZS9usyUk4QEVo72Yixvrw/Pz8wKW06uA3qfRSwXgWeqh8Iw4DN1JWV056xihR9hGc5UPfdSmRCMIovGL2OsQWUI9/w1ltSfhAgpOUPN9G/877qG87BcST7u943PwvCWe0Kr1UST1UvpDIJsOTUqZCUpfeN4gM4YDnuHAi+M1PfAkwlOAkrYQDXrkfw1LRhfJwU3iv6GkUo5zaphd5DWWdp80KbEFrjf80XNgFjqd5oqA4LdThbRzy2EO9/Yjv+N6677hUdEIJHm7MxeYXg8HgH6isQrvQSJsHRvgN3kOl3aCVWoqxSHsHxbyG0vGZPZRoC/Okso016bgKaR3wStGV7OHmybQLDf5tkJ1ztFJL6c4u6Cje4Ltdx3fz0iEWsLmRh4lthLrvSeCz10Y5YaXoBEMezhxpPVtWPLY/vY38KKG5USmy2MLaWQbwlrl3wKk7EIbKUCa8r69nid5GfrheUc64X0IWW1grOlR25h1wmoB4trztzFV4HqbmdU1JOuBkstrCWtEJCJuZdsBpAlpRbuh5hW0YhLf3owNOJPPs91SiE9A2kMqm8IBWlBPw3l6n6MAgvHaT0wHPAieZefZ7atEJFF6MVpQT8N7mOypoBxNyzX7PJDqh6RWuGeWqBIV36Qh1kGtH4cyiExpc4aZWryqbBttBbsEJuUQnNLHC8+TvdadhdnAmQ+yKCE7ILTqhYRVuavUqS4gdwBglAzCx8JQSMpi848MGColOaILwpB3X7/c/cpckARjj2m2mK4ykk9dxeJm9UVh0Qs093UU7zo3IICuQ53i79dtmulD7LQkvohPq6ulCt+NkwK4rVpYaOWHvghO8iU6ooacL3o6D09pzxUpTAyesIjjBq+jG1MDTeemlyorW8oBlMXbCEN/bqE9p+x/FfzGN+r1XEZ1QYU/nrZcqK7jZweeAhQDie436/FYMGYdMJ+sYtYsg915NdMK8pzMuwLGH89ZLlRXUj9bS6KZA/T41Zhcitg9C3fu1k1h903Vr77darY9xWNn8QmVBn6z0MixhnoFKLPc+tgscWxBhiI1Rfobgv8PhdW+JNAQX3TTTFS3XgSp7TGmVvgwN0aFO1ZcH1EDRNkp3sKWKLon5yvYNROZ95xxfaIhOUjhpU7nLSlPENizdd3OiazK+RYfooLY8IMmPakcKKRekY8GWeyfpoegICQxFZwi0OTi+swFQdLbgSlsNgKIzROR5W6oRd4c1CUVniL7nfQHrujts1aHoDNHxuIqyPC6oy/O5ukHRGQPRzscqylxAyTAUnTEQnQqvojzkAkqm4YgUoxTYLUlt8iXxAyOdUSCcrBOBS5l4S7LDSGecbre71W63D9eMsC995DxJD0VXEZJG2COymZ0xQQghhBBCCCGEEEIIIaRq8JFBBel2u9c2NjYmjw5ardYph31VB4quQhwfH38WRdE9FJNWgpYZBY/6/f5DN1uBGIWiqwAS2drt9veIaO+7l1bB0SnG4dhL4yC63UEqeZJScIJEwRf4fw/iS2INRjrDuLbbCYqb8SuZ6SDiVXWrqtrCSGcYSSlxyis44RDCveLKxAgUnVGk0yRDSrmMLUTKr1yZGIGiM0oURfddsSh7jHa2oOgM4nlH1k2kqVa2JCOAojPI0POOrKPRqJY7vFYVis4gEInXbcKQqhbpjCGeoegMApGwDVZjKDqDtFqtt1yR1BCKziBIL/dckdQQis4YnnsuiUEoOmP47rkk9qDojOG755LYg6IzBnsu6w9F1wAQPbkYrSEougbAzSFtQdHVHEQ5bg5pDIqu5rRarR9dkRiBoiMkMBQdIYGh6AgJDEVXf95xZ2IEiq7+3OZyDbag6OoPl2swBkXXAEZcrsEUFJ0xhsOh930IuFyDLSg6e7xxZ1JTKDpjICpxcHLNoeiM0e/3ZZ+50/iK1BGKzhhub7nH8ZUfOLXHFhSdQRDtDnDyFu04tccWFJ1BEO2kM8VLtOPUHntQdEZx0a5oT+ZZFEV3XZkYgaIzikQ7RKl9d5mL4XB4sL29LR0zxBDcidU4vV7vG5w+ja8ycbSzs3PLlYkhGOmMA+HsI2JJipi2Y+UM//5zCs4ujHQVodvtbrXb7cNWq7Vq8LI8GrgLwbG30jAUXcWA+K5GUXQTx2RRWkS2UxxHaAfyeRwhhBBCCCGEEEIIIYQQQkgVuHTpf1z97FaKoVD0AAAAAElFTkSuQmCC;" parent="1" vertex="1">
          <mxGeometry x="79.99999999999999" y="680" width="39.46" height="40" as="geometry" />
        </mxCell>
        <mxCell id="XDREiczh1BjlEG057Aef-8" value="Leaf - Only one line may connect nodes across the set boundary.&amp;nbsp;" style="text;html=1;align=left;verticalAlign=middle;whiteSpace=wrap;rounded=0;" parent="1" vertex="1">
          <mxGeometry x="130" y="685" width="310" height="30" as="geometry" />
        </mxCell>
        <mxCell id="XDREiczh1BjlEG057Aef-9" value="" style="shape=image;verticalLabelPosition=bottom;labelBackgroundColor=default;verticalAlign=top;aspect=fixed;imageAspect=0;image=data:image/png,iVBORw0KGgoAAAANSUhEUgAAAN0AAADgCAYAAACHIGNpAAAAAXNSR0IArs4c6QAAAARnQU1BAACxjwv8YQUAAAAJcEhZcwAADsEAAA7BAbiRa+0AABE0SURBVHhe7d09cBtlGgdw7NUM7kiHqc5XkVSXVMBMbKHOVPiqC9U5VUgFVJdUnKv4qtAlqZJUIRWmM5VjyzMJFaEiV+GrLqXpPGN93P+RHulkaSXtat/n3Xd3/78Zze6KYEvr9/9+7dc7RERERERERESUzJIuKUAHBweXa7XaaqfTWVteXl7Tt6fCvzvBvztZWlo6vX79+mt9mwLD0AXo8PDwa4TnFlYv999ZyAleT/F6wRCGhaELiLRsURQ9Rkg+1rdc6oUQP3uPAcwXQxcACRtatk287mFzpf+uqV4AW63WbqPROOu/Rb4wdDnRoG3h9XdsZulGZvEGr5vr6+uv+pvkA0PnUSBBm9DpdO7W6/Vd3SRjDJ0HjiZGTGGst3t+fr7D7qY9hs5QEcI2ht1NDxg6A8azkObY3bS1rEtyBK3bnVqt9ktRAyfQOt+T76Gb5BhbOkeK3rrFYYtng6FzAK3CNlqHB1j1cYzNtwbGeC90nRxg6DIqeeDE21ardaXRaJzqNmXEMV0GFQicWMUY9b6ukwMM3YIqEriBbU6suMPu5QIqFrghTqy4wdClVNXADTB42TF0KVQ9cCM4o5kBQ5eQHIeTg95YrXrgBGc0M+BESkJy4BsLBq6PM5oZMHQJoFv5dZnONHFku9lsfqrrlAJDlwDGcV/pKl30DN3uS7pOCTF0c0grh8XcO3FVFLuZC+BEyhzoQv2OhffQdbvd1+jS/qib4z7Ca7O/mruzVqv150aj8Va3aQ6GbgZp5dC19FaTS9Cw2Gm32/tJruCWMVWn07mKzyhdvDyD+GR9ff2mrtMcDN0MHls5J1dsY3y1GkXRM7SQvic4pLX7gIcQkuGYbgpPY7kzOcMDYbuSNXBCungbGxsN6e7h536Dt3yFYAVh50xmQgzdFB5mLKV1a1icUoXwneDnfofwXcOml7EWWtfPdZXmYPcyxvHx8VWMr+TsEyv7aNk+03VTR0dHWwjED7ppiRMqCbGli4GumeXdu7wFTqC7uYfF9/0tUyu1Wk3uUE1zMHQx0Mqt6qpTMjvpM3ADaIFkfOejBbrBg+XzMXQxoih6X1edwjgxl2l16fIh8Ld10xInVBJg6GKggN7QVWeklcvzaTnazXzY37KD71mUG+vmhqEbI5MoWDg/VJBXKzcKXdvbGK/K5zA7lIDvySsx5mDoxlhMouTdyo2q1+tPMMa7gs9kdRHqh7qkKRi6MSiMzidRZpxDmYvBQXSsWnQ3QzknNFgM3Rg9j7ES0OLtYOG6q3lJrrLXdYrB0HmA1lPOPgmOHsh2fgwviiIZF9MUDJ0H7XY72EdPYQz7s646g+40W7oZGDpjMoki50LqZnDQnQ6yFS4zhs5YaJMo4zCuk1lVPn3VI4au4tAKS+DkwDl5wtCR+LcuyQOGjsgzho7IM4aOyDOGjsgzho7ksMa7ukoeMHQkB/CdXz9I0zF0FWd1/SBNx9DZC/r6MuObMFEMhs7eVsg360HXkq2cZwydvaBv1rO8vHxLV8kThs4DtCZBduGsxnOhXj8YCoZuDMY4zs+4R2vyF10NSrvdNmmBQ75+MAQM3SSLm7LKuM7kBrZZoDJw/ryG0K8fDAFDN8boos7gbjl+eHh4BwvnXcvQrx8MAUM3Ri/qtLgv5LYW9Nzhc2yjcvlWN53ieG4+hm6MXtRp8sANFPR7eQdPfj8+xwOsmtwUluO5+fiorBjaEjzWTQs76Ibt+bwBrcxUdjqdB/i9H+tbzsl4bmNjQ56JRzMwdDGazaYUzJf9LVMy4fAUXdpdbWGdQwUiz02XY3Hmhy0Qui8QOh+P5So0hi7GwcGBTHz8F6u+ziRxHj6fYRvA55eHQnLmcg6Gbgq0djLu+bK/5c1bdP+eYPl80a5nHmET7Fomx9BNIcfV0Nr9htW8zpuU44V7cjNYhGjYemB7DdsTU/0I63so+PIcgVzOfsHvvxbKQ1JCx9DNkFNrVzhs5dLhIYMZMEaxeMBG6aDlzf3Ze0XC0M3QMHrARplIK8duZToM3Rza2vl4SH4RnbGVS4+hm0NaO9TmPh6SXzidTmeHrVx6nEhJiJMqE/bX19c/03VKgaFLgcEbYuAyYOhSYvAYuKwYugVUOHgMnAMM3YIqGDwGzhGGLoMKBY+Bc4iHDDJAQZRDCQ/7W6V01ul07jJwbrGlc6CkLZ7cduEmAscrwR1j6BzRq83vYzXYuzknJK3bTr1e39Vtcoyhc0guB4qi6NnS0lKwd3Seg62bBwydAYRPrnnbxGu12+3WAw/hG7Rsj/DabzQavJOXBwydBxJCtICPAwsfW7WcMHQejbSAn2NTrvLOA8OWM4YuR81mU1q+f+BlGkC55g2vp+xChoGhC4QEEKG4ilZQZj8/witpECVEz/ur/4efJde6vWq1Wq8QNJPb+9FiGLqAjQXxArx/ypaLiIiIiIiIiIiIiIiIiIiIiIiIiIiIiIiIiIiIiIiIiIiIiIiIiIiIiIiIiIiIiIiIiIiIiIiIiIiIiIiIiCi9oB70f3BwcLlWq612Op215eXlNX1bHmp/gu2TpaWl0+vXr7/Wt4l6ppWbpHyXryBCd3h4+DW+9C2sXu6/M5PsnL12u/0rg1htKctNUid4PcXrhVXZyi10Ujthh2062mm9HdVqtXYbjcZZ/y0qKyk7URQ9Rig+1rcsOS9bXkPnOGhx3uIP8aTb7f7EFrB8tPxs4fUtNlf673rzBq+b6+vrr/qbi/MSOqNuQBJsAUsgx/IzAZX57vn5+U6W8mQauoB2Vq8FzLqzyC/P3cg0MrV6JqELqWYaw/AVBMrQNsrQA6z67kYm1ul07tbr9V3dTMxp6AIO2zh2OwNWhMANLBI8J6ELuBswj7PBMblRpMANpA3esi4XJjupVqv9UsDACWmRX+I73OlvUp6KGDiBz3wvTRnK1NIVdSfFWbR/Tm6UpCw10Gt6oetTLRy6MgVugMHLR4nK0ttWq3Wl0Wic6nashbqXZQycwHdK1U2g7EpWllYx1Lqv61OlbunKGrhRbPH8KGlZOkNr92e0dm91e0Kqlq4KgRPS4jWbzU91kwzoKV1lLEsraO3u6XqsxKGrSuBGPEPBuKTr5JgcYsKirGVpe1alnSh0Ja6VZknUP6f0UIHfKeghpjSmVtqJQlfyWmmWbSkguk4OaI9JrhIou6mV9tyJFCl0MsbRzUrixIob0mOSEymwWqUKfOLY3cyWTruVVaiVZpJKhy1edhXtMU10M2e2dEdHRy8r0PdOI9EZBzQJlZacDO97jHyG8vuw2+3+ods92K7jfZ+z009Qbm7q+vTQ5bSTxskJyc9lJYcdFSfRGQc0qdls/o5F6psGZTDzZHa0PnITo020vn9C2foSb1nOVMuxuw8G5WZq6HLYSQNvMIZ6hNc+PqTsuCF8JplBlR2Upwu1Fs13fHx8FQVbxnI+pL5yRAKIseZLrK7233EP3/+vGxsbe7IeO6aTVg4Lr7USQvaNtCLYWVfq9fp344ET+G+3sXjY38rNDfyRzP44ZdRut330UPYH5SdN4ATK2glCIWXLDHppn+tqfEvnsZVLXSsJVAoy7Sxd37wOXrO1S8FDedrH3+MzXV8YPuczLG70t5wbnh420dLpLJ114CRsnyxSKwm0hE+kVkPtlNekBlu7hDz0mpwETqBMfYPF1HMmMxqeHjbR0hWlVhrIsdVja5eAZXlCpfsa46RruunE0dHRFrqCP+ima70JlQstnQx4sShM4ESOrd7W+PEXusi4PJ2hsnVe6elkR2/Cw8BKFEWfXgid8YDXeeAGpJ+MndWQPrNMyOAtH1P6l3hu5myW5Ql/5x3Dmwn/qkvn0DhcvhA61Bxf6apT0g2wCtwomYWSmU+PLZ+M7djaTWFVnmDf8rQ8BNrsDnHYJyvD0Fl2BSy6AbMMWj6sWh9e6HUXdJ1GWJYnVKqm0/tgNZnSMwwd0m1yr0pp5fJ6pgBa19v4XhJ4s+6mdBd0lUZYdS2lPEmPRjdNoJGYOEbs0jB0+DIWU+Amg900rCdapLugqzQC+8Wka+mjPKG8SCNhVlEPQ4cv43xsIiebhvDkHOluoub9Aqum3Qbqs+pa+uo1obzImO77/pZ7FyZSXEPX7mddzZ0ED380mdkkY4azlv/SpTm0djtYmFTSpqHDzk99toklfB45/sIrBIxZdS19lieppLF41N9yaxg6dAXf1VUnfAx409Jug9WBTwLLrmVo5WlRoxMpTk/0RIh/1NXQ/EeXZMBqFhy8dS0HUIbf01VnkLM3vdAZn65DFYJCZXIieB5DFXyXLV11Rr5HL3SGtRNVjMUseB5dS4uGaPA9eqGzqp2IHPHetbRoiAZDrl7oLGqnULmeMCJ7OXUtnTdECHLvEMRwIsU1fGjTU2kWhc9ldWUwGRh0yXTTmyiK3tdVZ/Aze5WHWejyqJ3myeHeL5RRXrPgBpXz2fn5ea8hMgsdBHcQ2uqgLZWL4SRK75Ihs9CFdskLD4tQUkaTKD/pqumYLqjDEOju8ro3SgRl17Ry7oUOyXZ+pSy6ckFd8mLVtcQfKMgJI1ocysotXTUxaOkszqa+FcqtDJrNpjyPwaT2CnHCqGQ+1KUXhueODivnXuiQbIvaOpiHKuILm3wO/NzSnIQbsBuoNL0NDVCJbuqqU6OVcy90hlfK5v5QRTlMgEGsyZOHUFnlelV8hXh5FLXeQ9X5o+HGK+de6HQq0+RKWXyJXJ/tht9vNZbL7d4vFWTea9LAmTzie/xY42BMJ5MpZld55xU8/Z1WM1HezwcsAotJOTXz4flZoBU1fab+6HhODEOHX2o6C+c7ePhd8nw9s6fIcgJlKsv70Jh0MyPjJ8SOl5Vh6HRcZ1VL9fgKngZOuiNWNRcnUKYwrrylm/kAwXP2dz0+Pr5vNeYXcWVlGDrLcd0oCZ48VAKvf+r0rFMInPTNe09HMcSu5RTWt6+DGwjeL3oYaGHSpZTHeyMUcj6upYmyMgydwA67i4WPcyZlnPUtvrDsPGcB1MCZ9c0H2LWczlPlLWc7vVy01yT/nwTXsoUbiCsrcY/KyvMRw9IMP8XrBXbIadLZQR0Ib+ElYzjTwEl3wfXjmcoGfw/pBv6GVfNpfpST3fPz8x0NeywpH/g8q51OZw3//paPsIlpZWUidLrD5PnQIVxNfoIdtIcP/4duX4D/9i7+m9zHwtd5nmf4nZ/wUMF8nivv2HKSQ/m4AL//WlxZiX38sfGD8QoLNeVdy6fFlElglbd301o5cWFMN4B/LPeGNJ9UKRLZiQxccujuyR21rZ+uE6qZz/CIDZ1o2T5/uXBm7USKV9XKGz2imQ+snBq6itdUF0grx3HcYipYec99YOXU0AmtqawfrBi63B/3VWQVq7wTPeJ7ZuiEPFgRi8oGb15XgearSDcz8TP154ZOVDh4ps+2rpIydzNl+JE0cCJR6EQFg5e45qL5StzNTD38SBw6UaHgMXAGyjhHsMjwI/bg+Dw5nypmamlp6TvsRD6x1VCJys9ClfNCoRMlDR5bOE9KUH4WLisLh06ULHgMnGcFLj+ZykqqMd04/OKyjPEYuBxI+cGYSCYhivIc+DM5/zZrWcnU0g3odWxypXYRH7nFwOVMTo6OougZxtMh34Vbroi/ibKS+VpKJ6ETBdlx4xi4gATa3ZTWbcfl8VpnoRtA+NbQ6m0ifH8LOIDOdyS5EVivyVnrNsp56EYFGkCTHUnuBNBrMq2UTUM3KoAAMmwFI2VGbo/nubyYlxNvoRs1CCBeq91ut264U9+gxnqE136j0ZCdSQVkGD4pE89lBWXk1Fc5ySV040ZDqG9l4nMHkj+uygnLBxERERERERERERERERERERERERERERERERERERERERFRgbzzzv8A6j0mAIU4tPgAAAAASUVORK5CYII=;" parent="1" vertex="1">
          <mxGeometry x="79.99999999999999" y="640" width="39.46" height="40" as="geometry" />
        </mxCell>
        <mxCell id="fpyhjcKJooXqeoHlADsJ-1" value="" style="shape=image;verticalLabelPosition=bottom;labelBackgroundColor=default;verticalAlign=top;aspect=fixed;imageAspect=0;image=data:image/png,iVBORw0KGgoAAAANSUhEUgAAAN0AAADgCAYAAACHIGNpAAAAAXNSR0IArs4c6QAAAARnQU1BAACxjwv8YQUAAAAJcEhZcwAADsMAAA7DAcdvqGQAABcGSURBVHhe7Z0J1F5VdYbTKkRYlRaFFkhFQRkEBGQu9A9hklEhAjEgZQoyhlHCFAIEwgwljE3AAjLJJENj1dZIg2kgUmgxCohLQYIURGyhCki10PfN3lmS33/8vvPee869+1nrrL3PvyDf99173rPvcM7eI4IgCIKg0fyR26BA5s6d+1mYXdA2QlsJ7W20n6F9F21WT0/PbNggM0J0BQKxjYc5E23tRX/on39FOxPie8C6QQ6E6AoDgrsM5jjrDZlJEN4l7gc1E6IrCAjuSpiJ1hs2IbxMCNEVAgR3KMxM63XMdnGpWT9/7DbIGAhuPZirrdcVZ7sNaiREVwa8rHyvuV2xFQS8vftBTYToMgciORxmjPWScIrboCZCdBkDwS0Lw1cDKflrt0FNhOjy5nQ0vvROyUiIeZz7QQ2E6DIFwlgd5lTrJWdHt0ENhOjyZYpbBeu7DWogRJchiHJ8cHKg9SSs6DaogRBdnpzvVsXSEPbK7gcVE6LLDIhhMswW1pNBwXW7uiXokFgGlhEQ3OYw861XCaf39PSc635QERHp8uIqt1UxDULfyv2gIkJ0mYDB/3cwm1ivUq5wG1REiC4DILhJMFzuVQcb4fPPcT+ogLinqxkM+BRbdlKwBe7vmOYhEBORrkYyEhyJaFcRIbqagOD48junx/Y74Dsd4n4gJC4vawCDeyzMPdbLiufRPoLLTGYVC0REpKsYCG5LmK9aLzs+hMaX84GQiHQVAsGtQoPGHQS58ibaqoh2r1g3SE1Eumq5CS1nwZFl0E42N1AQka4iEOX48ruud3GdsDqi3bPuBwmJSFcBENyxMCUJjhzvNkhMRDoxENx2MKXWFOCTzOfcDxIRkU4IBLcCzPXWK5Kj3AYJCdFpYYLYVc2V8ju3qTkME8dI94NEhOhEYLAeA1NF1q1ZaMwapmA5tMPMDVIRohMAwTEN+uXWkzIPbW/cd10I+/Siv6QnloYlJkSn4SK3Sr6PRsG9ZV3ZguVPYBKpY59fYwnRJQYD9EiYna0n4xm0sRDci9YdMQL+rTBzrJccrhUNEhGiSwgE9xEYdQ24N9DGQ2Q/se4SqPKdsMxykIgQXVooOC6jUrIfBPdv7i8B/s73gXdbLylrY0LZ0P2gS0J0icCg5P64Pa0nYwqEda/7/cGHKgp2cxt0SYguARAcX4KrH57cDcFNc79f8N88CnOf9ZISoktEiC4NZ6EpU5XzdcBwHt0rdqRvjsmFr0KCLgnRdQkGIhPEqpdLHYwI9pr7g4L/9pswT1kvKfu4DbogRNc9qYs29mYCRPSQ+8PhdrcpURY1aQ0hui5AlOOjdOU7uekQXKcLpu9wm5JV8Ju/4H7QISG67jjNrYI5EFzHe9rw//I+sJMIORhfdBt0SIiuQzDjUxAbW08CF0x3iyIB0lr47Se5H3RAiK4DMOhWg1HWkDsWkYprK7tFcYlJWHiEq2+CDgjRdQbznaj2mc2F4JIU9cC/8wLMYC/TO2EptEHfGQZ9E6IbJpjhZ8AoC+Wn3ht3i9vUfB7HItZkdkDkSBkGGGRnwEy1noSrEZ0mup8MfO8nYNaxXlJ+hLY2vvM71g2GQkS6IYKBOwFGKbiX0VQ7wK91m5o10arYO9goQnRDAILbCeZL1pNxGiLGq+6n5ho0VcbmE3F8RrsfDIEQ3SBgQDG/vzqj1zcguL93Pzn4t38Lo0wfcbHbYAiE6AaHEW5lc2XwXlHNZWj/ZW5yNsPkNMX9YBBCdAOAgUQxfMp6MrjUi9txpOAzXodR3n+djeO1gfvBAITo+gEDqAdG+eCE8D6L24KqgqJbaK6EC9wGAxCi658qnspNRQQa8padbsFn8dG+8jJwJ0xWLOkcDEC8p+sDDByWilLP2vMhgr9yv1Lw+74Oo9odwfvGNfHbfmndoDcR6XqBAcl1laqsWu+mzqo4yt0RH0CLJWIDEKL7Qzhg3mOuDL6Tm+9+5eCzH4dRCu9wTF5j3A96EaJ7Fxgou8Dsaz0Zd2LQK3coDAn/DizFrOJst0EvQnRLok69wAhzgLlZcKJbBT2YxOKhSh+E6BwMkONgNrOehF+hHYAI8xvr1g++yyMwytciU3Fc/8z9wAnRAQyMUTDqhyfMzLzA/WzAd+J7wsesl5yV0OLdXS9CdMZ5aMuaK4E7wf/B/RxRpl9gYUl15uuiaP17OgwIVqS5x3oSroLgjnY/W3AcpsMca73kcAf7xjgOP7duu2l1pMNAY7GPS60nYV4JgnO4zvQX5iaHl++KrNNF0vbLy79F48twFaxVVwSYHP4HRvn0dndMcuqnw0XQ2stLDAC+j2MhRRWTMJDVteqSg+PCJ5qbWk8Ci1kqCpwUQysjHQbWujDM6KXiwRIF56jKKC/mOhz/Vqfva53ocML5lPJGtOUW/UFDsclYMVnMglEUllwMy4pdZ247aWOkuxNNWbj+IgxcXqKVzKlob5srYXtMfq19f9cq0eFEc4bd1XoSnkdTZfSqDEwaP4ah8JScjPPB1zWtozUPUnCCuZWGTyuVHIIBK0swVDU4ZnNgtraeBE5SzJv5hnXbQSsiHQYP85yoBceHJ40RnHOCWxXMtNa6y8y2XF4qX4AvRp1PpXIwifw7jPqh0NGYFLdxvxU0XnQ4oVzQq66VPRMD9F/cbxT4Xcxpeb/1ZFSZnKl2Gi06CG4tGPUqCC6dUu7CzgHWV1DlzCSjca6Ytr4VND3SneJWCVMvKAdk7eD3/QwmeWGTXpwB4bXiwV5jRYcTuAWMujD9jRiQ6hoHWYDf+RUY1kRQsSraZHObTZMjnTrN9w/QDje3HUB4R8Ew5YSKyZgsuWKl0TRSdDhxB8EwyZCSwzAI33K/TVB4Kt6HVmdqwkpo3DU0BMfLFNbrVq6t3B+Cu9n91oFjzIRGqko9zCEzCse3sffJTYx0LAmlFNxZbRYcwe/nDoqvWS85jHbHmNtMGiU6zMB8wraH9STwwUnjXoJ3CLOnvWlucibiXC7lfuNojOhwkpaHUe4FexSC471iAHAsfgKjWib2QbQjzG0eTYp0fAmuzLHYqieVQwHCmwGjynLW2OPdCNEhym0Io8pkRSZjgKlyQ5aO6t3ax3FeG5m6rymRjvcXKp6A4JgXM+gDHBu+r7zQesk5xG2jKF50mA3XhFHWB4gHJ4PDYiSvmpsUFplsXEnlJkQ65ZrAuzGT3+V+0A84Rqwmq9oXd7DbxlD0y3HMgswq9az1JHwcA+qH7geDgPPBeubcmJqSX6OtiPOQTeGVbik90imXDJ0aghs2irSDf4LWqFc1xUY6zKrcK6cSxUMQ3FbuB8MA5+U5GC7FS8kjOB+bu188JUc65V65YvNWZoBi+89mELMyQVKlFCk6nIBtYVR75S7BrDrP/WD4MHP2/5qblMY8UCk10qnqWb+MFq8IugATFguRKDb27o/J9s/dL5riRIcDz4cnqvutaRg0fFoWdIcqFWFO9do7pijRQXCrw6jeBz0LwV3pftAFOI5M3afIjra/26IpLdJx5cPS5iZHnYy2bbBIS2rWw8Tb436xFCM6HOxPw4yzXnJewux8lftBAnA8b4J5yXpJ2cdtsZQU6ZQJSa92G6RFcW+3t9tiKUJ0iHJckbCR9ZLzItpF5gaJud5tSlbAeNjd/SIpJdIpt+5cgEshxXul1oPj+gyMosBk0dEue9FhVvs8zPrWS86TGBhXuB9o+LLblOyFcTHS/eIoIdIpNzI2vQZB7WBSY9YwFplMCQVXbLTLWnSYzZgafYz1knM9BoS6Gk1gMCV7akJ0qYHguFfuHusl5xW0k80NKkAhus9gjIxyvyiyFB0O5odhvoW28qI/pOd4RDkKL6gAHOunYB6yXlJ4v18cuUa6G9A+Zm5yvoxBcIv7QXUo0l4UmbgoO9EhyvH1gKocLgt+tKIcU4YoXh2sgfHyN+4XQ46RTvlO7jxEuRfcDyoEx52FJf/Jekn5ottiyEp0mLV2gOH9nAJu2ZlublATikvMDTBulOW7kpNbpNvSrYJrMdtyg2VQHxTdO+Ym5WIIbw33syc30a3mVoFqY2UwRHzSU7w+WAatmL2QuYmOtckUzMYJf9L9oF5UT453RLQroq5dbqJTVd+81W1QM5j8vgHDNH0KJrnNmtxE94Tb1ETek0xANHo/jGr3/1/i389+209uovu229Qc5jaoH6boU600Itnnx8xKdLj0YMbmB6yXlO0xA452P6gJnIOdYNRLt1jFKWtyi3REdf/V6OLxhaAs3LkYXr5mTY6i49Ot181Nyp6YaVXLy4JBwLFnDXFGOjW/cpst2YkOl5hMnXCt9ZIT6y5rAILbD0ZR46AvnnabLTlGOnIu2i/MTcp2GACNSFhaCjjeTJl3s/UqYY7bbMm2VBZOFlMpUHypYRHJjyKiKpYjBe8C55A7/x+2XiU8h/PKzc9Zk2ukI3y0/Ftzk8KlZmeaG6iA4JaCmWm9ylAUpUxOtqLDjPXfMBSegjMxKJTrPAO7L1dlceuLWRgzRWTpzjnSEeXNd0Q7EZjQuKNbVT+wL5gKgg9riiD78sc4gcyJr9odvC1mR0V1mdaC88X9kD9AY63wKuB73Qk4j8wKUAS5Rzqi3LJxhtsgHZehVSE4rlz6LMS2X0mCI0UU+sfsyT1Y462XnANx0hRZiFsHztORMOpiLN9H2w3nbKF1y6OESEcudauAD1VKOQ7ZgmPINY+McmoOLVlwpIjBhoP8KAzv7RTwKaaqhnmbYFFN1ZadxVyCsTDf/WIpaYY/z62CyZip13E/GCY4dqwDv6v1ZHwPrRFZuYsRHWY4rqlTliiOVwgdAMF9EkZdOpo1BPnA5G3rlk1p9zLnoPGluYJxGEC7uR8MHeUVCGEyo7EQHF9DNIKiRIcD/yoMhadiittgCGCS2hNGuV2HE+yncd6/a91mUFqko/D4hOxx6yVnMwykCe4Hg3O6WxXjcL6/435jKE50zlS3Ck6D8Ip4f1knOEbMO7Oh9SScA8HNdr9RFCk6nIz7YBQFKcjqaEpRN4VD3SpYgHPc2NVCpUY6otwFPgUz+UbuB73AsfkUjPL4nOK2kRQrOsyEP4I5y3oSlKtgSkd53zsD55YJaRtLyZGOcGc5SzApGIMZvdEzbifgmHAXwTjrJeenaI0vS1206DAj/g5G+Z7ofAwyvvwNfo9yn9xEnNPGV1YqPdJReNxdziVCKuIyc0m+4DY15+Nc/qP7jaZ40Tnnu1WwDaJdcdU+FeA4cEf4KOslhVWVmIiqFTRCdDhhd8B803oSLsGAqzLfR3bg93MHgeox/kVuW0FTIh1RL1iuYq9YznD1yYfMTcpcTJrfcr8VNEZ0OHGPwFxhPQnbYrZX5OHMHvzuVWBOtV5yVEUis6VJkY5wYDxvrgQuEdvD/TbB4/pec5PCFPohupJBtHsDRv1ubQaEp3iYkCX+WydaLzm3+TlrFU2LdBTebTBftZ6Ev0CbYW4rUAmOKIr+Z0/jROeoHz/vhgjQ+ApA+I3vg1GJ7hFMkP/sfqtopOhwMrkuU72caBoG5Rj3m8pBaKoclpe7bR1NjXQUHt/9zLOejKYPnIPdpuZ7fhvQShorOucktyrWR7Rr5L4v/K5tYTaxXnKUK4iyp9Giw2zKwhLql+ZTMUDXdb9JHO02NXfhvHAFUWtpeqSj8JhI9kHryVAmS6ocTCKfgVG9j2x9Yt/Gi845xq2KsRioe7nfBC50m5obMAk2JpVep7RCdDjRC2BUl0uLaUReFUwerGa6tvWS8yW3raYtkY7CY5VO5UvzdTBgT3S/SPD9mcNStY3pQZwD3mO3ntaIzuFl5ivmSmBCoxXcLwp87w/AKMsHRzkyp1Wiw0z7nzDK+7vl0JTJkpTw0u+j5ibnl2g3mhu0LdJReFzvxyL0Ko5C1NjC/SLA92UO0bHWk3ANjvs77ree1onOYWmnZ82VUMQLc4htJBrXP7ImgZJr3AaglaLDrMvtJCdYT8LOGMyfcz9L8P24P24W2g6L/qDjUhzvl9wPQFsjHYXH1OwzrSdBXVyjW6oQHMUWdf960VrROXw8/py5yVkP0eQ497MC3+t2GGWJq8WchcntdfcDp/XVaTAAx8OoNlOyvtoaGHh8epcF+L1cbFxF5uqv43erSyIXSdsjHS8zOeurFuAuj5bNukwIjoliqxDc/6FFrtB+aL3oHOX91xEY7Du7Xxv4DtwJwWzYVXA8JrMfuh/0IkQHMEB+DKN8qX2x2zq5Eu095kq5D8eTnxX0Q4ju9/Be50Vzk7MuIk1tNRHw2Uyht431pLyGdqy5QX+E6BzMzszBqNzRfAIG/47uVwY+czWYqu4rD8VxXOh+0A8hunfhl0VPWU8Ct81UzTS0Ki4rWXXnTveDAQjR/SGqDZyE7+4qK5aBz+LL732tJ+V+CK41VXe6JUTXCwwebkFRFrSYBDFU8WKaVHF/9R20Ju2alxOi6xv1guXpEN5I9yXg3x8No345/Rja3pioWBE3GCIhuj7AIJoPM916EtZCU+fMnOJWBask7YJj9bJ1g6ESousfZoh+xlwJhyEaSXYi4N/lapDtrSeBSXx3DcF1RuvXXg4EBi/vVe6ynoSfo22AwUubBHznrWHmWE/Ct9H2wHf+tXWD4RKRbgAwsLij+ibrSWAFoGSXmRDcn8JcZz0Jj6PtFYLrjhDd4PAy81VzJXwOYjnS/W5hGoo1zJVwEASnPBatIEQ3CBhk3IiprolwJYT3Cfc7Av8/K+yMs56EKTgWjHRBl4TohgAGGy/ZvmY9CTwPV5s7fCC4lWCUq12ewTHgypYgASG6ocMngr8xV0IPxNOpcLiLgXkrVVzgNkhAPL0cBhDFITDKBxVkP0SVW90fFHwn5c53sgDfZwP3gwREpBsGGHxMyKrOVHw9hLSh+wOC/24ZGOVaUdLqWnIKQnTD5wg05U6EpdFugKBY73sweNm3qrkS7sVEw3QWQUJCdMMEg/BNGApPCSPdDeb2DUTJLNLqEmC5pxEskhBdB0B4LDKpfo0wHsIaKIWEMlkuOQ6/80n3g4TEg5QugCjugVHWACD7YvAv8aAEn7s5DBdlq7gdn7mP+0FiItJ1BwtNqnNa3giRbez+YphKTwWT76ZaIRP0QYiuCxANXoBRV3jlgxUK7/3swPLqZG/6IibidzFJbiAiRNclfumnzie5Htri+m5c6sU6eAouxO9RrrwJQNzTJQDRh4l//gOtq/WTQ4Dv5D6Gpiht9TAEt6X7gZAQXSIgvB4Y5gsplU0hukfdD4TE5WUiMGDnwpSav/+kEFx1RKRLDCLezTD7Wa8IHoPgNnE/qICIdOmZgFbSvrPa0r23lYh0AhDtPgnDl9d83J8zCxHlPux+UBER6QRgIPNJJndy5w4vhYOKCdGJgPBugznbetlyi9ugQuLyUgwuNbk1RpLfsktmY2JQF/oP+iAinZ4D0XJ8sBJRriYi0lUAot36MA+jLbvoD/XzJKIcyyEHNRCRrgIwwBfAHGC9LKijTl7gRKSrEEQ81nA713q18SgmgU3dD2ogIl2FYLCfB7N4t0BdTHYb1EREuhpAxOP9HXOcVM1MCP9w94OaiEhXD1wqVnURDpb9Yl2GoGZCdDWAaMOEP8qUC31xOD73NfeDGgnR1QQEwJfmVRX9PwWfp6yjHgyDuKermQru76ZDcMe7H2RARLr6YWIjVaH8W0Nw+RGRLgMQ7XaHuRct5fmYC8GNdj/IiIh0GQBx3E+DxpyTKXgaraTd660iRJcJEN48GN7b3bHoD53zANoO+PcWWjfIjbi8zBBcbm4Nsz/ajmij+Lch8FM0PjS53LpBroToMgcCXBFmebS30Jh0lpehLObPHQt878ayXfMgttmwQRAEQRAEQRC0iREj/h9IRYTHFUDqFAAAAABJRU5ErkJggg==;" vertex="1" parent="1">
          <mxGeometry x="78.79" y="760" width="39.46" height="40" as="geometry" />
        </mxCell>
        <mxCell id="SpiEratejBjgO7TkOZJ3-1" value="" style="shape=image;verticalLabelPosition=bottom;labelBackgroundColor=default;verticalAlign=top;aspect=fixed;imageAspect=0;image=data:image/png,iVBORw0KGgoAAAANSUhEUgAAAN0AAADgCAYAAACHIGNpAAAAAXNSR0IArs4c6QAAAARnQU1BAACxjwv8YQUAAAAJcEhZcwAADsEAAA7BAbiRa+0AABFvSURBVHhe7Z0/kBzFFca12q1CmalygJyJCIhAkXHV/eEyEaHMZJYiUITIUAQXSUQ4AyKkSCgCIp+j9d2qLBxJRODIciZnCq/q9vb8vdse1Wq1p5vpee9198z3q9qanis47e7NN9/709N9hhBCCCGEEEIIIYQQQgghhBBCCOk6g3AkJBnj8fjN0Wh0PpyeGQwGT9fW1h6F085B0ZFk7O7uXj979uxHGL45/8lzPMbrznQ6vbW1tbU//1E3oOiIO+Jsw+HwOzjau+FHL+M3vK6ur6//PD8tn7PhSIgLcLfPEEo+rCk4QVzwgfx/89PyodMRFxq620lswfH+EcbFQtERc+BSV5C7fY3huflPonmCHO8t5HhPw3mRMLwkpkhYqCQ44TxC06/CuFjodMQEpXByFftwuz+U7HZ0OqKOhJMNiyVNOAcxvxfGRULREVXu37//jmI4uZKjo6NVfb1ioOiIGuJwEMQDDM0EJ0DUpr/fGoqOqKBYoew8FB1pjXKFsvNQdCQaiO36ZDL5FYK7iVM3wSGElalhxcKWAWmMYTugFtPp9PWtrS2ZEF0kdDrSCON2wKnA5R6VLDiBoiO1yaBYso9//2oYFwtFR2qRQ7FkNpttd+HhVuZ05KWkzt8W2FlfX38/jIuGTkdORNwtZf62QGcEJ9DpyAtk5G77ElJubm7eCuedgKIjzxFyt88xTN3o7twyDRUUHTkmI3cTOhVOLsOcjiTvvS0g4eSNLgtOoNP1nAx6bxWdDSeXodP1mBx6b4Gd6XR6sQ+CE+h0PQRie9kir950On9bBUXXIzIrlgi9E5xA0fWEjHK3il4KTqDoViCOMBqNzs9mswu4UC+EH0eD3/MYv+cxHCbJxhiZCa6TDe8m9F50iwJD6PXG0dHRZfzYMtdx3RgjfL6HGD4nOHxO2R0nnLnyBP/u94eHh7+kvBGlpLeiy6CY4FIi39vbe7CYw4nY8LmPjxnR2R16VtEr0cldHxfcZbz+gtMslnGTZrBVqBVuLMcrIjdxNvnvEolSXPA2jve4P13hZFYiX4XJxhiTyeQ/OETnpAlDUIH705UIxCbN32xc7SWob4whi75CNA8TC0cD7k9XAiK2hVWqchecoL4xBsLW489duOAE+RwPcBO5ifQgl3ZHKzolOrm7S+GgILEt8iEuqlfDuDVwuFcT5WUm4LMcP1CLm2kujf1oOiE6ydnE2SScwp291D+K9sYY+x1wuWU64XpFi06qkcHZJDQrzdleADcNtc8AVzgMw85RuusVKzrJ2+SLL9jZXgA3D7W79+FhZzVXUazrFSe6BXdzXcq7NOAGvw/DTlOi6xUjOhFbF91tEVxAamv046akVpQpgGPXk+tjfpo32YuuKpJAbO4bVXiDkFCtFzWbzTo/nWoZuT5KEF62outakeQ04HLaa/Q/CcdeUYLwshQdvrRcFsrxQn2Nfvw+tVC1NHIXXnaikwY3vrScHrY0R54v057gO51O5fepTSsrjZyFl5XoxOEQZpnvWZ0ZOxZPGYRJwt/Pz/pJrsLLRnQiuJ45nMcaj3fCsbfkKLwsRNdDwUm+tWW9ZIFxiDlFVPLPMM6a3ISXfHJeYYITsdybD5sDZ3uK1w5CP7cix2Qyke/24/mZOrch7G38/S7hdT78TCqxm4PBQHMeqRYmzy02JanoMhfcM4GlEIsW4/FYHhv6FUOTZrmEyKscG/+uLOr0TIyZCFH9ucUYkokuR8FJrwyvO6UK7CSM3e5E4S2zIMQPcHpp/lN3bsPtkm6hnER0GQpOBNbZdfSD28nSDWbfd13hVch7Gg6HdxO5X9Iw0110GQnuN1wo33bN1U4CbvcdDlfmZzY0FZ4g7ocbglwPns6XNMx0FV0ugsPd9dbBwcE2vvTezE8MbmeW2y0Q5SLWIfAKkoWZbqLDH33loqeeSM4GwV3rahh5Gk4XdrSLeAsvxpk1cOvTycYVOKQS3HEjemNjozfbMa1Cyvs4WIdU0Yss4W9zDX8ncR+XsA9RV5L+nYvo5IPBYVJNXpZ8zbwRXQJwH3nywGNq2JXYixl/J+n9vYWoxKXQIcKDw7oWc8zDy4R5XKcrkrE45natwzfHcNO1sGLqdJLHJRBcNafxLQruRRzdrnX4JuEmDt/Mz0yJDoljMBVdgjyOoWQNQm7n8pBrQcKTdUefTWWzxEx0znmc7FktzkZ3q4G4HXImuZhdUBKetTufg9vJciDmmOR0znlcb3f0bEuC3lj0TJCQi0rLydKN9nHzfj2E4GaoO51zHkfBtSA4iEfoVnEX10dUAcfJnV3cTl10jnkcBaeAs/BaFSw2NjZ+xMH6vZrndqqiQ1h53SmPo+AUcRbelTZ9MYf3au52qqJDWPlJGFpCwRkQLmavNVWiw0zB4b2aup2a6MTlcIje9bMOMneSgrNjOp1+ioNHK6F1X8z4vZq6nZroHFxOfW1I8jzOrYRWYabDezVzOxXRebjczGBtSPIiTsWKilZhZnivVmGmmdupiM7B5UzWhiSrcShWVGiFmVZzJlu58Um0Fp21yzGPS4Oj8FqFcaGRbVlUaeXGq2gtOmOXYx6XECfhtQ7j4HaWzwmqT4ZuJTprl2Melx4n4bUuquBQTAuhleiMXY55XCYE4Vn38FqFccZup1pUiRadpcsxj8sPhx5eqzCuJLeLFp2lyzGPyw+nHl70Mg9CcLvsG+ZRopM95HAwcznmcXli3Bc7Bjfc6GfvSmmYR4luNpuZbUdMl8sbhzDzWHixhZUSGuZRosPdhC7XU5zCTCG6sBJuDFZFldZuFyU63Ik+CkNV6HJl4BFmgujCinFRpbXbNRadVT5HlysLjzATiKvEup1lC6GV2zUW3eHhofpcNIEuVxZOYea54XAYdb3l7HaNRQdxqLcK6HJl4hFm4tqILto5uF2UCzcSnVVoORgMfgpDUhjWYSZu8tHr7Vi7XawLNxKdVasAd7PO7w/XVRyrmVFYul2sCzcSHf4RtUmfiyBP5AKxBeNUzYzC0u3gwm+HYSMaiQ52+loYqgEhP8IX8zickkKxCjM1oiBDt7sck9c1dboPw1CTL8ORFIxVmKkRBRm6XVReV1t0VkUUhpbdIYSZas/eaUZBVm6H99g4r6stOosiiuaXSvJA8aFX1VUDrNwuJq+rLToIRL2IwlZBN9EQnsWqAfid/wpDTRrndbVFB0VHNQJJP2kpPJNVA3ANW7SmGud1tUUHV3olDNWAe7I/12FEeHAXCRHr5lLVLromqwYgrxPnTJ7XNQkv1SuXLKJ0HzhW3Y37zXfRRV63j4NFXtdo1kytTSGlcokvTTbkUwO/79HGxsbFcEp6AHKfC7hAL+H1rD4AZ3uK1w4E4RL17M43LJXt3DTZhjt/EcanUkt0e3t7HyK8vBtOtWj0RgnRYDKZyFZuD+ZnajS6lmuFl3Alk+lfhHhjldc1oZboYMesXJJOEPI6aeJr8kY41qJ2IUUbuCcrlyQV/w1HLS6FYy2SiY6VS9IhXh2Px7XbBklEJ5VLTv8iqZjNZhJiqjIcDmVuci2SiI7Tv0hi1B9BwjWdt9MRkpKzNtPBakPRkd4R2gbqIWZdKDrSO4zaBrWh6Ehf+Xc4ukPREeIMRUeIMxQdIc5QdKSXWDyUXReKjvSSI5vlJGtB0ZHeYbl9dx0oOtI7Zobbd9chlegaPX9EiCapH8pOJbqoNeAJ0SD1Q9mpRBe9txchOdLkoexkOd1gMPggDAlxBdfe78JQjSYPZdcSncVDfyB6+1hC2gBXuhyGKjR9KLuu06k/9AcYYhJ3LNoFTR/KriU6q4f+GGISbxAGJr/R1xKd4VqBEmJyTU3iBgzkkzBUA+lXo0iwlujCQ38mO1mORqObYUyIKVYzUZAmNVrZrm5OJ9wJR21YUCEuGM1E2T84OGiUftUWnWGIKQWVRot1EhKDxUyUULlsVN2vLTrDEFMKKl/R7Yg1uLm/FoZq4Nr9exjWpkl4KViFmOeR230VxoSYAFdSf5wHv7NxZb+R6Ix3PGElk5hhVUSJ2R6gkegsQ0zASiYxw6I/13QmSkXT8FLcbhsHuh0pCov+XNOZKBWNRQdlSyOQbkeKIfWT4ss0Fp0Q3M5iErRAtyOqWD0pHlNEEaJER7cjJQFxmNzEY/dYjBKdALe7gYNVbndld3f3szAmpBUW/bnYIooQLTpjt5PE9yaFRzSAQCyW2/syHBsTLTrBuJJ5LLzJZMJn7kg0OfXnKlqJztrtAnc5RYzEklN/rqKV6ARrtwOcIkaiyak/V9FadE5ux8IKaQyumes4ZNOfq2gtOiG4nYjPDMnv9vb2+AgQqY2Fywmx/bkKFdGJ2+GNXAunZsDW/0bHI3WwnIXSpogiqIhO2NjYkD2crcNMthJILSwKKELbIoqgJjoBYeanOJiGmQKFR07DKrQE0f25ClXRhTBThGcOhUdOIlwXWYaWwiAcVZlMJndxcNl0DyJ/H6HtTjglPWc8Hr85Go0eYnhu/hM9JLTEtXYxnEaj6nQVXmGmwOIKWWQ4HH6Hg7rgBERXV8OwFSai86pmVkioyXYCwc33Om7C74ZTVcTl1tbWZLmS1piITgjVzG/mZ/bQ8Yhh8URoXUCpMBOdsL6+Lm5n3kaooOP1F3E5HMxmn2gUUCpMRSd45ncCHa+fWLqchJZte3OLmIvOO78TxPHu379/czwemyTUJC/CTdbM5XA9qRRQKkxaBquYTCZf4/Dx/MwNmSN3FWGuWmhA8gKCuwJRyLVlcoPVahMsYu50FSG/cyusBGRBmgcMN7uJteDAvrbLCW5OV+HZOF8Eud6tg4ODbYS7VquYEUccBCeriN3Y3Ny8FU7VcHO6iul0KncOaSe4gjDhM5mpANGb9HGIHx6Ck7DSQnCCu9NVJMrxjqHrlYuH4ARcIxe1muHLJBOdkFJ4gEWWwpDcHIL7HENTwVkUTxZJKjohsfDoegUgk5hlTiX+Vi6pgaXLCclFJ6Qqriwgjc87yDdvUXx54RVOVli7nOBeSFlFquLKAtJY/Xw0Gv2KG8AXbKrngbfgBPx76i2CZbJwuooMHK/i2PkQZvxoGWaQk0khOA+XE7ISHRxG1riUBxBz2rWHoaczKQQH9nGT/ZPHTTYr0Ql7e3uX8eF/CKc5QfdzIJHgzBrhq8hOdELqimYNnkB8t3G8RwHqALFdh9g+wtBkL7lT2FlfX38/jM3JUnRCuOPJcuq572NAB2xIWMfkPNzlwnA4fAO51GX8OIXYBFfBCdmKTpAcD3+Uu7igS9m5R54blCrs/47PAC6sx7h5PMZneNpHUWYmsGXcBSdkLbqKAsLNuoj4fjw8PPyli0JcEtjbEJg8xZ+LwJZJIjihCNEJBYWbTSlSiJk72GkkE5xQjOiEAsPNWLIUoggN7+cSXqkKHhokFZxQlOgqOux6L+OFfNELiP6VwpzsJJILTihSdEKPXI/okIXghGJFV9GhIguxIxvBCVlMeG4DvsxrSOZlkqrlFsykTPZxbdzISXBC8U5XwXCTLJHtQ8qdEV0FxCclbHngkeLrL1mFk8t0TnQVIr7RaCT5HpdZ7xdZC07orOgqetpe6CvZC07ovOgE5nu9oAjBCb0QXQXzvW6Cv+df19bWXLbd1qBXoqug+DpFMQ5X0UvRVYj4ZC4hxPdnCrA4pAe37fW0tya9Ft0idL+iKHqhYIpuicr98JLFkf6IF1sOefAbnO1bvHa2trZEdMVC0Z0CRMjKZ1o6t/w9RVcTOqALIrB7MoCjPe2Cq62ComvBZDJ5DxfGOxDis8b70dHRJl3x5eA7eoTv6Kdw2mmBrYKiM2DJFSnEeT52B9/Hz9Pp9Oe+L9pL0TnRIyH2IkRsA0WXkGUhBkrMFztTWfSAosuUVflibtDJCCGEEEIIIYQQQgghhBBCCCGEEEIIIYQQQgghhBBCCCGEEEIIIYQQQgghhBBCCCGEEEIIIYT0lDNn/g9s6xFrolsW2wAAAABJRU5ErkJggg==;" vertex="1" parent="1">
          <mxGeometry x="79.46" y="400" width="39.46" height="40" as="geometry" />
        </mxCell>
        <mxCell id="SpiEratejBjgO7TkOZJ3-2" value="Cycle - This node must be part of a cycle.&amp;nbsp;" style="text;html=1;align=left;verticalAlign=middle;whiteSpace=wrap;rounded=0;" vertex="1" parent="1">
          <mxGeometry x="130" y="405" width="310" height="30" as="geometry" />
        </mxCell>
        <mxCell id="SpiEratejBjgO7TkOZJ3-4" value="DistanceEqual - All nodes with condition of same class must have same distance to each other (minimal)&amp;nbsp;" style="text;html=1;align=left;verticalAlign=middle;whiteSpace=wrap;rounded=0;" vertex="1" parent="1">
          <mxGeometry x="130.67" y="560" width="310" height="30" as="geometry" />
        </mxCell>
        <mxCell id="SpiEratejBjgO7TkOZJ3-5" value="" style="shape=image;verticalLabelPosition=bottom;labelBackgroundColor=default;verticalAlign=top;aspect=fixed;imageAspect=0;image=data:image/png,iVBORw0KGgoAAAANSUhEUgAAAN0AAADgCAYAAACHIGNpAAAAAXNSR0IArs4c6QAAAARnQU1BAACxjwv8YQUAAAAJcEhZcwAADsEAAA7BAbiRa+0AAA2FSURBVHhe7d0/bBvnHcZxi2TQdIq2OkAHZ3O2eLMBiQo3Z2o71Zkao0PjKfGWTIanZEsy2R0Kp1Paqe4UbbQlAdaWbPFWDR3UTZmqIhTZ5ye+dGiZEnl377+7+36AA99jAtsg77nf+753vPcSAAAAAAAAAAAAAAAAAAAAAAAAAAAAAAAAAAAAAAAAAAAAAAAAAAAAAAAAAAAAAAAAEMyae22V4XB4tdPp3NS27t46NR6PD7VtDwaDA/cW4F2rQre7u3t9Mpk8Wltbu+reWkjBe6LtfYXv0L0FeNOK0K0atjOOFLy7W1tbX7t9wIuOe22sp0+ffqKXYcHAmXV1Px/t7Ow8cPuAF42udKpw3+rl5nSvPFXJ3/X7/cduF6iksaHzFTjncDQaXWOMBx8a17208Zu6hD+o6Stw5nK3273n2kAljal0JSdLijhStXtT1e7Y7QOlNKLSVZgsKWK91+u949pAabUPnY3dOp3OZ2q+Pn0nnPF4HDLUaIlah25vb+8Lvfgcuy0TPNhovlqGbjZZojHcx+6tKNR9PXJNoLTahS7S+G0hdWOfuyZQWq1mLz1feyvqYHNz8y3XBkqrTaVLHDibRPnKNYFKsq90Ea6/LaXA7W9tbd1wu0AlWVe6lOO3OccK3W3XBirLttKl7k46Frg7/LwHPmUZOgKHJssudDkEzsZw1qUcDAZcIoB3WYUug8BZdbuv6va52we8yyZ0mQSO7iSCyyJ0BA5tkjx0qQPH+A2xJQ1d4sBZdftU1e1Ltw9EkeziuLvwnTJw1p0kcIguSaXb29t7ZzKZPFMz+u/T6E4iteihGw6H691u91mCW7u4HIAsRA2dAvd6p9MZarvu3oqC6oacRB3T9Xq9f0QO3Gyy5AaBQy6ihS7B80xmkyV0J5GVKN3LBJcGZoHjYjeyEzx0sQPH+A25Cxq6yIFjdhK1ECx0CQJHdxK1ECR0BA44n/fQETjgYl5Dl2DSxK7BZTWGsxsAer3edf3brnc6HR7D7oE+y0Nt24PB4MC9VWveQmc3MOsgs4U8Yvm3tr9Mmz9/MWraXS83ta1P/0s8+vt/o7+XlX0C0ef7RJ/vU7f7itkxkHs4vYQuxQ3M+vtsbQG3B/zsonDmEEwvR62q3Hec4VEni4IZK5CVQ6cxzBWNYf7ldoHas0Dq5e+hAlg5dDs7O7fUzfvG7QZFlxKxWQC1va/wHbq3Kqt8w3PM38UROMSmLui76sn9oCHUB+6tyrJey2CeVTkgkXWF75F6dQ/cfiW1CR1VDqnpGPxQwfut2y2tcujU3/2lawZBhUNOFLwHw+HwststxceYruuaXs3CRoVDZi53u917rl2Kj9CNXNMrwoZc6di8Zbf7ud3CfIzpjt0r0BbrvV6v9M0gPsZ0hA6to+O+9KUyH91LHouANkrXvTw5ObFbZk6rHTONaAsVmyPXLKxy6AaDgf3lf7P2bPKjyCQIQUUddTqd0j08HxMpl0aj0ad6eTG2WxYkCyWXBFBjBxsbG9+7dmFeQuduBj2tdstY2GwjbKir8Xj8lWuW4iV0RtXurl6W3olN2FBnCtz+VsUl1rwmYHd39129DKd7mFFlf64xwLZef3RvYQGdkN/QZ2T3Nl6ZvpOdYxWXa+rZVZqx9152FLxHevH2Mwhf3IH/WK//c28FpTPigf6+A31Jh1W/pLZxj/9Y12d4RZ/hKwFMFE5vT57zHrrhcGhX639Qs9JNoUXpS3ioL+M/bvcUB36zXRROn8HUn+/1Uf1BBliJuplH+mDu8gxMzFsUzFUDqf/nubY/Vx3DnRVsViPBI/lO6cP1/vN6NNOiQKodvHcULHQm4fiOqodsebtksMiqlxEC8PrzesCnoJXOpL6MQHcTuQla6czm5qYd9HabWBKqeN6f5gRUEbzSzaSaWJmnQfPDfr9/x+0CSUQLnckheHQ30xoOh1fV83hxDXdtbe2oys3DdRQ1dCaH4Amzm5Hpe/9Y3/uf1Fz0i2t7dPlfR6PR5zoZNv5JBNFDZzIJHlUvAqts3W73kSradffWRVoRviShM7kET6h6geg7/kDfsV22KfpoA7sofXtzc3N/utssyUJnMgoekyyeubHbd2qWfpaITobZrbTrQ9LQmZyCR3fTn52dnWcrdikvpJPhezoZ2gq7jRH8Ot0y7kx2Qx9u8l8BKPxc0/NAn9/HPgJn9Od8aydmt9sIyUNnrO9+cnJyTR9wDl0JbiGrSJ/fR67phfWE9vb2PqvyVOWcJO9enpVZd9N+tPjQ7WIF7s59G8uF0IgJliwq3bzMupsPqHjF6EQVcpFQ+7Of1b27mV3oTE7dTf0bvKxJ1hY6WQZ/YkDdu5tZhs7YxdGNjQ27UTp51VPwHugLjvr4iRqLEgQdE5/YJYnd3V0vEzYxZRu6mUyqXuU1yVok5uWW0+5m3apedhMpF0k8yXI0Go3ebMO9gVW4yvNsuhdVbSZZsq908xJPslRak6wtdGKyXwyUXlyjgtpMstQqdCZldzPwzFwjuJ7ASo/YD6EOkyy1C51JOMnCZMoKVO3u6yXZrXS5T7LUMnQzCaoe47kV2L2rOvBT3zye7SRLrUNnZlVPXb/gz2FRuLkRekX9fv+xXpLfzZNj1at96GZiTLJovJBiAqe21BO5Y7fSud2UsppkqdUlg1VYV+K11167Z2c495YvBzqI3nJtFKAqY7fSfTjdS8uGIj/99NP9lJd+GlPpZkJ1N/XnVVoIsM1cxbutZopLCS/JobvZuEo3b2dn56bObN+63dJ0wNhCgDfcLkqyW+m63e43+k7sAcTJ2YnZDUuialylm2e/OPZQ8WxdMjtLoyKb1dR3MlAzi59L2TW9FOO8RofOVJxgOV0IUAcLEyge5dTdTBG8Rncv59kEi/ry9uH+QdvShQJ1UHhdCBCvyqm7qe86WlezNaGbWRY+q4javC8EiPOp0tij+r5Qc336Thqxgte60M1zjxZ48UWPWCY5mVyqXozgtTp0yE8O1/RCB6/xEymolxwmWUJPrlDpkKVMupsDnQSeuLY3hA5ZS9zdPNQ4/22N871WXbqXyFri7ublXq9ns6peRal06iqcLgSoD++K+sun0/RqH6h9oO5D6xYFRHEpu5u+J1aChk6D0YsWApxn4Xs8mUx+tB0CifMkvKbnbXwXJHRW2XRWWnUhwGVeCuQMwWy2Rb2jOb/SFnuc52185z107kxkg9+YP5FfGExDOMtbcuAHoe/pF/oe7YnaOT4E6mtVu8o3v3sNnfuSKi0EGNi54cTP9Bm9oc/oppo8/exVlbuZXkPnayFAIGOVu5neLhnYpAmBQ52purvWhSpfRvAWOvX5vS4ECMRiYVPBON1WdMsuYbh2YV5CZ3fr6yXKQBvwZVbZLGzLqtyZQNrPw0qvqeEldGMeN44aKlDZXoRyLpxW7UpdK/QSOv1Dkv74EIhlLqivd7vdUnfH+BrT8bhxtI6KTakenpfQdXjyMVpIx32p69FeQjdKtyYZkFK60A0Sr0kGXGTZzGRZ+nN7rlmIrzFd8jXJgLNmYSsyS1mE/vwT1yzEW+hU7XJYkwx4IVTYZjSm+69rFuItdCaXNcnQbqG6k754DZ1J/PN6IHiFq8p76MzW1tbXdie2zjjen6QEXCRmldPfVepSWfBTwnA4tB9A2pJVv9eW/Jn1gC8qLG8NBoMDt7uyqHV4FkBtL92hrTPGFoFEneiY/b7f719zu4Vk0/k9L5AzBBPnsS5l5HHcsf6+G2Uf/5H3iPOMZcE0hDMsO8Pr8/2n241mPB4fadtW83jBMfBHbb+eNsPTv6PSI/lqFbpVrRJOrE4HmR3o+xrD7Lu7j7Jhaw7o31b6t20lbG9ubr7n2qU0MnRohwRPnqscOEPoUEt1DZwhdKidOgfOBLk4DoTixnC1DZyh0qEWhn4f1b8q74EzhA7ZS9CdNEECZ+heImspAqdq+mWowBkqHbLlxm/31GxEhZshdMhOovGb3W2zf3JyMgh9AwDdS2TFqput/BQ7cPJcgXsvxh03VDpkIVV1cyrdwFwUlQ7J2WRJoup2ajwe34+5YCiVDkkpcLYuvd2wHHOyZF7wiZOzCB2SSNydnIkeOEPoEF2Ka28LJAmcIXSIqu2BM0ykIBq7HND2wBkqHYLLZPxmkgfOEDoElUl30mQROEPoEAyBW4wxHYKwLmUGgTu2J3flFDhD6BCEjeH0kjJw9sjzQZVH5YVC9xLeqVtpd5l84XZTyKo7eRaVDt4pcB+5ZgpZB84QOni1t7f3jl6uTPeiynL8tgihg1c68K+6ZkzZjt8WIXTwajKZrLtmFGvT55m8rW3fvZU9QgffYq51sL2xsXHXtWuD0MGrTqdTanXSgmozfluE0MGr0Whkv8AOud58rcZvi3CdDt7t7u7anSgfTve8sbDdrtPY7TyEDt4Nh8PL9swTNX2tD5j9tbci6F7Cu8FgcDiZTO643aoaFThD6BBEv99/rJeH071Saj1ZchG6lwjK/bzH7sMscv2uMeO3RQgdgrMxXrfb/WZtbe1d99Z5Gh22GUKHaBS+K6p6N7W9NMGibuSRtm2NBWNc4wMAAAAAAAAAAAAAAAAAAAAAAAAAAAAAAAAAAAAAAAAa6NKl/wN59/Z/871w/QAAAABJRU5ErkJggg==;" vertex="1" parent="1">
          <mxGeometry x="78.79" y="560" width="39.46" height="40" as="geometry" />
        </mxCell>
        <mxCell id="SpiEratejBjgO7TkOZJ3-6" value="Internal - This node must be internal to a graph, aka not a leaf.&amp;nbsp;" style="text;html=1;align=left;verticalAlign=middle;whiteSpace=wrap;rounded=0;" vertex="1" parent="1">
          <mxGeometry x="128.12" y="440" width="310" height="30" as="geometry" />
        </mxCell>
        <mxCell id="SpiEratejBjgO7TkOZJ3-7" value="" style="shape=image;verticalLabelPosition=bottom;labelBackgroundColor=default;verticalAlign=top;aspect=fixed;imageAspect=0;image=data:image/png,iVBORw0KGgoAAAANSUhEUgAAAN0AAADgCAYAAACHIGNpAAAAAXNSR0IArs4c6QAAAARnQU1BAACxjwv8YQUAAAAJcEhZcwAADsEAAA7BAbiRa+0AAA67SURBVHhe7d0/jBTXHQdw9uaQr4nkLucmwRWkClQx0v3xdiClwFVIB5VNFVwFpEjWVb5URmnsVA4VRilCuus290fCqSAVpIlJZcqz0pzE7my+v923eFnu9mZm3+/Ne7/3/UirmVngOI757u+9N2/enCEiIiIiIiIiIiIiIiIiIiIiIiIiIiIiIiKiNnTcloig1+tdWF5eXi3L8pwcLy0tveh0Oodra2tPR7/BA4aOCHZ3d28jYB9j98L4nbe8wOt+v9/f7na7R+O3mmHoKGsVwjbrOV4319fXvx0f1sfQUZakGVkUxddoOn7g3qoFzc+7m5ub2+6wFoaOsoPqdgPV7UvsrozfaayLivcPt18ZQ0dZ8Rg48RJ9vF+gj3fojitZclsi8zwHTqwuLy9/4fYrY6WjLCgEbuII1e69OtWOlY7MQ+DuKAVOrBRF8aHbr4ShI7NkhHJvb+8xAvc5DjUCNzIcDqtebhhh6MgkaU6iv/Wk6SWBOhDqWoFm6MgcqXCKzcmFMXRkjlz0xiZY4NC8lFkqlTF0ZIoMmoRoUk4bDAa1poTxkgGZoXhZ4ESock83NjYuucNKWOnIhIODg4st9OOO8HfedPuVMXSUPKlwqDiPsRt04KQsy60m99mxeUlJkwrXRuBgZ319/arbr4WVjpLVVoWDxoETDB0lqY1BEziS++gWCZxg85KS49YxeYLdkIFb+I7xCYaOkiPzKQNfi1uoOTmLzUtKSgsXv70GTrDSUTJa6Md5D5xg6CgJVgIn2Lyk6IUOHJqv97QCJ1jpKGqWKtwEQ0fRCh24JpOXm2DzkqKEwMnKyyErXKPJy00wdBQdFzhZ2i5U4BpPXm6CzUuKSgt9OKHej5vGSkfRaCNw2iOVx2GloyjkUOEmWOmodS0EzsvdAk2x0kVm+kmgOBFHTwM9Dn79BX7d+1NCQ2sjcHhdReBqP23HF4auRdMBK4ri/HA4vIa3a60W7Ej4HuHP/+COkwhlG01KqXBNnyvnC0MX0FTIZBGdOk//XNQolIPB4F+xBDGnPtwshi4AnGB1H7EbwugZ2hLG0AHMOXCCoVMUadiOEyyAuQdOMHQKEgrbcV4ifH/B9qHvADJwYwydR9JnW+Th8REaVcB+v7/d7XZl1K8xBu5HDJ0nLZ1UoSwUPgbuTQydB645qfrgwUjIili3cDJXvsbFwL2NoVuAC1uqfbdFVKp8bQQOTft76It+6g6jxNA1YLDv1tSJ4WtpufOoK9wEQ1dTS82l2L2xECublPMxdDUwcPOh8m+XZfkfbP+EQwbuBAxdRQxcNWhSDhG6kOdVUoETDF0Fbs5k6LXzk4KsSaVzR8EkFzjB++kqCP3g+BQxcNUxdKc4ODj4HCdU7qOUc0mVCyzZwAk2L+dAP06uw8mqVBSPpAMnGLoTcOAkSskHTjB0x2DgomQicIJ9uhkRB26hWf5aAvXnzAROsNJNiShwMsPjoeyUZXmI1063233e6/VksaIreK3Kr03Dyb/Z6XQ+dIeWmAqcYOiclgM3Ctl0wMZv1zMbytSDiO8/yAM9QmPooMXAvTFnUcMkiAjfbxIL4BG+38ttL6CkIfvQtTjbZKff73/U5KbQpmYq4a/wujL6hQUhHN77dqj4rS+VpyX70O3t7T3GSRPy4resLrwVwwmFEK4WRfEgwgporh83LevQoVkZ+uK3enOyCamA7v7AtsMXzQeSpqxDt7+//x02Jy5d7pHc7Pnb2MI2S8KHprb0bRs1OxdsZkb5gaQh29AFrHLJDQiEbnYiqP8bDAY/Q//20L1lWrYXxxG437ldVdJcSm0EDif/y42NjS6+d3kcsFoQpDK67U9QYbOZ45plpUOzUgZOZP0ObckPCEjVQyCeYffd8Tv1SHNzEq6JSRN05v2jfr//vgTeHZuVZaXDf7r6pypOqOBP+NTgQvDN+Ki+2cAJee+Y91cQblnG0LzsQid9OfyHa18i2Il9Gbg6UIG2sAlRga5LZXX7ZmUXugB9OXPXmKTaoXVwyx1qyqLaZdWnc2sxyuwTLaYv6qIvLJcTPhkfqZG+3XuWRzKzqnSDwUBzCNx04AT+fVLtvhofqVkpiiKlOaK1ZRU6raYlqudT64GbCBE8/DxNL1OfTehkAAUbrdknf3TbLGgHDx+Osd1A7FU2odMcQEGz1fzUpVnod8nobBYzSHzLInQygIKNSpWTpiU6/TK3Miv4N8stSY2v3+Usi9ApDqAcoYLKVKkslWX5T7dLNWQROq2mZYrzKn3Cz7XRshK5Mx86zaYlQpd18wr9OvnA0ejXnXdbk8yHTqtpmWtfbprr1z0aH3l1rdfrNZpgnQLzodNqWubcl5uGav9vt+uT6QvkpkOn1bSUKpdzX26GykRoyxfITYcOn8Ja/3FZXQyfR2swBV/3l27XHNOhw6elym0iOV4MP4niYIrZfp3p0KFf8FO36w0HUN6keJHcbL/OeqW77nZ9YtNyhtZFcqv9OrOh0xpEYdPybYr9OpMTn82GTmMQhU3L4yn260wyGzqNQZROp/N3t0tTFPt1JpkNHZomZmc0xAjVThYvYrWrwPRAim+onpzgewJUO7lIrjElzByGrgYOopzqv25LczB0FXEQhXxh6CriIAr5wtARBcbQEQXG0BEFxtARBcbQVWd63Q4Kh6GrzvS6HRQOQ1ed+QdbUBgMXQ1W7+/ypdPpvON2aQ6zoSvLUma+e2X1/i5f8KGkcdOwOZYrncYqVRxMOYHmor7WmA2d0t3MMphi/pnYTSiuvGaO2dAp3c2cxTOxm9C4adgqs6FzdzNr3N91ndXubRorr1lluU8nTR6VJb9Z7d6mMYiCr2nypmHToQOVJb+B1W4KV16rx3TotJaGA1a7KRpPRkKVM3vTsOnQKS8NJ9Uu+2lh+BlcwIfb792hN5ZvGjYdOuWl4VbOnj3r/WRLye7u7h1U/CfYZVO7But9OtWl4dAEurO/v5/dfEypbnt7e49R4aSJrTJLx+ogijAfOrc0nOZCqA9yamZOqhuafx+4t1RYXnnNfOiE8kKoqzgJv3D7ZoWobhOWB1FEFqHzUe1wIri9Y92QCuD2zQlV3aaYfjJSx23Nwye1VKRn2K3VFJSw4dP9tNCNlGV5d3Nzc9sdJk0qW1EUcu3ts4BhG0HL5H3LlS6b0In9/f0vsflkfDSfhAwnmzuaT37fJJTY33716tWWGzlNDqrabXzIfIzdViYw4+f4dGNj45I7NCmL5uWU+257qqqBE5PAyRavUVMMAQ9aHRYlYcP3/AyBk/5pa3cM4O+/6XbNyqrSockkM0m+x+6JTUwJTp3AzRNzc1Oaj/hZrOJ7vNhmZZuWQ5UTWYVO1Gli+hBbc7Pt5uM8+FldWltbk1lEpmUXOjegcuwsCp9VbsZzfO27ONlftHFSSVXD330l1rCJXKqcyC50Ym9v7xrC9Td3GJqMyt3v9/vb2tUv5qo24wj/H5dzqHIiy9CJ2WamYpU7iUxzeog+1QupgPi7Dxc56ab6aOeKojiPf881vB172EYsXWqpItvQCQTvATYqK1g1DLGE7xH+7A/u+FT4/e+kFLBj7Kyvr191+1nIOnST/h1O2tXAVY7GsgucyO063RtkehiaNn9l4II7kiZljoETuVc66QfJSCYXkQ1H+rI3Ebhsn9+edaUriuJrbBi4QNCi2O73+5dyDpzIttLJzPml8W0qpAx95qcI3K3cwzaRZegQuBsInFwyYJXTJX23rZwuB1SRXegYuGCy77udJKvQceAkCFa3U2Q1kBJi4EQuimdMqluXgZsvm0rHgRNVrG41ZBE69uNUse9Wk/nQMXDeTSZqH+K10+125ZhqMB26kIGTvpzx6WSsaJ6YPUtY4bxh2DwzGbrAFW6ACle4QwvYfFRmLnSBr8UdIdy/HgwGf0DwUn+mAStaIOZCJ0t/IwBBlr9DJXh9xzPCfg4BvFIUxc9R/eSO9BSeb/Ac/4Y/s6KFZSp0aFaGvBZ34g2YcnMswvcg4urHqtYiM6GTR/CiwjzGbohmZaU7nifVD6/XK4/he9wMHMZRH0122E+Lg4nQBR44WXipuOPC6BsDFq/kQxd64ARVKpul4khH8hOeQ979jcqxxcDRopIOnQychBqphB1O6CUfkm1eBp5xkuVScaQjydAxcJSy5ELHwFHqkgpd4JFKBo5UJDWQEmqkUq7FMXCkJZnQBRyplEnM5h/BS+1JInQSOAThM3eoitfiSFvUfTrpw0mTMuS1ODYrSVu0oQs8SikYOAoiyualVLiQgZOBk36//5E7JFIVZehCzqeE0cBJV/n530QT0YUu4CjlCAdOKLSo+nRTo5Tsx5FZUYSuhVFKwcBRK1oPXQujlIKBo9a0GjoGjnLUWujaCJyP9U2IFtXK6GVLFY5zKikKwUMnS+W1EDheGqBoBG1etlThBPtxFI1goWPgiMaChI6BI/qReugYOKI3qYYu8Jomr3U6nXtra2ufukOiqKiNXrqpXQ+wG7zCMXAUM5XQSZNSKhwqzkX3VihsUlL0vDcv2Ycjms9r6Bg4otN5Cx0DR1SNlz5dS4E7KsvyLgNHqVm40rUUOD4zm5K1UOhaChybk5S0xs3L0MvkieFw+C2XyqPUNQ5d4GXyRjegDgaDq1wqj1LXKHRoVt4OvYgQAncZgTt0x0TJatSn29/f/w6bc+MjXVxigaypXenkzm9sggQOuMQCmVM7dGVZXnC76rjEAllUO3Ro7q26XW07m5ub226fyIwmAykhRix5LY7MahK6l26rgVO7yLzaoVtaWpIpWBrk63bZpCTral8y6PV6K8vLy99j993xO16wOUnZqF3p3IyQb8ZHXjBwlJUmfboz/X5/CxsffTsGjrLTKHSodi+Hw+Etd9gUA0dZahQ6sbGx8Qibr8ZHtTFwlK3GoRMIzq2yLGWaVtWJyLwkQNnzskZKr9dblTUuO53Oh+6t4/BubyLwEroJhO/c0tLSFbxeTxVDZTvEawf9QK3re0REREREREREREREREREREREREREREREtLgzZ/4PmKfTsQRed6IAAAAASUVORK5CYII=;" vertex="1" parent="1">
          <mxGeometry x="78.79" y="440" width="39.46" height="40" as="geometry" />
        </mxCell>
        <mxCell id="SpiEratejBjgO7TkOZJ3-8" value="" style="rounded=0;whiteSpace=wrap;html=1;fillColor=none;" vertex="1" parent="1">
          <mxGeometry x="480" y="380" width="40" height="40" as="geometry" />
        </mxCell>
        <mxCell id="SpiEratejBjgO7TkOZJ3-9" value="" style="rounded=0;whiteSpace=wrap;html=1;fillColor=none;strokeColor=default;dashed=1;" vertex="1" parent="1">
          <mxGeometry x="480" y="320" width="40" height="40" as="geometry" />
        </mxCell>
        <mxCell id="SpiEratejBjgO7TkOZJ3-10" value="Unbounded Set - Rules apply within the set, conditions are not bounded by the set.&amp;nbsp;" style="text;html=1;align=left;verticalAlign=middle;whiteSpace=wrap;rounded=0;" vertex="1" parent="1">
          <mxGeometry x="530" y="325" width="310" height="30" as="geometry" />
        </mxCell>
        <mxCell id="SpiEratejBjgO7TkOZJ3-11" value="Bounded Set - Rules apply within the set, conditions only apply within the set.&amp;nbsp;&amp;nbsp;" style="text;html=1;align=left;verticalAlign=middle;whiteSpace=wrap;rounded=0;" vertex="1" parent="1">
          <mxGeometry x="530" y="385" width="310" height="30" as="geometry" />
        </mxCell>
      </root>
    </mxGraphModel>
  </diagram>
  <diagram id="GtMdqh9W6-67r-AxV2sT" name="Campaign">
    <mxGraphModel dx="2384" dy="1918" grid="1" gridSize="10" guides="1" tooltips="1" connect="1" arrows="1" fold="1" page="1" pageScale="1" pageWidth="850" pageHeight="1100" math="0" shadow="0">
      <root>
        <mxCell id="0" />
        <mxCell id="1" parent="0" />
        <mxCell id="bpiFHOBL9M4O2NmRk-2x-3" style="edgeStyle=none;html=1;entryX=0.5;entryY=0;entryDx=0;entryDy=0;" parent="1" source="ZxMtx2RL5Ra777CnqzTk-11" target="Wh6ZpSkDSZCuoJekvwTS-2" edge="1">
          <mxGeometry relative="1" as="geometry" />
        </mxCell>
        <mxCell id="ZxMtx2RL5Ra777CnqzTk-11" value="" style="rounded=0;whiteSpace=wrap;html=1;fillColor=none;dashed=1;dashPattern=1 4;" parent="1" vertex="1">
          <mxGeometry x="640" y="-290" width="550" height="400" as="geometry" />
        </mxCell>
        <mxCell id="4NT-j5oLALfw99GtjdCK-6" value="" style="rounded=0;whiteSpace=wrap;html=1;fillColor=none;dashed=1;dashPattern=1 4;" parent="1" vertex="1">
          <mxGeometry x="-460" y="170" width="880" height="780" as="geometry" />
        </mxCell>
        <mxCell id="4NT-j5oLALfw99GtjdCK-2" value="" style="rounded=0;whiteSpace=wrap;html=1;fillColor=none;dashed=1;dashPattern=1 4;" parent="1" vertex="1">
          <mxGeometry x="805" y="490" width="275" height="120" as="geometry" />
        </mxCell>
        <mxCell id="rlQmC9TN1s0_oxSVtcT8-1" value="" style="rounded=0;whiteSpace=wrap;html=1;fillColor=none;dashed=1;dashPattern=1 4;" parent="1" vertex="1">
          <mxGeometry x="-440" y="480" width="360" height="120" as="geometry" />
        </mxCell>
        <mxCell id="Sv3xHSPVBHU6Y8Z_Tz61-4" style="edgeStyle=orthogonalEdgeStyle;rounded=0;orthogonalLoop=1;jettySize=auto;html=1;" parent="1" source="Sv3xHSPVBHU6Y8Z_Tz61-1" target="Sv3xHSPVBHU6Y8Z_Tz61-2" edge="1">
          <mxGeometry relative="1" as="geometry" />
        </mxCell>
        <mxCell id="Sv3xHSPVBHU6Y8Z_Tz61-1" value="Intro" style="rounded=0;whiteSpace=wrap;html=1;" parent="1" vertex="1">
          <mxGeometry x="-420" y="500" width="80" height="80" as="geometry" />
        </mxCell>
        <mxCell id="Sv3xHSPVBHU6Y8Z_Tz61-5" style="edgeStyle=orthogonalEdgeStyle;rounded=0;orthogonalLoop=1;jettySize=auto;html=1;" parent="1" source="Sv3xHSPVBHU6Y8Z_Tz61-2" target="Sv3xHSPVBHU6Y8Z_Tz61-3" edge="1">
          <mxGeometry relative="1" as="geometry" />
        </mxCell>
        <mxCell id="Sv3xHSPVBHU6Y8Z_Tz61-2" value="Connect3" style="rounded=0;whiteSpace=wrap;html=1;" parent="1" vertex="1">
          <mxGeometry x="-300" y="500" width="80" height="80" as="geometry" />
        </mxCell>
        <mxCell id="Sv3xHSPVBHU6Y8Z_Tz61-3" value="Connect4" style="rounded=0;whiteSpace=wrap;html=1;" parent="1" vertex="1">
          <mxGeometry x="-180" y="500" width="80" height="80" as="geometry" />
        </mxCell>
        <mxCell id="rlQmC9TN1s0_oxSVtcT8-2" value="B_Start" style="text;html=1;align=left;verticalAlign=middle;whiteSpace=wrap;rounded=0;" parent="1" vertex="1">
          <mxGeometry x="-440" y="460" width="60" height="20" as="geometry" />
        </mxCell>
        <mxCell id="qmhyL7JlZaCV9EtF7bYh-5" style="edgeStyle=orthogonalEdgeStyle;rounded=0;orthogonalLoop=1;jettySize=auto;html=1;" parent="1" edge="1">
          <mxGeometry relative="1" as="geometry">
            <mxPoint x="-140" y="500" as="sourcePoint" />
            <mxPoint x="-140" y="420" as="targetPoint" />
          </mxGeometry>
        </mxCell>
        <mxCell id="qHmL7M3QojbUgBAO_-tz-3" style="edgeStyle=orthogonalEdgeStyle;rounded=0;orthogonalLoop=1;jettySize=auto;html=1;" parent="1" target="qHmL7M3QojbUgBAO_-tz-2" edge="1">
          <mxGeometry relative="1" as="geometry">
            <mxPoint x="-140" y="580" as="sourcePoint" />
          </mxGeometry>
        </mxCell>
        <mxCell id="1Lzz_EdtSA5aA4pu3zfF-2" value="" style="rounded=0;whiteSpace=wrap;html=1;fillColor=none;dashed=1;dashPattern=1 4;" parent="1" vertex="1">
          <mxGeometry x="-80" y="480" width="480" height="120" as="geometry" />
        </mxCell>
        <mxCell id="4NT-j5oLALfw99GtjdCK-1" style="edgeStyle=none;html=1;exitX=1;exitY=0.5;exitDx=0;exitDy=0;" parent="1" source="1Lzz_EdtSA5aA4pu3zfF-3" target="3ZQapOwV4KUUDaoiQ2GJ-33" edge="1">
          <mxGeometry relative="1" as="geometry" />
        </mxCell>
        <mxCell id="1Lzz_EdtSA5aA4pu3zfF-3" value="Solidifier" style="rounded=0;whiteSpace=wrap;html=1;" parent="1" vertex="1">
          <mxGeometry x="300" y="500" width="80" height="80" as="geometry" />
        </mxCell>
        <mxCell id="qHmL7M3QojbUgBAO_-tz-1" value="" style="rounded=0;whiteSpace=wrap;html=1;fillColor=none;dashed=1;dashPattern=1 4;" parent="1" vertex="1">
          <mxGeometry x="-200" y="640" width="120" height="120" as="geometry" />
        </mxCell>
        <mxCell id="qHmL7M3QojbUgBAO_-tz-2" value="Leaf" style="rounded=0;whiteSpace=wrap;html=1;" parent="1" vertex="1">
          <mxGeometry x="-180" y="660" width="80" height="80" as="geometry" />
        </mxCell>
        <mxCell id="qHmL7M3QojbUgBAO_-tz-8" value="B_Leaf" style="text;html=1;align=left;verticalAlign=middle;whiteSpace=wrap;rounded=0;" parent="1" vertex="1">
          <mxGeometry x="-200" y="620" width="60" height="20" as="geometry" />
        </mxCell>
        <mxCell id="hZ_wUrTTFldYCGTXOD3U-16" style="edgeStyle=none;html=1;" parent="1" source="oOdwI6FdW7W_uCL7XnWz-5" target="1Lzz_EdtSA5aA4pu3zfF-3" edge="1">
          <mxGeometry relative="1" as="geometry" />
        </mxCell>
        <mxCell id="oOdwI6FdW7W_uCL7XnWz-5" value="Furthermore" style="rounded=0;whiteSpace=wrap;html=1;" parent="1" vertex="1">
          <mxGeometry x="180" y="500" width="80" height="80" as="geometry" />
        </mxCell>
        <mxCell id="hZ_wUrTTFldYCGTXOD3U-15" style="edgeStyle=none;html=1;" parent="1" source="oOdwI6FdW7W_uCL7XnWz-6" target="oOdwI6FdW7W_uCL7XnWz-5" edge="1">
          <mxGeometry relative="1" as="geometry" />
        </mxCell>
        <mxCell id="oOdwI6FdW7W_uCL7XnWz-6" value="Skillcheck" style="rounded=0;whiteSpace=wrap;html=1;" parent="1" vertex="1">
          <mxGeometry x="60" y="500" width="80" height="80" as="geometry" />
        </mxCell>
        <mxCell id="VQevDlfK9b8OlNlQqX-U-1" style="edgeStyle=orthogonalEdgeStyle;rounded=0;orthogonalLoop=1;jettySize=auto;html=1;" parent="1" source="oDDCjfYhXlgWH70JOUNm-1" target="oOdwI6FdW7W_uCL7XnWz-6" edge="1">
          <mxGeometry relative="1" as="geometry" />
        </mxCell>
        <mxCell id="oDDCjfYhXlgWH70JOUNm-1" value="FirstSteps" style="rounded=0;whiteSpace=wrap;html=1;" parent="1" vertex="1">
          <mxGeometry x="-60" y="500" width="80" height="80" as="geometry" />
        </mxCell>
        <mxCell id="3ZQapOwV4KUUDaoiQ2GJ-16" style="edgeStyle=none;html=1;" parent="1" target="oDDCjfYhXlgWH70JOUNm-1" edge="1">
          <mxGeometry relative="1" as="geometry">
            <mxPoint x="-100" y="540" as="sourcePoint" />
          </mxGeometry>
        </mxCell>
        <mxCell id="4NT-j5oLALfw99GtjdCK-5" style="edgeStyle=none;html=1;" parent="1" source="3ZQapOwV4KUUDaoiQ2GJ-33" target="4NT-j5oLALfw99GtjdCK-4" edge="1">
          <mxGeometry relative="1" as="geometry" />
        </mxCell>
        <mxCell id="3ZQapOwV4KUUDaoiQ2GJ-33" value="Connectivity" style="rounded=0;whiteSpace=wrap;html=1;" parent="1" vertex="1">
          <mxGeometry x="825" y="510" width="80" height="80" as="geometry" />
        </mxCell>
        <mxCell id="4NT-j5oLALfw99GtjdCK-3" value="B_Connected" style="text;html=1;align=left;verticalAlign=middle;whiteSpace=wrap;rounded=0;" parent="1" vertex="1">
          <mxGeometry x="805" y="470" width="60" height="20" as="geometry" />
        </mxCell>
        <mxCell id="4NT-j5oLALfw99GtjdCK-4" value="Connectivityv2" style="rounded=0;whiteSpace=wrap;html=1;" parent="1" vertex="1">
          <mxGeometry x="945" y="510" width="80" height="80" as="geometry" />
        </mxCell>
        <mxCell id="4NT-j5oLALfw99GtjdCK-7" value="S_Conditions" style="text;html=1;align=left;verticalAlign=middle;whiteSpace=wrap;rounded=0;" parent="1" vertex="1">
          <mxGeometry x="-459.99" y="150.21" width="60" height="20" as="geometry" />
        </mxCell>
        <mxCell id="Wh6ZpSkDSZCuoJekvwTS-6" style="edgeStyle=none;html=1;" parent="1" source="ZMn_Qo1sCeu8yY0JH-4t-1" target="ZxMtx2RL5Ra777CnqzTk-11" edge="1">
          <mxGeometry relative="1" as="geometry" />
        </mxCell>
        <mxCell id="36PaiXPWea7a-p1l2seN-5" style="edgeStyle=none;html=1;" parent="1" source="ZMn_Qo1sCeu8yY0JH-4t-1" target="Wh6ZpSkDSZCuoJekvwTS-7" edge="1">
          <mxGeometry relative="1" as="geometry" />
        </mxCell>
        <mxCell id="ZMn_Qo1sCeu8yY0JH-4t-1" value="" style="rounded=0;whiteSpace=wrap;html=1;fillColor=none;dashed=1;dashPattern=1 4;" parent="1" vertex="1">
          <mxGeometry x="640" y="160" width="550" height="780" as="geometry" />
        </mxCell>
        <mxCell id="ZMn_Qo1sCeu8yY0JH-4t-2" value="S_BasicSetRules" style="text;html=1;align=left;verticalAlign=middle;whiteSpace=wrap;rounded=0;" parent="1" vertex="1">
          <mxGeometry x="640.01" y="140" width="60" height="20" as="geometry" />
        </mxCell>
        <mxCell id="ZxMtx2RL5Ra777CnqzTk-12" value="S_ComplexConditions" style="text;html=1;align=left;verticalAlign=middle;whiteSpace=wrap;rounded=0;" parent="1" vertex="1">
          <mxGeometry x="640.01" y="-310" width="60" height="20" as="geometry" />
        </mxCell>
        <mxCell id="Wh6ZpSkDSZCuoJekvwTS-2" value="" style="rounded=0;whiteSpace=wrap;html=1;fillColor=none;dashed=1;dashPattern=1 4;" parent="1" vertex="1">
          <mxGeometry x="1275" y="160" width="170" height="780" as="geometry" />
        </mxCell>
        <mxCell id="Wh6ZpSkDSZCuoJekvwTS-3" value="S_MultiSetRules" style="text;html=1;align=left;verticalAlign=middle;whiteSpace=wrap;rounded=0;" parent="1" vertex="1">
          <mxGeometry x="1275.01" y="140" width="60" height="20" as="geometry" />
        </mxCell>
        <mxCell id="bpiFHOBL9M4O2NmRk-2x-4" style="edgeStyle=none;html=1;entryX=0.5;entryY=1;entryDx=0;entryDy=0;" parent="1" source="Wh6ZpSkDSZCuoJekvwTS-7" target="Wh6ZpSkDSZCuoJekvwTS-2" edge="1">
          <mxGeometry relative="1" as="geometry" />
        </mxCell>
        <mxCell id="Wh6ZpSkDSZCuoJekvwTS-7" value="" style="rounded=0;whiteSpace=wrap;html=1;fillColor=none;dashed=1;dashPattern=1 4;" parent="1" vertex="1">
          <mxGeometry x="640.67" y="1000" width="550" height="400" as="geometry" />
        </mxCell>
        <mxCell id="Wh6ZpSkDSZCuoJekvwTS-8" value="S_ConditionAffectingSetRules" style="text;html=1;align=left;verticalAlign=middle;whiteSpace=wrap;rounded=0;" parent="1" vertex="1">
          <mxGeometry x="640.68" y="980" width="60" height="20" as="geometry" />
        </mxCell>
        <mxCell id="36PaiXPWea7a-p1l2seN-1" value="" style="shape=image;imageAspect=0;aspect=fixed;verticalLabelPosition=bottom;verticalAlign=top;image=data:image/png,iVBORw0KGgoAAAANSUhEUgAAAN0AAADgCAYAAACHIGNpAAAAAXNSR0IArs4c6QAAAARnQU1BAACxjwv8YQUAAAAJcEhZcwAADsAAAA7AAWrWiQkAABWtSURBVHhe7Z0/jBVHnsfr1z2WHdjrCU46ktMwcNKZDEfG0bLR2ma8M6NdyWtdsBDZlk7aI/ISAdHZkdngZByxG8EGq2EMAzg4gSPIsKWTzAXGjHSBLW0wcJzkk6b7d/WrVz1+M7zprn6vurq6+/uR4HX1SHjcr7/1+1tVCgAAAAAAAAAAAAAAAAAAAAAAAAAAAAAAAAAAAAAAwED2E3SMhbW3js4pmt9WvLW5euMrext0AIguMAtrywdTlR/nJD9ob9WD6QX996+J1D+Obgj837lS6/rL/Ju9sQvKk0dZoh5sLl+7Z2+BFoHoGmLh86VX0oyOjYuLFC3rj6Oj0XTIF8ajy/qw+p6Jr+qrH4wQU763+avrD0Y/BKGA6DyyY8WI39GW6A17Oxyixvrf6CNW/Ge5gBDDANHNwLir6MOKVTKdqKbBCNGIUGVfIWb0C0TnwKQ4LIjIYoH5HpP6wo5GFhFinBqIbh8kO5iq9KhK+Pd6OAxx1UWLMUvoFNzRekB0e5AESJKrT1qJyboI8wMtvFUIzx2IzgKxzQJvqTw5DZfTjcGLri2xsTKp+69HI0eY/nl3fW43zPyl/kbv2GHB88RqRRG9YsfNApezksGKbuH6WweS7eRS42Jj9SMn6qJ+GR/LkHK1laV0q+5LaWLMJLlvhxPRQj7/3fLGOTvchakb5mqFiV/QAlzQQjxpf+QfcTkpOYVi/GQGJ7qiaK0SPquH03WFVDBuxXKiKz5m/UNrJ/5VJfSJHU4m59MPVzcu2FEpJiNL2RtahAfMjSaECKs3kcGIrknLVohsWivmwuL6iXOkSCaKyWiLmnF6ZHN1/ZG9U5sxIS7oF+N9/XrM2x9NDxItzzAI0ZmXKclu68uZLNveOKxJke2lSnT6d/tIu5Zn7HBmzCSVkRbeTxDTe/qNGVnGOojw5vgXm0s3vrd3Bk3vRedFcNqK6L9OPVzZuGLvBMdBdPvGc77Qz3JeW8L3tfo+nNIK3snydFVb4y07HiSJ/ewlMwlOEiCkLkiclM3li20KLhZELA9Xrn+UpXxEP5s/2dt1OC7fx8Ltn8tKicHSW9FNLTgrtixRr373q+smMQG3aDfyPPSzOZUpel0/r7rP5mi69eIut3Vo9FJ0h9eWVqYR3LjYEPhXIyWBjGi1tvASdVZKIHY0OHolOnFbFj9fusSJWtNDd8FJzJbTKYitPkZ4nB4RN9xdfDSfJnR7qMLrleiSJy9erlNrEssmCQixbg9Xr00TowCNifW0G67F97oeOpYshiu83ohOLBwpWrHDaqxlk4xfF6ybXUoUNVIjzNL8dfckyzCF1wvRGcHV6abQguuSZbMvZemLKWvc7GWr7CRZ8nTRzd0cnvA6L7pDa2+f7LPghFTRcXu5L7LNgr2MArF6xPyuiZcrGZbwOis6KdQuXl26qRK+ZG+VY5MlXYzdOFGlhWjplInRRf52deMOUS7ZTUfhJfcPrS9p8S3P3n4WMZ0U3agzYvumcx+l/tJ7niypt0QoIN8u37jlLjxD7wvonRSd/lLWFNExO6yAt7Sb8yZKAe0xhfB6XUDvlOhMHW596bK+rIxxDLK0hOh1cXPsHdAStYVH9GFfrV2nRJf8z0ufklK/tcNyjEuJtVwxUUt4pA6kj1+8L+sf7Z3e0BnR1c5SMn0AwcVHPeHRKymrm32zeNGLbkhZyqGwIzzZ0Kiag32L76IXnSRN6mQp9V8QXAcQ4WUqedMOy5H4rkduZrSi27FwrkkTQ7sLTUE9zMZFzNUhgMR3zHf7UjyPVnS1LZy4lBBc58h4TqydQwsbzadEl/tg8aIU3cL621KDcywLyIY8+etwKbvJTpM0q1v21v5IYiXnta4nVqIUXar43+xlNZKl7Puuwkyv2ateIk3SCeV/tMNyRHiPX7zdZYsXnehqWrkzfbdwEsc0viFuBGz/7H+lgcFtpQTRMWPxOiq86ESXsNkEthpxK+fy3ruULisMZCtAe9lZNn/x5Y+ZIlmV4Lb6vMOuZjSiK7KVTrO6LQ0MYcOgqhUGZvJRc7IfZ+epvefKyNV0X7gcCdGIzjlbaRIn6RFkKkcw8QVJRthh5xmdf8Cn7dCFs11zM6MQnXMcV1i4Hr1kHvg/+9kbspefiuV2S46ZVrFu1fCiEJ1rtlJmdVi4/iPxHY12F6vuzzR0q4bXqujqdp1QnvyXvQQ9p96qc02HEiutiq5u10n2XFZdQAW9QfozpQ5rh9V0JLHSmujqdp2YWA7bmw+ObP6JhBN1YvizsVu7VkRn9jjhvPyAwwKxcMhWDhaJ7xSz+xFgHbB2wUVnBEfbN/XDqd7jpLBwyFYOGpvNrGftIk6qBBddzU2FsHIAFNnMU7WTKpEKL6joavdVQnDAYjaXqutmRprNDCq6NM/dLJzEcQPoqwT1yOafXtTvhnsyLdL4LpjoJJZTpN6xw/1BphLsg02qfGyHrkQX3wUTnVMsZwUHtxLsx1TWLjI3M4joXGM5tHmBKoy1q9cQHZ2bGUR0rr2VaPMCLkxRQhCicTMbF12dFQRo8wIujGI79ZkduhFRGaFR0Tl3niB5AmpClNffFycS4TUqOudCODNqcvvQhWOP26DWnirjRJBYaUx09dxKhuAmYBdmli7OjOXY49CIi2n2VHHbmn03WnhzWy+1ttlTY6JzL4TzGbiVk+niscchka0dWKmLdliLPOHWVpo3514mDm4RrFwpXT32OCTE9Nhe1oJYvdNWbNeI6JxcSyRPfBDtscehmCqhIrQY2zUiOpe6HArhwAdTJ1QEEV4LRXPvonNNoKAQDnywk1Cp0xq2m+Arzb2LzimBgkI48Mhor0zldhbCXlqwdv7dS6cECjKWwC9Tx3Yjglo7r6JzTaAgYwl8M2tsF7Ju51V0Lq6l2QYcVg54RmI7VvxnO6xNyLqdV9FVHnahQQIFDB3/MV0ZSKCASDHF8kBxXVDRwbUE0RIwi+lXdNXH9PbuhBnQH5hUkLYwb6IbyjG9IF5I0c/t5VSEcjG9iW4ox/SCOHFeSlZGIBfTm+iY6Jf2cjKSROnJMb0gPlw7oexVGY0Xyr2IzsW1NEkUnEkAGsKlXKVjtupJP0Ch3IvoHF3LH+wlcGTWGGVIEFO5FdNWLs9T2Za9cuJvulDuRXSVswxcy9p4iVEGRGXvpfT7iqflcB5C0wkVPzFdRakArmV9nLe7AIbS3kvTlDHq93XaM7PhhMrMonMsFaA+VxPHljpMZJZ919WZ5MlPOxSM9systnZN1uxmFh1KBS1hZm+01I0j6+rk1F6V82lWfF4+s7l8ce8OBS7WrkkXc2bRIZ5rB7TUTUaHMVsPVzcufLe8cU4+Jz0jpxUJDWYx/cR0JSCeawy47DNQme3UNJXFbFx0GrwcIDpcVpo35WKGEB0A0eG00rwhFxOiA4NklMWsPvmnCRcTogODpS0XE6IDg6UtFxOiA4OlLRcTogODZsb9MqcCogODxsXF9B3XQXRg0LTRnQLRgcETujsFogODJ3Rc17joEuaD9uxsAKJkpnMQpqBx0TElv0uT5P6hqyfutnXcLABluMR1PpMpjYiO7OcuiI6Z42YhPNBFPCZTJuqjDovrJ86RorN2WA3zAyb1FzuaGVk9nansq83VG7X9cnF7U5Ue5SQ/aG89g/n3U74X+kD9qucqizRlzZgdghk5dHXpD1oNpcd2+3rm/kXH+s/M/+oUMN/TYv7Cjqpheq3mjtSPChdkFqG7EpvoxENJMzpWNkHtR1sTVx0Or7/1Bqvkph1OJF7RDQktdMXJZ1miHtgjeL1RKTrmz4iTe9OIoDb1J6j92D1xNfDcpkXitfTJS9/oy32fJ0QXG6y+Z2LZlsLP/p6sjhMNYN9L389tFopnLt6aIOoY89wiF13x2wLQH3LF//5oeeNf7HBqGioZQHCgfySeygboSAHAFaK/81E2aL44zvwf+m/sewl6gY8ezMYTKRJ85ilfTDJ6397yxfP6l9f/JlXuhOwEqx85URf1LPHY3pGZbYFYnbQjALTq6NTD1Wt/sqOpCCK6pupJC9ffOuBDzLIDtex1P2lj0oW15YMpZW8w8QE99Cv0LjJpciqjTxMXq+1sLv+HWTf57bTo2mCP0J/XL9SKtAjZcTvUFcIM5ERX6ha590xcQhzPrS7Mf324svEbO5oaiM4DplsjVyv6pfK3a1RFnU7Hyl/qb+9OmZWOnUae2yzs98xtrS7yOt0YzA+yl5++ajaBAc5gMgtPqGc+c/ayctWtdiFCHJ4OQFeYXXQOq26bPOsLAG9UHG7qi5lFF3rVLQBN4Hi4qRdmFl3oVbdDQccWy/YSBCDk4aZeOlIQ1/nF7ilT2vkgS2PsJfAAE/3SXk7G4+GmfkSHuM4rLrOuLAq1l2BGXFxL9ni4qRfRtbFLbp+pOlJau/NXY16F3TUcXUtv6/28iK6NXXIHztf2E3gg9Ln5XkQntHmGMwBN4tO1FPyJroXTTwDwQnV9zuu5+d5Eh3od6CIh63MF3kTnFNcBEBkh63MF3kQHQBcJWZ8rCC265+0nAK0Tuj5X4FV0VRlM/fOTqNU5EKjxduiErs8VeBZdRZcEqQOo1ZXTRmA/VELX5wq8im57/uk9/YuWrmDOE8YsXkIbgf1gqfAomnAtBa+iMxlM4s/scCJwMctpa/YdGo4ehdf6XIH3REqSK6nX7Q9czJloavYdGm16FN5F5+hioh1sehqZfYdGG6WCAu+isy5m6WacWHEA2qStUkGBd9EJOm4r339RFrVu/ey3dgRAUBJKSk9cFZooFRQ0IzqX5mfKP4S1A6FxSqA0nKxqRHROzc/YwgG0gEsCRXO+yWRVI6KTuE7PFqWlA8tZWDsQEk7UP9nLyYiV4/SKHTVCI6IT3FxMWDsQDjmHgpiq3rdGrZzQmOhc19dhwyIQimQ7uSR1YjucSJaoxhsPGhOduJiZoneranYoH4AQuCVQ+EGIDZ8aE52wuXztXlVbmLiY6FABTeNSJtBe11/sZaM0KjqharmPgA4V0CRufZa8JScG20GjNC86bFgEWsapTMD0cagz/hoXHTaiBa2TVJwLEaBMME7jonPasAhx3Q44OMQvh9eWpERQaulCr9xoXHQC4jo3JPbQH6XPAQeHuCN1OU7UJ3a4L032WU4ijOgc4jq4mG6xBw4OccfU5ZQ6OBrtQwuLgoOIzrUXc+guZtWqcRwc4o5bxlLgU6EXBQcRnWsvJlzMSnBwiAMLa8vzaZJUupUyiT1c2QiWQCkIIjoBLiYIRZpka/qj3FXXbmVOdMaOghJMdFjuA0KwsP72Mf3htnynJVc9mOicl/uQ+tRm8QCoTaq4st1LCNHYvB/BRCe4dafQfEp0GW4mqMvhtRNi4SqtXNsJqaCic13uAzcT1GVUkyMpEVTAW23FcgVBRee63EfAOjtQhzRLLuuP8pqckCen2y67BBWdIMt9iFmEV3HYCDKZwA2XVi+DFMKfy27ZUWsEF53w7erGHSb+2A4nIy4mtukDFSysLR90afUaTfJ8KtRKgjJaEZ2QKId2JmzTB0oQwaVJdltfVruVWnBtFMIn0Zro0BoGZkESJ86CyykawQmtia5GaxiO1gLP4NTMrDGtXqvXSrf5D01rohPcWsPo5MLnS8hkAoOEG4ufL11yamZusdWrjFZF5+ZiqgNpzmuI7YCQPHnxMrE6aYflMH0Q46qMVkW3U7dTXH4OGIrlQGM2i1WVm8WOkDguMreyoFXRCWabPqX+aIf7g57MQWOW62yTrB6oJufTsQpOaF10glP5oOjJRHw3OIzgaPum9nhkBUE5UgBXc9EKTohCdLV6MpnvwuINC7M+zkVwOkwh5jc3V9cbObbYF1GIrk5PprF4Cd2G8IZBjfVxpq9Sup3sKFqiEJ3g2pM5AsIbAsat5Ly6xUuIpK/ShWhEJ5hZiukDO6xgJDy7hgr0EGe3MqK+SheiEp2QzT+Rdp3q+M5A86yFd+jqibtIsPQLZ7fSCi6mNq8qohNdvfjOomdDU0CH8HqB6at0cSs7KDghOtEJEt9lnB7RD/XM6ME6YDObcDe7jVk5kCV33dxKPtM1wQlRik6QtO/DlesfEeWrzsKDu9lpaq0c0O9E9hx3TnBCtKIr+Hb5xi335IpF3E3U8zqFEdyo48RJcOJWdiVxspfoRSfUS64UoKzQFWq5lEJH3cqCTohuquSKAWWF2JEspfvqb02H3cqCTohO2Emu5Hy6nvjG4rxRGhpEgBS+F68u3UwV39VDZ8F12a0s6IzoBJNcWd24UDuzKUicp79gJFnax8RvtH3T7VSdEaz4YjaXL3bZrSzolOgKdmU2q9bi7aWo6cHqBUcmu0Nrb5+sFb8JenLNUz7fdQtX0EnRFUhmM0v5iJ4FP6pp9V7ZsXoQX+OIZTOuJKtvVMJOe5vs0BOXcpxOi06QL+O75Q3tatYsKwhjLqfMwMh0+sckSrRlq+NKFvTJpRyn86IrmK6sYBFXR8/AaZLcN9YP4puZqRIl4/TMpRynN6KbvqywB7F+Ir71pe/E+tm7oAYyadVNlOyihy7lOGQ/e4NZg6W2T3Ki/l7/z72v/xdLz/GuRIuYieUssx9kSHnyKFPZV5urNxyO/arH4vqJc6TorB0+g3a3zmtX+pwdRoc8+4Syy7OITbbb1xbuYl8FJ/ROdOOYeIJ5Tbbxs7f8wXxPcfKZTwFWiU7/Nx9kLz99Vay6vRMNkplMWX2qL6dqRJAJpe9iK+i16ARj+Sh7XxF/OLPV2w9PAqwUnYZytfrt6vXWThHdi2QmZbflmVxJpg9i3r3LN70XXYF5OTL6vReXs4wZBHjo6tIf9DdSenxvmy6mnsAOpio/zkm+kxjRk8Tv9MdUiRLjShJdiXFD2CYZjOgKgolP0ALMKDktLWz2TimH1996g1Vy0w4nElJ04yLT4lrWt/xkdW2ipG+lAFcGJ7oCKz4tPPV8LNZPto5Pn7z0jb7c13I0KTqTdVTpUe8iKxhIoqSKwYpunB0BEi0475M/LVqATOoLO9qFZEaZ8mNE9J699Qy+RbcjNOJ3po7LqoDYdgHR7UFcqiTZPinHL0u7mL0dE9/niv+qv7i/2fH0ML3WmNDGYX53qK7kJCC6EkwaPFcrepaWE4Oad0P7xgAzky5AdDUIGgdWwfpPpN+edp8vaOv2eIiZSRcguimJSoCxAMvmBETngUKAxPSefqL+u18m0aKlY2Xa4r4ejX4Cls0NiM4jpvvFZ99nJBQio1xtZSndgrBmA6JriNmsn3wtYspapEjzw3p5B6JrmDHrV2b14ogLRWiJukgZb8qOW6ipNQNEFwljiZkRTC+Qyo+yIilX6C+Kf8wT9Z/acj41P/eMcR0hNAAAAAAAAAAAAAAAAAAAAAAAAAAAAAAAAAAAAAAAAABAX1Hq/wEgL9tmlONoEwAAAABJRU5ErkJggg==;" parent="1" vertex="1">
          <mxGeometry x="640.81" y="1000" width="39.46" height="40" as="geometry" />
        </mxCell>
        <mxCell id="bpiFHOBL9M4O2NmRk-2x-1" value="" style="shape=image;imageAspect=0;aspect=fixed;verticalLabelPosition=bottom;verticalAlign=top;image=data:image/png,iVBORw0KGgoAAAANSUhEUgAAAN0AAADgCAYAAACHIGNpAAAAAXNSR0IArs4c6QAAAARnQU1BAACxjwv8YQUAAAAJcEhZcwAADsAAAA7AAWrWiQkAAA6vSURBVHhe7d09cBbHHcfx3Tt5kiLYlHQCURh3pjKpTDoCMuKpbKqgKlA5VI4rQ+WkCp3tClNBJ8lIyKlwKuhMKnDBi7qU2OPMkBndbfZ/WsEj6Z7n9l61d/p+ZvBzd8YzWDy/2/ddBQAAAAAAAAAAAAAAAAAAAAAAAAAAAADoOe0+MRCzS2ffj1X8vonSo+5RRqfRi0QljzZG9x65R9gnhG4gZpcWDkc6ua21OuMe5TPmodHqn+7uNULZHUKXY/a7+RNxok/JdV++iHMr8/ftx+mtuxpsKBNjrhC+9hC6MVI1i3T05Z7SQr6IkV7cOL/6xD0JyuzKR6diZR6426a8MMrcykrA2DwM9f+9jwidNTFs44x5krzz68mNP/zrlXsSjLnl+cv2b/Ird9uWLIRyQVW0ngMdOu92kKNTNXo6Wl12t8E4vnL2jFHRurvtTuA1gFBF7vPAkcDFenPdN3Aijcz77jIom2//9wf78WLrrkNan4pTsyRtYPcEHg5k6LKOkihZki+Ne+RFqlXuMihS5U2UvqiM+o971B2tT2TBu//hb90TFDhQ1cvZ1bNHos3oZpnS7TWjXiUz6bGN+Xvdf7E9ZaW32rxkInXYPRK/sX/Jl+1f9fizxoVa9Q7R4ENnv4hHY5WelsFirfSf7KMdg8ZebODsPxafXVi74570SvaySbQNXq5GQmmUuf58Ye2au8UUgw3d8aX5C/aN/4W9rN4Os2Ez2vw9jc3XIZdwdb0Opdaz2qhL7nE5qV58Nrr7rbtrjPQsz9gXwqYyL4fSWzq40NWqQo7reelWVVYz0MkZ+7I54h3CFqreuT3LA+ktHVTosi9MlMjMjPJVyG0HpHTzNR5CbfSf7TfmiPtXW1p6OU2cYSPjpTpa3Fi4+9A96Z3BhE5KuDiJZFZG9cAJYy4etNLNl5Q+4x01OlUvk7fMnaZfTl4zbHpc6g0mdMeW50uNue0hb2yjr7TRLkE5c0vn/qIi/Q93O5mUepEe9S14gxink8Z21cAZrW5Iz1sSqZMELhBa+4359XSMcBChk/Vj7tKflGypXnx+fvWqdHUzlSkcWqf+vZQ2eDMvD9XrNOvYIEKno6SwTWFLs2Up0bZ/UbKFq+y0tlCn500yiDadVC/iXw49tpf5nSgtjSGhPVlnijFLe3pLc8hLtE8D84Mo6WTuoU7Nov3xv3SPtrgqJIHrHxkSSLQe2b/DwlpMqHNiJxnWON3r6U76XZu4n1Kt79BW67ftYQrbdvsst9SzL9bQ58TuNqjQYbhyq5stDcy3jdChN8YH59samAcAAAB6Jqg23RDXTgG7BRE6aSAPde0UsFsQg+OySdCeCcvbO02x4Q0GZt9Dd3zpnCxUzN8OvIeTWYEi+xo6mUFiIn3T3ebq22RWoMi+hS4b6NzUS/ay3kpvoGf2JXRZ4PTmurTb3KOJZOaBuwQGYV9C5727skxmVTNsYIpB6Tx0MnHVfnieo2YWN0YrvVq2ARTpPHSxMl+6y+mM+pxduTBEnYbOu5TbWiPFwlMMUqehi5T51F1O5tZIsWQDQ9VZ6ORsAa3UJ+52MmOoVmLQOgudO8xjOqlWvmUIHAatk9DJ6gH7UTyzxJZyVCsxdJ2ELlbar/OEUg4HQCeh23Uy6F50nuAA6aZNZ/QH7iqXHE1F5wkOitZDJ2NztU7TAQam1dBlZ8Ypc9vdTsSkZhwkrYZOjiG2H9OX7kgHCpOaEZDZ7+ZPyOJqN4Oqca3tkSLDBHEU/ehuJ8vmWK7+zd0B+6arvXpaK+m8hwlMTAcKgrAncEL26jHmgRtrbkRroSscJsiwdAdhmH6arz4ca327qU2yWgudVvpDd5lLjh1mmAChKDzNV45afvl28dxhD62EzmsJjzE/uytg3/mc5qt0+lkTpV0robN1YHbwQq94Hbnc0JaQrYRO67Swnda30zMxbHKarzLqG3c7URNbQrYSusK3Rja5Ofne3QFBsIVFJ+dntBI6eWskSl+04dpbT2ZyMwLlU8XURn1ct13X6gEi4ydnyj2nZyJ0x1bOXdNKT11wbb/Ho6ej1cqzqII6KgvYb3PL83+1qZi6Y51R5vrzhbVr7ra0VqqXQF910a4jdMCYLtp1hA4YI52Atvp4y93mqzleR+iAXbTRr9zlRHXG6wgdsEvb7TpCB+ziNSWshsZDJ0skslW3Da4/ArrkOyWsqsZCJwPhx5bn12W1uIn0ffmcWz73QJa+u98C9EZRFbPO3OHGQicHPeauuk3NUlOL/4CuTK1i1pw73Ejopq6fa2g5BNClifOHG5g73Ejoig56bGI5BNC1jYW7DxMTv6dSc1WmfslnMpMeq7vjQe25l1LK2dA9cLe56s5VA4akdkkXp2krewMCQ1U7dD67frFKHHijsd7LiVglDuzQeuiMNjdYtAq80X5Jp9T/3CcAq4vQARhD6ICO1Q9dwSmrAHaqFbrphy4AyFMrdD7HYXHKKrBTrdAVDozLGB2nrAI7tNqRko3Rcf4csEOrobMYowN2qRc6ei6B0iqHjp5LoJrKoaPnEqimcujouQSqaa0jhZ5LIF9robPouQRyVA6dz37vAPaqHroWN+MEhqxy6NrcjBMYssqha3MzTmDI6u97OXaYPwf5AwAAAECnarfpgINIJvzPKH14U5mXG6N7pY5LJnRACdJxGOnk9o4VNsY8TCK9uHF+9Yl7MlWb08CAwWni8FNCB3hq6vBTQgd4KjoWzvfwU0IHePI5Fs4HoQM6RuiAjhE6oGOEDvDV0JaThA7w0OSWk4QO8NDklpOEDvDQ5JaThA5oQJktJwkd4EEr/aG7nMR7y0lCBxSYOueyAkIHFCiac1kWoQMK+My5LLPPK6EDChTuZl5yn9daK8dlwDBWcbacIVHJo7LL1oE+OL5y9oxR0bq73Ss1V5+N1m64u0KVQpe7ZF2UXLYO9IGsCI9/OfTYXh7dejJGSrmZ9FiZvV4rVS9zl6yLksvWgT5oejfz0iWddJ/Gyjxwt7l0qkZPR6scCIlBaWo389Khm1uev2z/q6/cbS6jzPXnC2vX3C2AMaWrl1qnHIEF1FA6dFOPyAJQqHTopFFpq4+33G0ubdTHdKYA+Sr1XhYOFmp9Iv75dxfcHYAx1UJXcPSxMFqdcJcAxlQKnU+7jiomkK9S6HzadVQxgXyVQicK23VbvqC0A3aqHjqPdp2Udr6HKgAHReXQ+Y7X+R6qABwUlUMn7TplzOfudiI6VICdKodOJO/8KpOap5d2VDGBHWqFbqu0U9+424moYgJv1Aqd8OlQoYoJvFE7dF4dKlQxgddqh44qJvpo9rv5E3NLH12SX7LXj3vcidqhE15jdkAAZlfPHjm2PL8eG/VYReam/Iqj6Me55XMPJIjut7WqkdB5zcUssS8g0IbZpYWjcRI92O/9fRoJnVQxczdu2VZyX0CgaVngouS+vdy7o9e2jvoeGgmd2Fi4+zDRerQneBV3TAKacnxp/kJh4Jwu+h5qbTabp6kdk4C6pP0WbUY3S52gmurFZ6O737q7VjQeOiAEXtXJ3SpsHFtFY9VLIBRVA9dVM4iSDoMiVUrpobSX3oGTfVrT2HzdVTOI0GFQZAwutDbcboQOg5GdIhVFP7rb6aQ6afSVrgMnaNNhELJec62nbve/zVYnl5NIndyPwAlKOvTeVuA212VWiXs02T5UJ3ejpEPvydFtPoGTDpP9DpwgdOi140vnTtsP+TWdbcOl6cy+B04QOvSWjMeZSN90t9MZ8/nGaCWISffBtelkecVMYo5sRtErmc/pHgM7lBqP62imia9gQieN4T3nmHOGOSbwHo9zM02eXVi7457su2Cql3sCJ2SNkzEPul7Zi7DJ96GvgRNBhG76D1EfjiN9n+BhW6SjL91lgfACJ4IIXazigkDZ4Gl9mx3F4F3KyXhcgIETQYROR0lxA1dOAXr59ifuDgdU8QtaapVhjMdNEkTovM8xj9J/uHEZHFCFL+iAxuMmCSJ0sseKTs3iVsN3Gn3Y2PZdlzs3ISzFL2izGMp43CRBhE48Ha39ILO+3e10He7chLC8fkEr89I92iIv7IDbceOCGhyXEMW/HHpsL/0WIBrzJIn0iHG8gyfb/yTRl+1X+F37Rfgp1fpOX74Hwc1IkTab0Xrd/sk8SzH7xkujqyE3nIFxQS7tOb5y9owx0ZJ/8Cwp9XS0yNQxhC7I0IlKwRNMHUPggg2dyIKn9G37xzzsHvmhrYeABR06UWk7NSHBe+fXk9mpQkBAghkymETGXJI4/b3RqlxHCWfiIVDBh07IOqjn51cXtUr/mPVWeuJMPISoF6Hb9nTh3vdJbN7zLfU4ngshCr5NN0lhJ4sJa7XwEGXtbZWeNlF6VF5wiUoebYzucUBogd6GTsyufCSLXGVY4Yh7tCXQxYt9tyNkSi/YR3ur7wzZFOp16IRs87B9NJfcczxX8+R8N/vz/cJe+rWR6TmeqvehQztkFUec6FMqMp/a29IdUvblN3o6Wl12txjTq44UtG/PQfgVAifoOZ6M0OE12Qph4kH4JdFzPBnVy4qyL6jbOkCr9IVRUTZjpk89eNtVSOkYUUZ/0ETYMvQcT0XoSsrdn3M36cEz5kqo4at0Frcveo4LEbqS5lbmZR6o7z4ttgQ0t9x1rq7Ht6qcVFpEjp6yH/+m59gPoSshGxdURr6wzetofKv0SaU5doQs1t8zJlcOoSthbnn+sv2JeR08WEnL41tZO9T3pNIcErY0NdeZdVIPvZclaJ222yPX8soInz0jc0nHSJqefL6wNiJw9RG6Erz356yhzfEtr019d3MdI4StOYSuBKn2JUpftF/E1joK2hzf8n5p2KAZrW6o1FyVrn96IptFm66CbL6nTmz7znxmf4TltpKYpoPxrWy3tUgt7fhzS8gi9bVtU/4st33azq6PCF0Nb/ZeHKP1rDbqkrvz56pxXZQqfd4zcggIXQuyJTA6OWO02bnkaALGtwAAAAAAAAAAAAAAAAAAAAAAAAAAAAAAAIAJlPo/eHAA9D2FMdgAAAAASUVORK5CYII=;" parent="1" vertex="1">
          <mxGeometry x="1276.48" y="160" width="39.46" height="40" as="geometry" />
        </mxCell>
        <mxCell id="bpiFHOBL9M4O2NmRk-2x-2" value="" style="shape=image;imageAspect=0;aspect=fixed;verticalLabelPosition=bottom;verticalAlign=top;image=data:image/png,iVBORw0KGgoAAAANSUhEUgAAAN0AAADgCAYAAACHIGNpAAAAAXNSR0IArs4c6QAAAARnQU1BAACxjwv8YQUAAAAJcEhZcwAADsAAAA7AAWrWiQkAABLASURBVHhe7Z07dFTHGcdn7pXPcYFAJZ14NKYzVUiVuIoNwkIVdmVUxVQOlUOlUNmucCrsCqdSUq0UXu6wK+jiLqQwWF1KGSvnUOjeyXyzsyDkvfd+s3sf8/j/CvbOcuwDaP/7vb8RAAAAAAAAAAAAAAAAAAAAAAAAAAAAAAAAAAAAAAAABmlfQYAsj86/vSDk0r5Quztr93+wbwPPgegCZHm0upTJYlNK8a59SwilHheZXN95/+4T+w7wFIguMEhwudx/IKQ8Z996hVJPimN7Z3fe+f6FfQd4SGZfQSDkWTGaKjhCyrcWdhdfWT/gJRBdQCxvXySx/X58mk6ZqbftI/AUiC4gcqE+s48gYCC6QOBYOUIqcXn54e/etEfgIRBdIORlOT2OOwziOu+B6AKAMpZCisv22AjiOr+B6DyntkQAggSi85zaEgEIEojOY7jJExAWEJ2nGLdyxhIBMph+A9F5inErZ7VyyGB6DUTnIadHF0hsc7mVyGD6C0TnGct3zx9XmbxtjzMDF9NfIDrPyPYzEtyJ8WkO4GJ6C0TnEZStfG1Grg6lHtunSuBi+glE5wnLo9UTuVCb9liNEi9EKdelVDfsOyAwIDoPMILLiof6keFWqvWna3e+2T/6v+/04afxe9NBXOcnEN3AUOKEKzgl1I2nl+79nZ7NdLgSX5vfqELHdfnPRy7ZE/AEiG5gskLe0i/NFk67lWW58I09GaQsG5cRKSneso/AEyC6ATGJEyGZlkit76xtv+ZOwsUME4huQDJRfmQf6ynl+sStPAi5mNrl/Js9TgcupndAdANBsZxUDCtHglu785pbeRD9/+Bs/tqAtfMHiG4g8iLbFFIct8fpNAiO4MR1KJT7BUTXMzQ9cHJr5YF+rO+tVOpJk+AITlxHoFDuDxBdz9D0AKfrREnxD/tYy7h0oK7bIwgAiK5H+NMDarfM1Vf20EhxbG9Lv9RnMYX8CHGdH0B0PeE0PaDE1Z2V+/+1p0ZYhXIhTuS7Rz62z2BAILqeMIkTXtfJ1rTyQBPMhMqnsHbDA9H1wKmtFbIwPLdSypniM1ZCRYrjqNkND27t6RCyKtkvi7ekElfsW9Uo8UIq9d6Pa/dIPDNBMaOS8oH+qVZbM9zsMziwdB2SPT+yyRKcQa3PIziC/nsl1Rf2OB10qAwORNcRpuOE21dZ0eY1C5loHm5FE/SwQHQdYRMnjZjECaMIzgVN0P4D0XUAO3FC4zozJk6qYM/Z7R79wJ5Az0B0LUIupWnxkoJm5OqhtQtKXu3ijnBW+SArby6PzqM1bAAgupYwE+BF9oi1WEgLrsjE2TbdyoPw+jHlUi7lJtzM/oHoWsJtdZ5a78LCTWD3YyKTOQgQXQucHq1c4q7Om7XjxBVOPyaBTGb/QHRzMBnTUZmgewea6SBxUgVZO1mqdRM7Aq+A6OaAO6Zj6DBxUoUtln9pj1ORQnyChEq/QHQz4njJx3ddJk7qkEr+bB8rkEt5lo2QUOkPiG4GaDmsw5jOi6LMO02c1MEqH2Dsp1cgOkdMaYC9jZn49eq8PuGuc9DqxNhPT0B0jjiVBlrsqZwVdkJFiuNYXtQPEJ0Dp0YXr3CL35xNXn1BCRXtZq41Ca/M1G/sI+gQzNMxcJqLI5T6cGgLN42T2xf+IoXcsMcpqN2iVO/srN3nxIFgRmDpGDjNxXngUlaRlaJhXg+ZzD6A6BqgTCV3Ls7cquOJSzmN/aW9x/oP2bTwCJnMjoHoajhwb1wzOl46fKuOb9iezPrJcgKZzE6B6CoIrTTApVja+6rR2tECI1i7zoDoKuCuzDMZQY/juMOYEoJSH5o/dx2wdp0B0R2CPmgnt1dIcKzJ76Hau+bBLEBqGv2BtesMiO4QpjQgBHOVQbdzcV3CczNh7boAojuAmYuLoDTAgZVUgbXrBBTHNfRtnj1fvM22cB51m8wD/b3znxefkbjsW1NAwbxtYOk0Li5l2yvzhoRXQkDBvG2SFx2ty3PYwjzzXQO+wortUDBvlWTdS6rD0cSAy+T3vHcN+Mqp0YU/iUzetMfpaGEWmXgn1MSRTyRp6ZzW5RFUGlDlb2MUHMEumJcKbmYLJCc6I7h9SYuEmJ0mGtptEnEiwaFgjpV9LZCU6CYWTn94ztm36qEPYSSZyibsEqPmvkwhNpb/uYK1fXOQlOicpr6tS5mC4CZwbvwx1g5u5lwkI7rl7YvnnNflJVabctinAjdzDpIQnXErheJdXaXEtyH2U7aBrdtxSyJwM2ckCdG5TAyUC2Ww/ZRtwF3H/tLNhPCcibpO51SLM5k7FXQ/ZVuQK54rNapvD7PQHeaZXEP9jk+0onuZqWRauELlZ0IYQu2LU1sXPtDWjOWSG+Ed2ztr3FPQSLTupfPVVRDca7DdTAKJFSeis3ROLiWRSB1uFpzcTEwjsIlKdE4upYYmBp6t3luzRzAFxHftE417SXfFubV3xTcx0AU7q3ceF1LSduimSYSxm4mMZiPRiI7uitM/dHZ7lywFvpGZkPD0P9o1e6yHhKfUI9x5V00UonO6K44ylZk4G+vEQFc4JVbM4Kt8COFNJ3jRURzHvivOEO4yoSGhckAhJE0iNLuZBgiviqBFZ3Z8RLqf0kdMfKfyM/oRFm8OghYd7TbRL9Hup/SRnbXtXWeLJ+UmphJeEaToKFN5cmvlAWu3CVk4uJSt4pTRJCi5snuUuUs0foIUHWUq2cVv9FN2wktXU4nr4y+2BrLyJtzMMcEVx02xVigqgDejPxBPL9393J5AR5zePv+uUhkV0JtcyJ+KMj9LLqo9J0lQls4kToT6zB7roThuoUQM1wM/rt7/loZ+7bGOE1le1G8dS4CgROeSODFx3Mp9ZrAP5qVYek4ufGNWk+Jwsoz2mCTBiM5css9aCqt2TaYScVyvmI1ipVrnxHdKyM2U4zvvYzrKVGay2OQOosa6EDYU+PFdulMJ3ls6p0ylUtchuGEx8Z127e2xhnTrd16LjjKV+oXfU/mGgkvpAeTaKyGafxbj4deHqU0leCs6M6qjSl6mC4kT7yjz8pr+uTT/PKQ8l9oeTS9FZwQn9x+wRnXIwiFx4h30Bcha1U5oi7ewu5hMRtNL0VEcxxIcQUth0eLlJSa+5tXvRJmpZLKZ3onOMY67jiZmv3Go311OJbbzTnSZUhv2sR5yK9Fx4j3s+t1k1UMCsZ03ons5OeCwGBaJkzBg3wg0zmZGv8rPC9FNEicugkPiJCxYNwKNif6OBC9Ex06cQHDB4nQjUORu5uCic0qcCHEDggsTpx0rkbuZg4rOtQBeqByCCxjHifONWK3doKJzqsdR4gT3DQQPe4cmWbtIVzwMJjrHetxVuJXxwL8Dr/w0xqTKYKLLFb8DQbI3T4EQYMd3kSZVBhOdlCXbVUypRSgVXNzM2PoyBxMdO4WskUJ8gk1S8cF1M2P70h1MdG5ruu3AI26DiQr6DNDgsT0mw2CiIya7E5UUX9q3qkmgaJokUv7RPiXDoKIjaAdiufgLfdsxsllxF01Tw7ExIhoGFx3B7kQfE31vXgq4NEbIMmMn3ULAC9ER7IHHiZsJ4QWNS79t8UbxrT1FgTeiI7gDj4jvwobtVtoG99hGuLwSnVM2axzfJbdJKgbysuS1/unPQoydSF6JjnC6Zle7J7jfOjyUlH+wj9UYtzLOlYreic6tfkfg0sGQoC/IxmHlSN3KCd6JjnAcAYGrGQjjDQGSLoFpIuq5SS9FR8wgvOSWloYGK2NJbmXkc5Peio4g4bEXlhLa4qW0tDQkHArhN2Kfm/RadATV76Qs1/RXIOv2Tkwk+AnrMs8ErBzhvegIugmmyNUZ/Rj1N2Cs8Oty6noK2wGCEB1hduMzWsUwBuQX7HYvsnKRlggOE4zoCN7SUrmUZ/IhhOcH/HYvbeUSWR4clOgI3tJS1O58wKXdK6W7BYMTndPS0ki3SYUCK3lCJGTliOBE5zQGlJU34WYOA6xcNcGJjnhZRmgUHuK7IXBJnuhfkrsIJkjREeZCedaFg4jv+sYleZLiPtNgRUc4zd+hN7MX4FY2E7TonOI7jAH1gsusXGpu5YSgRUfw4zsCrmbnZHLVPlWTsJUjghcdwY/vNCgldAbLtUw0eXKQKERHsOM7gi6mgLVrHU5dTkn1ZeqXwUQjOsf4DiNALcNNoMgy+499TJZoREe4jAFhBKhd2KM7ka3Tm4WoREdQfCeF+tAeK8E0QnvwywTpZiwPEp3oCF5/JjKZbcEqEySesTxIlKJj788cF81xN8K8sMoEsHITohQdwd2fqaRAl8occMsEsHKviFZ03GwmYrvZ4TY2U5kAVu4V0YqOYE+aI7abCW5jM8oErxO16AjWpDliO2fcGptRJjhI9KLjTpojtnMDjc2zE73oENt1RCY/sk/VIIEylehFR2CLWLucHq2QK17/72S+5NJubK4iCdER7C1iWYb7EBpQmdiwjzWo9dQbm6tIRnTsLWJCnMh3j3xsn8EhbAKl1sopobYguGqSEZ3TFIL+Joeb+WuW754/ngu1aY+VlKW6YR/BFJIRHeG2RQxu5mGy/ey2fjkxPk2HrNzO2v0f7BFMISnREWYKgbfeAW7mAcjyN96gqpGl+N4+ggqSEx0xXu/AaIiGm/mSLJPNzQNUIhAL1PMKakhSdESxtPeV/pA0pLNRRiCWR6snpJKf2mMNaj2Fq67mJVnRmcQK65ZXCC/PittCivr4tlTXkLHkkazoCEqssNxMEh41RY/T5UlhC+HNozti4Rt7Ag0kLTqC52ZqqClaqEenti48SmVTNJUIVCY4oztfaLeSdT01gOgc3EwLbYouVRLlBE6JQPNDeXTvc/sMGCQvOoJfv7MkMApErjSnRFCU5Tp9cdkjYADRWZy2RI/ZiNXacTtPUAifDYjuAG5bouNdz85yK7VXUErJSEKBw0B0ByA3qRCS4jveOEqE69m5nScmefL+3Sf2CByA6A6xs3rncaHyM1p4+lu8YVN0hLFdLiRrBUNZokQwKxDdFCj9/fTS3c/1h6sxxlOSsfMxEKjzRGTyE3usAZ0n8yDtK5gCuY7588V/68eG+EY9LjK5HrK7ZZInRfZIP9ZPEUjx5bP3716zRzADsHQ1vJzBayKC2l2+L0f6pakmJ2ShduwjmBGIrgHTKsbJaJr4bvGKPQXFqa2VP9MXhz1WM273whTBnEB0HFj9mRopboXWJmbiOMHZeUIglmsDiI4Bdc8rIXgd9BNXMxDhsSYIiFJi0VBLQHRMyry8xq/faVczAOGxJggIEtzaHZQIWgKiY0L7GyWjhPCSAITHWaWnhLoBwbULROfA/tIvtJOfH9NMhOdhVtMO5TYN5mKCoAMgOgec28QILbyF3cXGtqq+4XSeYIKgGyA6R5zaxCxlprxa9UCF8KbOE0wQdAdENwOTNrFCZO9xrJ6OBS/75GLmRUZjO7WFcFlm2/YRtAxENwfG6klJw6/1wjOFcz8ao7kZyyLn3P0AZgGimxMSnn756/hUgxS3ht4oRoVw1s4Tci0xttMZEF0LSFkyYh+7UWwgN9M0NGfFQ/3Y0LyN4dSugehagH0jELmZA02bM5cMadHJq7By3QLRtYBJq7P7M/ufNmdPg9MVVyiEdw5E1xLFsT3qvmdZu77rdpnMPrOP1cCt7A2IriVcCud91u24Vg5uZX9AdC1CmUwpy8ah1z7rdpzbdtBf2S8QXcuwkio9JVSo2brxth0sGeodiK5l2EkVSqh0OIFANblciQeMWblrGEztF4iuA1hJFbJ2HY3+GMExa3KFyjGY2jMQXQeMrZ342h6rmQivxfiOXQTX4LadYYDoOoLXpaIh4bXYl8lpZrZgVm4gILqOYHepjGnlMhL2+gVyKzErNxgQXUe41O3asHbkVnKamQ1Uk8Os3GBAdB3CHv0ZszFPUoXtVmLJ0OBAdB0zHv1RzWvI50iqYKtXWEB0PeDSl+nqZnLdSjQz+wNE1wPsgvkYp6QKy61EM7NXQHQ90YW142cr0czsExBdTzhlMxlJFbiV4QLR9YhzUqVGeHArwwWi6xknN7NCeHArwwai6xmnpMoU4cGtDB9cfzwAlJ1kXas8Qakn2kKeFbtLb+Zy/4EWY/0FjtTmlYmzsHJ+AtENxPL2xXO5UiP9Ezhu36pH2eWvnBtTUQT3GohuQJyFx4Dcymer99bsEXgIYroBcezNbAbZyiCA6AamZeHdQBznPxCdB7Drd3VQ8mShRBwXABCdJ7Drd9PQgtO/rNMVzfYd4DEQnSc4tom9jlLXn166hwVDgQDReYSJ7+iW11K7mlzxkVv5hoLgAgIlA09ZHq0u5VnxL/1YXUC3biWsXFjA0nkKrcardTchuGCBpfMcY/HE/hWViSX7lpCl2CWXEokTAAAAAAAAAAAAABAxQvwfme5YfgD6RjoAAAAASUVORK5CYII=;" parent="1" vertex="1">
          <mxGeometry x="1315.94" y="160" width="39.46" height="40" as="geometry" />
        </mxCell>
        <mxCell id="64QUacxgUUxma8lZwymx-1" value="" style="shape=image;verticalLabelPosition=bottom;labelBackgroundColor=default;verticalAlign=top;aspect=fixed;imageAspect=0;image=data:image/png,iVBORw0KGgoAAAANSUhEUgAAAN0AAADgCAYAAACHIGNpAAAAAXNSR0IArs4c6QAAAARnQU1BAACxjwv8YQUAAAAJcEhZcwAADsMAAA7DAcdvqGQAABGiSURBVHhe7Z0H8F1FFcZRwQIoUgekOIqF3pEiD4IlBAgYhQCRlsQgBIgYAREQpDiCVKkBNEhAQqgSkBIIAv4RAQFFHEGwwVhAioChSPX77i6MSPLPK7tnz73v+82cObt3kv97d/d87967d/fsPEIIIYQQQgghhBBCCCGEEEIIIYQQQgghhBBCCOGVt0UvasrAwMDicAvCZrVarceqg8I1El0NgdBGwI2CbQqj6F6HorsRNhUCnF4dEe6Q6GoExLY23HGwIdWBwbkJth/Ed1eoCi9IdDUBgtsObhqskz57DbY9hHdxqAoPSHQ1AIIbCjcj1LpiKIR3fSyLwkh0zoHg5oO7D7Z8daA7/ghbEcJ7KVRFSd4evfDLgbBeBEf4//l3hAMkOv/sFn2vjIteFEaicwxuLTeAWybUemZZ/L31Y1kURKLzzWrRp2L16EVBJDrfLBF9KlL/PdEFEp1v+KogJfNGLwoi0TkFz1/LwW0Uasl4R/SiIBKdXzjlKzUSnQMkOr8sHX1K9HLcARKdX3LMFvpr9KIgEp1fHok+JXdELwoi0fnl19GnZKnoRUEkOqe0Wq0H4X4Vasl4Z/SiIBKdb94VfSr+Fb0oiETnm9S3g49GLwoi0TllYGBgfriFQy0ZEp0DJDq/pBbcs3hOfCqWRUEkOr8sEH0qdJVzgkTnF95epuTZ6EVhJDq/MDdKSl6IXhRGovNL6snJr0QvCiPR+UWiaygSnV9SvxgXTpDo/JJadMpx6gSJzi+p++bV6EVhJDq/pBaJFrA6QaLzS+qBD4nOCRKdX1K/p5PonCDR+SX12jeJzgkSnV9Sz738T/SiMBKdX7iPeEo0DcwJEp1fUl/pJDonSHR+ST0NTKJzgkTnl9T7DjwfvSiMROeX1H2j0UsnSHR+Sd03r0UvCiPR9Q8SnRMkOiGMkej8knopjrbJcoJE55fUItEurE6Q6PySWnSpJ1CLLpHo/JJ6aY9ypDhBovPLy9GnQqJzgkTnl9Qrx5WuwQkSnV/0Xq2hSHR+Sf3KQCJ2gkTnF6VraCgSnV9S572U6Jwg0fnlPdGnQkt7nCDR+SX1VlkSnRMkOr+kTtfwXPSiMBKdX1KLTptCOkGi88u7o0+FROcEic4vqZPNKu+lEyQ6v6R+T6dpYE6Q6PySeuDjvdGLwkh0fvl39KlYKHpRGInOL89En4rFoheFkej88nj0qZDonCDR+SW16BaJXhRGovPLk9GnYtHoRWEkOr88EX0qNHrpBInOL6kHUlJPoBZdItH5JfW0rdRLhUSXSHR+Sb3oVBmenSDR+SV1yjyJzgkSnV9SJxJKnehIdIlE55fUVyYlm3WCROeX1KLTKgMnSHR+Sb3LTuo07aJLJDq/SHQNRaLzS+rbS4nOCRKdXzSQ0lAkOr+k7hsNpDhBovOLRNdQJDq/aNeehiLRCWGMRCeEMRKdEMZIdH7RM11Dkej8kjqtujaFdIJE55fUO7G+GL0ojETnl9TpFV6IXhRGovOLtj9uKBKdX1LvTyfROUGi80vqZzrtT+cEic4vqfen00CKEyQ6v6ROg671dE6Q6BwyMDAwBm7vUEvGMtGLwigtmyMgNj7HnQEbXR1ICzNGb95qtQZCVZRCVzonQHAbwt0JyyE4sgDsenzOFqEqSiHROQBC2Avu57BVqgP54JX0KnzeqFAVJZDoCgMBfB/u1FAzYyo+d49YFsboma4QCPqV4SbD1qsOlGFvPOOdFsvCCImuABDc5+GmwDxs1DgewuPgjTBCt5fGQHAT4S6DedkZdRK+09hYFgZIdIYguI+AOyHUXDEZ323nWBaZ0e2lEQjqk+EmhJpbxuBW85xYFpmQ6AyA4M6Fq8uVZAKEZz2a2ldIdBmB2JaEmwrbtDpQHw6F8I6MZZEYiS4TENzqcBfCPl4dqB+nQ3h8aS8SI9FlAIL7LBwFt3B1oL5cCOHtEMsiERJdYiA4TrHiLWVTuA62DcQ3K1RFr+iVQUIgOE6tapLgyFDYTJzb0qEqekWiSwSC8qtwk0KtcXCq2gyc4/KhKnpBoksAgpGzTE4MtcbCuaLX4lxXClXRLRJdjyAIucK7xCwTLgXaLxTN+AjsGpzzGqEqukGi6wEE39fhTgk1U05rtVobwY5HmZOnLVkORuGtG6qiUzR62SUIuqPhDgg1U74MsXEN3hvguwyDmw5Lvf/BYDwGG47vckeoinaR6LoAQX4W3G6hZsZ9sNFzCnJ8J856uRLGtAxWPAHbEt/p9lAV7SDRdQiCmyOU1quur4btiOB+KlRnD75bC47CW6g6YMPjsC3w3X4ZqmJuSHQdgKA+HW58qJlxPgJ6p1ieK/iO68Bxvd6y1QEbHoENw/e8J1TFYGggpU0QzFzyYi04Dpi0LTiCf8+MYpyGdm91wAZO7J6ONlohVMVg6Eo3FxBIC8JxlslW1QE7joSADo3ljsH3XgyO8z8/VR2w4QHYpvjefw9VMTskukFA4PKF8HmwNasDduyOwOVgTc/gHC6CGxlqJtyM7z4klsVs0O3lHECwDoe7BWYpuOdgW6cSHMHf2g7uzFAzYRO0HX+oxByQ6GYDgoZpFTgK+P7qgA0PwXhrxs9NCv4mR1uZn8WKndCGXd8aNx3dXv4fCJbj4PYNNTPuho2EOP4UqnnAuX0F7qRQM2E7nNPFsSwiEt3/gKA8H+6LoWYGN/QYgeB8MlTzgnPcFc4q+dAzsPVwbveHqiASHUAgfhiOyV83qg7Y8TMYd9Lhs5wZON/t4aaFWnZuxfl9MpYF6PtnOgQgF2lyxr614H4B46CJqeAIPpOvEr4QatnZEG3M9IMi0teiQzBwwGQGjC93LbkJxivc06FqDz77x3AcoX21OpCXCWjrjl7yN5m+vb1EEHBJTurdTtvhWhif4VxsvI922AzuJ7B5qwP54A/MmjjvP4dq/9J3okOQzQ93KYzLYay5DEG3TSy7AW3CW2wKb77qQD6uwfn3/aaUfXV7ieDi1CjeTpYQHCcuuxMcwfdixi9Oc3ulOpCPzdEHB8dy39I3Vzp0Np/broKtVR2wZTICe1wsuwVtNAKOz3q54YoE/vj1JX1xpYtXuCtgJQR3ah0ER/A9L4f7Uqhl5az4I9iXNF506Fwu6KTgSuT0OBaB7H2nnjeB73s2XO5bQOZZ+WEo9h+NFh0Ex0ETCm6D6oAt+yKAmbioduB7fweOC3ZzMgz943Gvvuw0/Up3CWzjUDTjZdgOCNxaBxS+PzcP4YhmTiZCeEzS21c0VnTozAvgNg81M/4AY2o8zvhoAnyh/ftQzMaJ6CuXo7q5aKTo0Il88W292wwnLm8CwTUmMxbOhS+0LQZWLkKfWd+RFKNxokPnHQJnPdOEy1camaYA58R5qbkHgxiHl6LvSowum9Oo93TotH3gvhdqZhyFwDwolhsL2parwXPPn3wYxjyavw3VZtKYKx2CYhc4a8GN6wfBRXj3kHveJF8lXIm+XDVUm0kjrnToJGY3/mmomcBf5F0guJtDtT9AO3OqGF/B5OYfME4Kb2TK9tpf6RAIy8BxxbcVM2Eb9pvgCM6Z+Vu4aUluloJdh761TB9oRu2vdOgYzqe0mrnO5K8llgO5Am1+Gxw3iswN1/ptiza3mA9qRq2vdOh8ZriyEtxECe4NrKa2MT4vQz+PCdVmUNsrHTpifTimPLDgLdtT9Tto/z3hTgs1EzitrhHTxup8pftu9LnZQ4J7K2gTzs3k5GgrjofQOSe09tTySofG57a/x4ZaVnhLaf0aojagH/ijzec7yxUcfF/IffoscrtkoXaiQ0evAmexI80R6NhvxbKYA7E/eJvPjVas4F54Y9E/tXyJXsfbS4v7+lMkuPaIgT821MzglfU2CJ75O2tHrUSHRj4Qjnuv5eQ8BBLTj4s2QXtx7qn12kFu8zwNMXF4qNaH2txeonH565Z7hoLLbF11AX1UKq0h9w/cGX1Xi+e8Ol3pct9WXifB9Qbaj+/vuB+eNdx/4haIfvlQ9U0tRIfG5EvwnGnPOQJnlWa80UB4fM5iSj9rmJIDoTLw6VD1i3vRxUbkGrlccHLtjgiWZ0NVJICp/Lg5ijWcszkTMcP9+NziWnRoPKbOy/1iegIEl3VfuH4D7fk83NYw7tlQgkmIHbezV7xf6X4A+1AoZoETmJliXSQG7cpUD8ykzb0bSsCkR9NhlrvptoXb0Us0Fl8P5Jz2w4Q7qyI4XgpVkQv05blwO4eaOXyPyMeH34RqeVyKDp3E5ziuW8vJcHQElwUJA9CnnCtbKg8od4TdHv1d6qr7JtzdXqJzFoY7K9SywVTnEpwhaO8D4ErluHwf7BrElnWGuNni8ZnuTBi3I87FAzBOmBbGQHgnwW0Le7E6YM8FEN7usVwMV6JDg/DXcGSoZWMfdL6LDRn7EbQ9B65aMCbmLcEZiLP9Y7kIbkSHhmA+jKNDLRvHodNd3Nf3M+gDTufjy+xSt/jHIN4Oi2VzXAykoAE4efVu2MeqA3m4B529RiwLJ6Dvmejoa6FmDndVMh/c8XKlmwTLKTjSdxtV1AEE/b5wu4WaOftD9N+OZTOKiw4nzQfb3O9wDkPnlpodIeYC+oaTIEo95x2MGPxmLJtQ9PYSJ8uGzj1H7wZ06mdiWTgG8bA4HPOuDK8O2LI74iT3q6qKYqJDA3MZxo2wZasDeXgOthYaM/d2TyIhiI2j4L4RaqZshVjJvSdfmdtLNOqicFx3lVNwZC8Jrn6gzzgFkI8c1lP0piA2V4jlbJiLDifFCahMz517W6QT0HnnxLKoGei7H8Ext+l91QEbFoFRePOGah5MRYeT4Qglbylz7wE+E53GUTFRY9CHfI3EzSKvrw7Y8AkYJ2hnw+yZDoLjYAZzFi5ZHcjHk7B10GG5t3UShiB+psBxOzQrOEH7ZMRR8o0+TUSHBpsIZ7WocCQaihv8i4aBODoGznoK1wsw7kZ7CeLqjOpIj2QVHRqJt6+8VO9YHcjP0WgYPoSLhoKY4vzc3NMF58RDsAMRYxeEandkEx0aZwgch375MGyB3sf1CYgtjmxmfe6aC0ci1g6N5Y7JMpASbwM4YGIluFkw7iIj+gAEPMcG+AP7WHXAnkMQ412/R0x+pcOX4VCv1e3k6+yKjij5yycKgFhbCW4arNQe5Rsj7gZiuW2SXunQCNw+yVpwZ0pw/Qn6/XdwXBJmud/8/9LVnM1kooPgmERofKiZwXVZe4Wi6EcgvMfhuL/F1dUBW4Yi7jteLpZEdPhgbrhhPWr4KGwnNPoroSr6FcTAq7AtUeQ4gjVbRd82PYsOglsRjrkvrGFatQdjWQgyCmYdEx3veZ/iSsf3JtaMguBuiGUhKhATvPvZFfZadcCG9XHh+WAst0VPosOHcfIyT9KSPdG4HLES4i0gNrgrrHVMdnS16/VKx5EjS7jvAFM7CDFHECN8j8ednqzYLPq26FV0K0dvAQV3aiwLMSiIFW5fPTnUsrN69G3Rq+i4/sgCpsSW4ERHIGbGwVm8Slgi+rboVXScgZ2Th2GboPFK7O4pmgE3qeQqgZx0tMK9V9HlXLN2Mwx6a5XYXFA0BMQP5+V+DnZndSAPf4m+LXoVHUeKcsBUC0NgvNIJ0ROIoyfg+PL81upAejrSQU+iw8ncC8epWCkZjb+rVAsiKYipf8JxlDHHFmyXR98WvV7pSKrZKBQw2qbFZflCJAexNQvGeZp8pZCKAfzNGbHcFj2LDh84Fe7iUOuaKfg7q8FuiXUhsoE4Y64VLrBOQccrDVJc6chY2O2h2DHT0QijY1kIExBzB8GNCbWu4bvjjgf6kogOH8wRIt4vX1EdaJ+z8X9HxLIQpiD2mBd1bVhHt4eR8fj/Xb07zrFynBuCcCDko9WB2XMXjNsUXRiqQpQFcTsMjlt28ZlvMJgo+XDELmO4K3ImJuJm/UwUSvFx/7mnYffDbsIXzjV0K0RPIG7XhePrBWYg/wCMKxb+BuN7visRu/fACyGEEEIIIYQQQgghhBBCCCGEEEIIIYQQQgghhBBCCCHqxjzz/BfG6hp3srScuAAAAABJRU5ErkJggg==;" vertex="1" parent="1">
          <mxGeometry x="-419.46" y="170.20999999999998" width="39.46" height="40" as="geometry" />
        </mxCell>
        <mxCell id="64QUacxgUUxma8lZwymx-2" value="" style="shape=image;verticalLabelPosition=bottom;labelBackgroundColor=default;verticalAlign=top;aspect=fixed;imageAspect=0;image=data:image/png,iVBORw0KGgoAAAANSUhEUgAAAN0AAADgCAYAAACHIGNpAAAAAXNSR0IArs4c6QAAAARnQU1BAACxjwv8YQUAAAAJcEhZcwAADsMAAA7DAcdvqGQAABeqSURBVHhe7Z0HtF1Fucd3GiGkUxMMSSChCaFLES8gRbqAdCGoCPqeNF9YNIUHCIi+sHyPrqKPJiBd6SWAcEUEdD2KhB6NKYQ0Qrlp93Lv+//3TCTGy737nP3NnL3P+f/W+tY3M5CsnNnz3zN7yjeJEEIIIYQQQgghhBBCCCGEEEIIIYQQQgghhMhMD++FEKC5uXkzuPVg/WF9vfWBLYC92tTU9Dx8LiQ60fBAaGPhToIdAVuTZV3wDux62CUQ4Ly0pEIkOtHQQHCnw/3Y5SpiPuxkCO8ml82ORCcaFgjup3DfdrmqORXC+4lPZ0KiEw0JBHcR3PdcLjdHQHi3+nS3SHSi4YDgvgj3uMuZMAs2FsJrcdmu6em9EI3EGd5bMQw2wSW7R6ITDQV6uQ3h9nQ5U472vlskOtFofNd7azaAoLn00C0SnWgYIIpT4P7N5YLAXrRbJDrREEBwHFL+j8sFY5D3XSLRiboHgtsK7lcuF5SF3neJRCfqGghuE7i7YaunBWF5y/su0TqdqFu84O6DjU4LwjK9qalpHZ/uEvV0oi6B4DipcT8shuDILd53i0Qn6g4IbiTcb2Cj0oLwLIFd6pLdI9GJugKC4wzinbCN0oI4cNPzDJ/uFolO1A0Q3Mpwd8G2SQviMBGCu9KnM6GJFFEXQHCrwN0L2zUtiMPpENxEn86MejpReiC4teEmwWIJ7mbYltUIjqinE6UGguMsJdfhNk4LwnMCxHaVT1eFejpRWiC4zeEegsUS3OV5BUfU04lSAsFtAfcAbHhaEJ5HIbgv+XQu1NOJ0gHBjYPjpEkswU2DfcMl8yPRiVIBwY2B48L3iLQgPIthR6OXy7wO1x0SnSgNEBzDIlBwDAYbi4MguKd82gSJTpQCCG4luNthm6YFcTgYguNEjSkSnSg8EBwn/Li16wtpQRwoOO5uMUeiE4UGguNdAg/C9ksL4nBIKMERiU4UFghuMByHdyGid30a4yE49qrBkOhEIYHgeJHHw7Bd0oI4nATBBQ/rINGJwgHBcZaSB1C3SwviwM3LV/h0ULQjRRQKCG4NOA4pGUwoFqdBcJf4dHAkOlEY/DccJ012SAviUPGtO3mR6EQhgOA4S8keLuY3HO+Xu9yno6FvOlEUeDwn9qRJdMERiU7UHPRynKLf2+WiwCFllEmTzpDoRE2B4Hh98FdcLgrnx/6GWxF904maAcHdCJf5iikDroTgTvTpmiHRiZoAwXER+iiXi8JNEFxMgX8qEp2IDgTHwD5HulwUbofgDvPpmiPRiahAcNxIfJDLReEeCO4Any4EEp2IAsTG83A8gBpzlvJBCG4fny4Mmr0UwYHgBsBx4Tum4BgHs1A93DIkOhEUCG4IHKN2fTEtiMNjsP3Qy7W6bLHQ8FIEA4Lj8RwOKWPupXwaticE1+KyxUOiE0GA4JZdV7VlWhCHF2G7Q3BzXbaYSHTCHAiO0bp4A2qsyMvk77DdILhMVxDXEn3TCVMguLFw/IaLKbgFMAYSKrzgiHo6YQYE9xk4zhrGvJDxY9geENwTLlt81NMJEyA4LgvEvgG1DbZvmQRHJDphBQUXM6YJw51TcAxeVCokOpEb9HI/hzO50SYj/IbbC4J7xGXLhUQncgHBTYA73uWi8A6M63BPumz50ESKqBoIjtusuBYXi7dhB0Jwf3HZciLRiaqA4LaBexw2MC0IzxswfsOVYlmgKzS8FBUDwXEt7jZYLMFRaPvXg+CIRCcqAoLjpYy8BXXdtCA8U2AUHHu6ukCiE5mB4D4LxyM6sdbiXoHtA8G95rL1gb7pRCYgOF6sfw9snbQgPH+AcWvXLJetH9TTiW6B4LaFY7jzWILj5SHc2lV3giPq6USXQHAMd8BJk/5pQXhugNi+5tN1iXo68alAcMfCsdeJJbhr6l1wRKITnQLBfR/uly4XhRshuG/5dF2j4aX4FyA4xvk/weWiMAmC28On6x6JTvwDiI3tgacFYsalfBW2E0RX6BALljSk6NC4NoDjIu/qMN78uRqsF6wDxjphujesj/csb4ctgr3njY1kDux9GIPgzEfDYb6UoE6Gwt0B2zUtiMNHMFRb0wsu2xjUvejQmLhV6QveeN6L1+qygYWAopwBmwpjzA7upuBOCtpkNK6l8IUDdcQT37+FbZ0WxIN7KRnaoaGoK9Gh8YyAo6gYgYqLuZvCuE+wKPA4yu/o0dgKcdoZdcbtXBTcuLQgHt9EHfyvTzcUpRcdGg3Ftb+3z7GsJHwAexT25MCBg57ZYovN/5SWRgR1x2E2d5lsmBbEI/o930WitKJDg9kX7lRYzMjB5vQfMCBZtLAtefrpl95bf/3hj62++kAel7kXjXK6+z/CgPrjKIA9HMPlxeQH+G3n+nRDUjrRobE0wf0nbPe0oMT06bMSRDcwefyxPycjR66WQHD+v6TwcOjNaKC3u6wdqEMOwSk4Dsdj8hP8Hr4oG5pSiQ6N5Ry4H7hc+RkydGgy+ZWpydKlS5LRozmJ2imcmLmGhgY7My3JAepwZzguC3DGNiaFuAW1CJRCdGgo3GjLhrdnWlAH9O7dO+m3ysDkkYefS7bddkzSq1emzUHXwX6Bxst4/RWDeuR3LwXHpZCY/BT/5n/36Yan8KJDQ+E0/y2wWIcmo9C/f/9k1qz3k3ffnZuMHTvMl2aG331XoCHf7bLdg3rk1b+84zs2E/HvPN2nBSi06NBQDoT7NaxvWlBHDB4yJHnxhSkQX+9kjTUG+dKKeR52Pho1NyV/KqhH9jJXuVxUzsa/7SKfFp7CbnhGQ+HmV77J605wpFevXklLy+KkXz9eUFo1XCK5D3V1nsv+K/hvnLioheCOkeA6p5CiQ0P5EdzPXK4+6dGjR9Le3p707Gky2Dj3sstuuMyn/4Hv4S5xuWj8Dca9lLUYypaCQokOjWQojPv/znAl9QsFt9JKvZPWVt5/kZ/W1vaTXnr5lRt8lnV5DFzsHo43oO4IwTW7rOiMwnzToZFwkZszlNyIXPcMGjQ4ef316UlHR1uy9tr5toIuWdKavPyX6cnee2+XzJk9mz0e9zMygFBM7oTYDvFp0QWF6OkguCPhOCPXEIIjS1uXJmuuNTSZP58b7fPBv2OtNYcmS5em+6lPhnG0EJNrJbjs1Fx0EBwbyc0u1zgsWbw4GT58taStrT354IOFvrQ6Zs1akIwcNSz9Oz28tioWl0FwDOsgMlJT0UFw3KFwqcs1Fh0dHcnCloXJhhuOSqZOrf785rRp85KhQwfDBiSLPxFdLC6A4E7xaZGRmonOf+hf7nKNyUcffZiMWGf1ZMiQQclbb1UebW727A+SOXM+TDbbfEzSgr8rMhMgOO6BFRXCE9LRgeD2g2NYt4anrbUtWW/MOsnMmfMgogXJ4MGrZNoSNmPGfPyZ95Ltd9gk6dmjI1m0iOdno3EsBHe1T4sKiS46CG4HuPtgsff/FZL29o+T1tbWZMzYEUlLy5Jk8uSpGHomSd++fZLevf/58bS3dyRz536YvP32u0mPnr2S7bffBALtwJ/LPxlTAYdAcA33DW5J1CUDCG4k3FOwUWlB7eGd1c/BJsOmwVphjIXCci6gMU9j18NYKat645EAxlfhWZzBMJ5Oz7W1hDtUBg4clCxe0pZMmTIzmTljTrpwTvH1wFPiet5HHy1Ohg1bNRk1eniy1lpD0+HpcpMnoWE9HADBMdKzyEE00UFw3M7FZYHPpwXxmQd7E/Y6jKe0uW/xeTQiiiw3+H3ckM2T2BvDNoNtDuO5tYpYqW/fpN/K/VLf0rIoWbhwSTrpQvENGtQ/+fjjtnTCZNHCfDOeFcKulILj8xM5iSk6hgXg0ZKYXAnjm/kFNBieS4sGfi/3RbIXrRoe/+mJYSR7Ou5gaWtrSwUYGW7rOgz1x5eUMCCK6NAAGYDmGy4Xhfmwr6KhPOyytQG/m3FA/sPlSglHBIeiHik8YURw0aHhcaf591wuCvw+OxwNpRD3UuP3c0vW3i5XKhi57CDUI2N8CkOCrtOhwR0HF1NwDGu3S1EE5ynj8gh7OAkuEMF6OgiOJ77/6HJRuA6NJOYQtiJQH9+BOwsWOxhQpfwVtjPqkrO5IgBBRIcGxgUmhspmmLcYlOaEMurmULi9YIz3wsjKRYI7plGVTbkmgETXhBIdZw35Zg8NJ0yORyO5y2XLBeqJN5yyrrZJC2rPkahLhscQATEXHRrSYXC3ulxQ/gzjVDbvCyg1qDPeA1frnfrnoS7P92kREFPRofHwSAlnD0PfTc3hD++kZmjyugB1dzbcBS4XndtQl4f7tAiM9ewl43GEFhx7toPrSXAEv+dCuFpMBHGmsu6vHC4SZj0d3tQMtxB6mxD3RKJ9NsWcFY0K6pH3wzHWSYxJFm6B2wH1qYmTiFj2dDHCnR9Rz4Ij+H18cfEuvWfSgrDw+SvUeWRMRIe381fh2FBCchwaJEOC1z34ndx2xZHDvWlBWMbj+Y33aREBk+ElHhq/C0Le4nkaGmLs+I2FAHXL6M37uFwweGx9XdRx9HgPjUjung6N4ii4kIK7uFEF5+ESTOgd/rxM4UyXFKGxGF4e730IrofgYu7dLBz4/S1wnM4PvdP/LLxAK77JRFROLtHhIXEnBe87C8GzaHBf9+mGBvXA/ZDcPhZymYQn3ye4pAhJ3p4ulCh4UjNkD1o6ILz0bJvLBeMUvEgZhkIEpGrR4eEw/EKoRdWT0Mhe9mnhQZ08Asd75kLB3u4klxShyNPTMW5liEjCvOSem4BFJ6BuboI7zeWCcCJeqIrUFpA8ouOsWgjq/saevEB4nM29wuXMYbSzGCdEGpaqRIc34Xpwu7ucKRehQb3q06ILUE8cBnK4GQIuA4lAVNvThVisZYhiBvIR2eFkU4gZzc/hxcpoZiIA1YpuN+8tuRpvbx5KFRlBff0dLlS0MR31CUSRRHed96ICIDyGN3zW5UzZ13thTMWiw7BjRziGE7fkUTQeLRFUT4htchvhWTNStTCmmp5uF+8tud57UQV4YfHmVS6eW1PGeJ2FpxrRWW/7Ypx8BcPJT4irqxixTBhT0dEeDDcoUs4y5rqhZgUUn8MIPJ/34Qa5nBlD8Hz49wojKu3peFDVUnDkMe9FfkKEIuRhWmFIpaILcc3V77wX+ZnkvSVN3gsjKhUdb1G1ZAqGLm/4tMhPiFGDRGdMpaKz3qXAm2GEEXiBMeyC9Zodd6f092lhQGbRoeJHww13OTMkOntC3Mmn9TpDKunptvTekqe9F3aEEN0474UBlYjO+m03HcOht3xaGIE6/QPcXJczQ6IzpBLR8eJ6SxRVOBzWs5gbeC8MqER01m+7ENuWhIO9nSUbei8MyCS65uZmbnAe63Jm8NJIEQbrOJmj0AasN0U0LFl7uo29t+RF74U9Ie5cH+O9yEmtRDcLH/wzfVoYg7rlJnLrO8O5ZCQMyCq6jby34iXvRTje9t6Kkd6LnNRKdLytVYTF+lpoic6IrKKzHs8r4ld4pnpvhSI/G5FVdNbj+de8F+Gw/qZbzXuRk25F1+xi21vHRJHowmO9K2Wo9yInWXo6Rvy15IOmpqbZPi3CscB7KyQ6I7KIzrqXs/7WEJ3DsBqWSHRG1EJ0H3ovwmJ9lXGIy2IakiyiM7mXfDmWeC/C0uq9FRKdEVlE1+69FdYiFqJUZBEdb0W1pLf3IizWd8xZfyM2LFlEZ/1twBtcRXish4MSnRG1EJ2C3MRhbe+taPFe5CSL6Kwr2zoCseicrb23gtdyCQOyiM760sEh3ouwHOC9FdYbqBuWWohuQHNzcz+fFgFA/W4Ht4nLmfFX70VOuhVdU1MT19Wshbeu9yIMX/beEu2XNSJLT0fmeG+FdbwV8c+EEN0z3oucZBXddO+t+Kz3whgMLTmBsqnLmfEqRjwM2S4MyCq6N723wvp7Q3zCwd5b8oT3woCsorOOxGwduFZ8wiHeW3KP98KArKKzDq8wDsMgnUQ2BnXKa63Wdzkz5mNoGeJ+hIYlq+he8d6SvbwXdoSYQLnDe2FEJtHhTcdwbtbLBl/zXtgRQnS3eS+MyNrTEeuIzHtgOLS3T4ucoC63grO+6GMqXri6E96YSkQX4u6BM70X+dnXe0vu9F4YUonoQlzIvxPe0ON9WuRjf+8tkegCUInoQs1gneO9qBK8uHiVlfV98FwQt75yS4DMosMD4BGfR1zOlPXRaDTMzEeIXu433gtjKunpSKjhxtkQnsJ2V0+I77l7vRfGVCq662G8hskaniY/yyVFJeBltQbcLi5nxt8wstEG50BUJDo8CB7zofBCMAENaAufFtkJscngfu9FACrt6cjl3odgovciOyHWOjW0DEjFokNv9zrc1S5nzu7o7S72aZGNL3lvxVw8Y+21DEg1PR0J2SOdCeGd6NOiC1BP3OBsvXFcJwoCU5Xo8CZkvIyQPdLlaFDam9k9IZYKHvBeBKLano5cCAt55dV1EN7hPi06x1p0DKEv0QWmatGht1sId4HLBePXEN5XfFosB+rl83DWd8E/hOeqSM6BydPTUXhXwP2fywXjTjSwA31afMJh3lvykPciILlE5/mh9yG5W994n4C64OUgX3c5U0Js8xMrkFt06O14sjjGw+I33vd9utH5LmywS5oxGc+Sy0EiMBY9HTnX+9BcCOH90qcbEvx+7lE9w+VM0VJBJExEhzfkH+GudLngHIuG93uY9SnpsvDfsBBBnbQLJRJWPR2ZAIs1PNkR9hyEFyLcXGHB7+XE1dEuZ8qbeHHq7FwkzESHh7YU7mSXiwK/aW5HQ6z7s3j4jRvBJiF5gisxR8GHImLZ01F4nFCJPdlxMRrkz3y67sBv+xYcg0LtlhaE4XbvRQSCXLqPhnIdXOwpfq4xjYfw57psuUEdcgjNF1joiGlPoM529WkRAdOebhl4iFxD4nAoJjxX9ic0Vutd91HBv5+hCXlC//ewGCEKr/VeRCJIT0fQcHjNMYVnHTAnCz+CnQ3xf+yyxQZ1xVuMDoUdAbPe2tUVPCGuuwIjE0x0BI1pBByHfbW4pYd3ZPPc3w1oWDPTkgKBumGYBYqMm7o5lKwFJ6BurvJpEYmgoiNoXGPgKLxaXgT5IOw+GhpZTS+sR31w+HsM7Ki0oHYwxJ7uCawBwUVH0NA2huORkdFpQW1hpOpHYQwXPgkNL/gQFL+fJwJ4DIeblNdjWQE4Cr/9Zp8WEYkiOoKGNw6OwuOQsyi0wp6CNcO4q+Y5NMT34HOB37oq3M4w9mr7wEbCisQd+J38hhQ1IJroCBojv+24QTrmZEGlcFcNe8M3YNNg78A+hDHYLg95dsC4y5+2MqwfjCIbBmMvth2syFHNFsPGQXTWF32KjEQVHYHwPgNH4W2fFojYcC3zVz4takCQdbquwAOfAcehl3ZBxOfHElztid7TLQ96vf+CO83lRGCuh+BCHHwVFVJT0REI7zi4a1xOBOJaCO5YnxY1JvrwckXQGH5BB9Op5TD8XIIrFjUXHUGj4D5DzvrdlRYIK05F3X7bp0VBqPnwckUw3LwE7lSXE1XC5Y7vQHC6L7yAFE50BMLjYdhLXU5UCL+PT4bguB4nCkghRUcgvC/D8XuPG4NF93BP6VkQm7Z2FZxCfNN1BhoPo1NtA9MNMt3DUcFGElw5KGxPtzzo9Rji7zyXE8txE2wixMZwDqIklEJ0BMLjtjFOstTq7FmR4GnvqyG2511WlInSiG4ZEB8X08+BFW3nfmhehXH4yEO5NT0TKPJROtERCI/forw48njYpiyrU+bAuEf1NgjtybRElJ5Sim55/Cwnwx4w8CyP29QDPIVxC4SmzQJ1SOlFtwyIbxU43mW3L2w/2ABYmXgJdivsRoiN5/hEnVI3olsRiHAPuGVW1EOlr8EYu+UuCO2ZtETUPXUruuWBABkiggFVd4LxLF8tgyTxzoD7YQ9AaDyhLhqMhhDdingRcoM1Y3JuDdsKxpAL1rTBnvXGWCxPQmgL4EUD05Ci6wwIcR04Xr/FXnA4jDFPuAWtP4zfh4yHQlhnFBODGtF49zrv6WZAo3mw2bApsLdhr0BkjKsihBBCCCGEEEIIIYQQQgghhBBCCNEoJMn/AyNW70kA8Tv6AAAAAElFTkSuQmCC;" vertex="1" parent="1">
          <mxGeometry x="-459.46" y="170.20999999999998" width="39.46" height="40" as="geometry" />
        </mxCell>
        <mxCell id="64QUacxgUUxma8lZwymx-3" value="" style="rounded=0;whiteSpace=wrap;html=1;fillColor=none;dashed=1;dashPattern=1 4;" vertex="1" parent="1">
          <mxGeometry x="-200" y="320" width="120" height="120" as="geometry" />
        </mxCell>
        <mxCell id="64QUacxgUUxma8lZwymx-6" value="Cycle" style="rounded=0;whiteSpace=wrap;html=1;" vertex="1" parent="1">
          <mxGeometry x="-180" y="340" width="80" height="80" as="geometry" />
        </mxCell>
        <mxCell id="64QUacxgUUxma8lZwymx-7" value="B_Cycle" style="text;html=1;align=left;verticalAlign=middle;whiteSpace=wrap;rounded=0;" vertex="1" parent="1">
          <mxGeometry x="-200" y="300" width="60" height="20" as="geometry" />
        </mxCell>
      </root>
    </mxGraphModel>
  </diagram>
  <diagram name="B_Start" id="SvHIp7killZ1tswcDbcB">
    <mxGraphModel dx="1270" dy="677" grid="1" gridSize="10" guides="1" tooltips="1" connect="1" arrows="1" fold="1" page="1" pageScale="1" pageWidth="850" pageHeight="1100" math="0" shadow="0">
      <root>
        <mxCell id="0" />
        <mxCell id="1" parent="0" />
        <mxCell id="-GwoCMBWm2h0HPMjPAiY-12" style="edgeStyle=orthogonalEdgeStyle;rounded=0;orthogonalLoop=1;jettySize=auto;html=1;" parent="1" source="c7LGJpW5jNY3y_xeGe3e-4" target="-GwoCMBWm2h0HPMjPAiY-9" edge="1">
          <mxGeometry relative="1" as="geometry" />
        </mxCell>
        <mxCell id="c7LGJpW5jNY3y_xeGe3e-4" value="" style="rounded=0;whiteSpace=wrap;html=1;fillColor=none;dashed=1;dashPattern=1 4;" parent="1" vertex="1">
          <mxGeometry x="180" y="340" width="160" height="80" as="geometry" />
        </mxCell>
        <mxCell id="c7LGJpW5jNY3y_xeGe3e-1" value="" style="ellipse;whiteSpace=wrap;html=1;aspect=fixed;fillColor=#1ba1e2;strokeColor=#006EAF;fontColor=#ffffff;" parent="1" vertex="1">
          <mxGeometry x="200" y="360" width="40" height="40" as="geometry" />
        </mxCell>
        <mxCell id="c7LGJpW5jNY3y_xeGe3e-2" value="" style="ellipse;whiteSpace=wrap;html=1;aspect=fixed;fillColor=#1ba1e2;strokeColor=#006EAF;fontColor=#ffffff;" parent="1" vertex="1">
          <mxGeometry x="280" y="360" width="40" height="40" as="geometry" />
        </mxCell>
        <mxCell id="c7LGJpW5jNY3y_xeGe3e-3" value="Intro" style="text;html=1;align=left;verticalAlign=middle;whiteSpace=wrap;rounded=0;" parent="1" vertex="1">
          <mxGeometry x="180" y="320" width="60" height="20" as="geometry" />
        </mxCell>
        <mxCell id="-GwoCMBWm2h0HPMjPAiY-18" style="edgeStyle=orthogonalEdgeStyle;rounded=0;orthogonalLoop=1;jettySize=auto;html=1;" parent="1" source="c7LGJpW5jNY3y_xeGe3e-5" target="-GwoCMBWm2h0HPMjPAiY-14" edge="1">
          <mxGeometry relative="1" as="geometry" />
        </mxCell>
        <mxCell id="c7LGJpW5jNY3y_xeGe3e-5" value="" style="rounded=0;whiteSpace=wrap;html=1;fillColor=none;dashed=1;dashPattern=1 4;" parent="1" vertex="1">
          <mxGeometry x="180" y="460" width="240" height="80" as="geometry" />
        </mxCell>
        <mxCell id="c7LGJpW5jNY3y_xeGe3e-6" value="" style="ellipse;whiteSpace=wrap;html=1;aspect=fixed;fillColor=#1ba1e2;strokeColor=#006EAF;fontColor=#ffffff;" parent="1" vertex="1">
          <mxGeometry x="200" y="480" width="40" height="40" as="geometry" />
        </mxCell>
        <mxCell id="c7LGJpW5jNY3y_xeGe3e-9" value="" style="ellipse;whiteSpace=wrap;html=1;aspect=fixed;fillColor=#1ba1e2;strokeColor=#006EAF;fontColor=#ffffff;" parent="1" vertex="1">
          <mxGeometry x="280" y="480" width="40" height="40" as="geometry" />
        </mxCell>
        <mxCell id="c7LGJpW5jNY3y_xeGe3e-11" value="" style="ellipse;whiteSpace=wrap;html=1;aspect=fixed;fillColor=#1ba1e2;strokeColor=#006EAF;fontColor=#ffffff;" parent="1" vertex="1">
          <mxGeometry x="360" y="480" width="40" height="40" as="geometry" />
        </mxCell>
        <mxCell id="c7LGJpW5jNY3y_xeGe3e-12" value="Connect3" style="text;html=1;align=left;verticalAlign=middle;whiteSpace=wrap;rounded=0;" parent="1" vertex="1">
          <mxGeometry x="180" y="440" width="60" height="20" as="geometry" />
        </mxCell>
        <mxCell id="-GwoCMBWm2h0HPMjPAiY-26" style="edgeStyle=orthogonalEdgeStyle;rounded=0;orthogonalLoop=1;jettySize=auto;html=1;" parent="1" source="-GwoCMBWm2h0HPMjPAiY-1" target="-GwoCMBWm2h0HPMjPAiY-21" edge="1">
          <mxGeometry relative="1" as="geometry" />
        </mxCell>
        <mxCell id="-GwoCMBWm2h0HPMjPAiY-1" value="" style="rounded=0;whiteSpace=wrap;html=1;fillColor=none;dashed=1;dashPattern=1 4;" parent="1" vertex="1">
          <mxGeometry x="180" y="580" width="160" height="160" as="geometry" />
        </mxCell>
        <mxCell id="-GwoCMBWm2h0HPMjPAiY-2" value="" style="ellipse;whiteSpace=wrap;html=1;aspect=fixed;fillColor=#1ba1e2;strokeColor=#006EAF;fontColor=#ffffff;" parent="1" vertex="1">
          <mxGeometry x="200" y="600" width="40" height="40" as="geometry" />
        </mxCell>
        <mxCell id="-GwoCMBWm2h0HPMjPAiY-3" value="" style="ellipse;whiteSpace=wrap;html=1;aspect=fixed;fillColor=#1ba1e2;strokeColor=#006EAF;fontColor=#ffffff;" parent="1" vertex="1">
          <mxGeometry x="280" y="600" width="40" height="40" as="geometry" />
        </mxCell>
        <mxCell id="-GwoCMBWm2h0HPMjPAiY-4" value="Connect4" style="text;html=1;align=left;verticalAlign=middle;whiteSpace=wrap;rounded=0;" parent="1" vertex="1">
          <mxGeometry x="180" y="560" width="90" height="20" as="geometry" />
        </mxCell>
        <mxCell id="-GwoCMBWm2h0HPMjPAiY-5" value="" style="ellipse;whiteSpace=wrap;html=1;aspect=fixed;fillColor=#1ba1e2;strokeColor=#006EAF;fontColor=#ffffff;" parent="1" vertex="1">
          <mxGeometry x="200" y="680" width="40" height="40" as="geometry" />
        </mxCell>
        <mxCell id="-GwoCMBWm2h0HPMjPAiY-8" value="" style="ellipse;whiteSpace=wrap;html=1;aspect=fixed;fillColor=#1ba1e2;strokeColor=#006EAF;fontColor=#ffffff;" parent="1" vertex="1">
          <mxGeometry x="280" y="680" width="40" height="40" as="geometry" />
        </mxCell>
        <mxCell id="-GwoCMBWm2h0HPMjPAiY-9" value="" style="rounded=0;whiteSpace=wrap;html=1;fillColor=none;dashed=1;dashPattern=1 4;" parent="1" vertex="1">
          <mxGeometry x="380" y="340" width="160" height="80" as="geometry" />
        </mxCell>
        <mxCell id="-GwoCMBWm2h0HPMjPAiY-13" style="edgeStyle=orthogonalEdgeStyle;rounded=0;orthogonalLoop=1;jettySize=auto;html=1;strokeColor=default;endArrow=none;endFill=0;" parent="1" source="-GwoCMBWm2h0HPMjPAiY-10" target="-GwoCMBWm2h0HPMjPAiY-11" edge="1">
          <mxGeometry relative="1" as="geometry" />
        </mxCell>
        <mxCell id="-GwoCMBWm2h0HPMjPAiY-10" value="" style="ellipse;whiteSpace=wrap;html=1;aspect=fixed;fillColor=#1ba1e2;strokeColor=#006EAF;fontColor=#ffffff;" parent="1" vertex="1">
          <mxGeometry x="400" y="360" width="40" height="40" as="geometry" />
        </mxCell>
        <mxCell id="-GwoCMBWm2h0HPMjPAiY-11" value="" style="ellipse;whiteSpace=wrap;html=1;aspect=fixed;fillColor=#1ba1e2;strokeColor=#006EAF;fontColor=#ffffff;" parent="1" vertex="1">
          <mxGeometry x="480" y="360" width="40" height="40" as="geometry" />
        </mxCell>
        <mxCell id="-GwoCMBWm2h0HPMjPAiY-14" value="" style="rounded=0;whiteSpace=wrap;html=1;fillColor=none;dashed=1;dashPattern=1 4;" parent="1" vertex="1">
          <mxGeometry x="460" y="460" width="240" height="80" as="geometry" />
        </mxCell>
        <mxCell id="-GwoCMBWm2h0HPMjPAiY-19" style="edgeStyle=orthogonalEdgeStyle;rounded=0;orthogonalLoop=1;jettySize=auto;html=1;endArrow=none;endFill=0;" parent="1" source="-GwoCMBWm2h0HPMjPAiY-15" target="-GwoCMBWm2h0HPMjPAiY-16" edge="1">
          <mxGeometry relative="1" as="geometry" />
        </mxCell>
        <mxCell id="-GwoCMBWm2h0HPMjPAiY-15" value="" style="ellipse;whiteSpace=wrap;html=1;aspect=fixed;fillColor=#1ba1e2;strokeColor=#006EAF;fontColor=#ffffff;" parent="1" vertex="1">
          <mxGeometry x="480" y="480" width="40" height="40" as="geometry" />
        </mxCell>
        <mxCell id="-GwoCMBWm2h0HPMjPAiY-20" style="edgeStyle=orthogonalEdgeStyle;rounded=0;orthogonalLoop=1;jettySize=auto;html=1;endArrow=none;endFill=0;" parent="1" source="-GwoCMBWm2h0HPMjPAiY-16" target="-GwoCMBWm2h0HPMjPAiY-17" edge="1">
          <mxGeometry relative="1" as="geometry" />
        </mxCell>
        <mxCell id="-GwoCMBWm2h0HPMjPAiY-16" value="" style="ellipse;whiteSpace=wrap;html=1;aspect=fixed;fillColor=#1ba1e2;strokeColor=#006EAF;fontColor=#ffffff;" parent="1" vertex="1">
          <mxGeometry x="560" y="480" width="40" height="40" as="geometry" />
        </mxCell>
        <mxCell id="-GwoCMBWm2h0HPMjPAiY-17" value="" style="ellipse;whiteSpace=wrap;html=1;aspect=fixed;fillColor=#1ba1e2;strokeColor=#006EAF;fontColor=#ffffff;" parent="1" vertex="1">
          <mxGeometry x="640" y="480" width="40" height="40" as="geometry" />
        </mxCell>
        <mxCell id="-GwoCMBWm2h0HPMjPAiY-21" value="" style="rounded=0;whiteSpace=wrap;html=1;fillColor=none;dashed=1;dashPattern=1 4;" parent="1" vertex="1">
          <mxGeometry x="380" y="580" width="160" height="160" as="geometry" />
        </mxCell>
        <mxCell id="-GwoCMBWm2h0HPMjPAiY-29" style="edgeStyle=orthogonalEdgeStyle;rounded=0;orthogonalLoop=1;jettySize=auto;html=1;endArrow=none;endFill=0;" parent="1" source="-GwoCMBWm2h0HPMjPAiY-22" target="-GwoCMBWm2h0HPMjPAiY-23" edge="1">
          <mxGeometry relative="1" as="geometry" />
        </mxCell>
        <mxCell id="-GwoCMBWm2h0HPMjPAiY-30" style="edgeStyle=orthogonalEdgeStyle;rounded=0;orthogonalLoop=1;jettySize=auto;html=1;endArrow=none;endFill=0;" parent="1" source="-GwoCMBWm2h0HPMjPAiY-22" target="-GwoCMBWm2h0HPMjPAiY-24" edge="1">
          <mxGeometry relative="1" as="geometry" />
        </mxCell>
        <mxCell id="-GwoCMBWm2h0HPMjPAiY-22" value="" style="ellipse;whiteSpace=wrap;html=1;aspect=fixed;fillColor=#1ba1e2;strokeColor=#006EAF;fontColor=#ffffff;" parent="1" vertex="1">
          <mxGeometry x="400" y="600" width="40" height="40" as="geometry" />
        </mxCell>
        <mxCell id="-GwoCMBWm2h0HPMjPAiY-23" value="" style="ellipse;whiteSpace=wrap;html=1;aspect=fixed;fillColor=#1ba1e2;strokeColor=#006EAF;fontColor=#ffffff;" parent="1" vertex="1">
          <mxGeometry x="480" y="600" width="40" height="40" as="geometry" />
        </mxCell>
        <mxCell id="-GwoCMBWm2h0HPMjPAiY-31" style="edgeStyle=orthogonalEdgeStyle;rounded=0;orthogonalLoop=1;jettySize=auto;html=1;endArrow=none;endFill=0;" parent="1" source="-GwoCMBWm2h0HPMjPAiY-24" target="-GwoCMBWm2h0HPMjPAiY-25" edge="1">
          <mxGeometry relative="1" as="geometry" />
        </mxCell>
        <mxCell id="-GwoCMBWm2h0HPMjPAiY-24" value="" style="ellipse;whiteSpace=wrap;html=1;aspect=fixed;fillColor=#1ba1e2;strokeColor=#006EAF;fontColor=#ffffff;" parent="1" vertex="1">
          <mxGeometry x="400" y="680" width="40" height="40" as="geometry" />
        </mxCell>
        <mxCell id="-GwoCMBWm2h0HPMjPAiY-25" value="" style="ellipse;whiteSpace=wrap;html=1;aspect=fixed;fillColor=#1ba1e2;strokeColor=#006EAF;fontColor=#ffffff;" parent="1" vertex="1">
          <mxGeometry x="480" y="680" width="40" height="40" as="geometry" />
        </mxCell>
        <mxCell id="Lr2YLkX7fLZmLeurDjHt-1" value="&lt;span style=&quot;font-size: 10px;&quot;&gt;I can draw lines between nodes.&amp;nbsp;&lt;/span&gt;" style="text;html=1;align=center;verticalAlign=middle;whiteSpace=wrap;rounded=0;" parent="1" vertex="1">
          <mxGeometry x="10" y="365" width="150" height="30" as="geometry" />
        </mxCell>
        <mxCell id="Lr2YLkX7fLZmLeurDjHt-2" value="&lt;span style=&quot;font-size: 10px;&quot;&gt;I must draw lines between multiple nodes in order to win.&amp;nbsp;&lt;/span&gt;" style="text;html=1;align=center;verticalAlign=middle;whiteSpace=wrap;rounded=0;" parent="1" vertex="1">
          <mxGeometry x="10" y="485" width="150" height="30" as="geometry" />
        </mxCell>
        <mxCell id="Lr2YLkX7fLZmLeurDjHt-3" value="&lt;span style=&quot;font-size: 10px;&quot;&gt;I can omit lines so long as all the nodes are connected.&amp;nbsp;&lt;/span&gt;" style="text;html=1;align=center;verticalAlign=middle;whiteSpace=wrap;rounded=0;" parent="1" vertex="1">
          <mxGeometry x="10" y="645" width="150" height="30" as="geometry" />
        </mxCell>
      </root>
    </mxGraphModel>
  </diagram>
  <diagram id="iFjx0bIhxw-tIlCyCkBW" name="B_Leaf">
    <mxGraphModel dx="877" dy="468" grid="1" gridSize="10" guides="1" tooltips="1" connect="1" arrows="1" fold="1" page="1" pageScale="1" pageWidth="850" pageHeight="1100" math="0" shadow="0">
      <root>
        <mxCell id="0" />
        <mxCell id="1" parent="0" />
        <mxCell id="qscG66KzJSfXzBQCQLM1-12" style="edgeStyle=orthogonalEdgeStyle;rounded=0;orthogonalLoop=1;jettySize=auto;html=1;" parent="1" source="nWjhUicdVpIePKE9PL6p-1" target="qscG66KzJSfXzBQCQLM1-5" edge="1">
          <mxGeometry relative="1" as="geometry" />
        </mxCell>
        <mxCell id="nWjhUicdVpIePKE9PL6p-1" value="" style="rounded=0;whiteSpace=wrap;html=1;fillColor=none;dashed=1;dashPattern=1 4;" parent="1" vertex="1">
          <mxGeometry x="180" y="460" width="160" height="160" as="geometry" />
        </mxCell>
        <mxCell id="nWjhUicdVpIePKE9PL6p-7" value="" style="ellipse;whiteSpace=wrap;html=1;aspect=fixed;fillColor=#1ba1e2;strokeColor=#006EAF;fontColor=#ffffff;" parent="1" vertex="1">
          <mxGeometry x="280" y="480" width="40" height="40" as="geometry" />
        </mxCell>
        <mxCell id="nWjhUicdVpIePKE9PL6p-8" value="&lt;span style=&quot;font-size: 10px;&quot;&gt;I can connect &quot;leaf&quot; nodes only once to another node.&lt;/span&gt;" style="text;html=1;align=center;verticalAlign=middle;whiteSpace=wrap;rounded=0;" parent="1" vertex="1">
          <mxGeometry x="10" y="525" width="150" height="30" as="geometry" />
        </mxCell>
        <mxCell id="nWjhUicdVpIePKE9PL6p-9" value="Leaf" style="text;html=1;align=left;verticalAlign=middle;whiteSpace=wrap;rounded=0;" parent="1" vertex="1">
          <mxGeometry x="180" y="440" width="60" height="20" as="geometry" />
        </mxCell>
        <mxCell id="qscG66KzJSfXzBQCQLM1-1" value="" style="shape=image;verticalLabelPosition=bottom;labelBackgroundColor=default;verticalAlign=top;aspect=fixed;imageAspect=0;image=data:image/png,iVBORw0KGgoAAAANSUhEUgAAAN0AAADgCAYAAACHIGNpAAAAAXNSR0IArs4c6QAAAARnQU1BAACxjwv8YQUAAAAJcEhZcwAADsAAAA7AAWrWiQkAABG+SURBVHhe7d1fiB1XHQfw85sb3W1aJW8GkbJ9KgWFBDZNguhNELqbvrR5aoNKs/iQBHxoEGwDSowoSX2pPiWi0uhL0gdJi9julkJ640OTdrVRCo0P0hQfTEuESNJm8+fO8Zy5ZzZ37525c87MOTNnZr4fCJmZ7G52997v/f3On3svAwAAAAAAAAAAAAAAAIDSkfpbW7d7dppNrd/Bgs4mxsIVxoLzvcXZ8+qfASCDUei688vbOGOnxCfNqEsRce0tmurs7r26+Zq6BAApAvV3pu4T723gnJ0ZDZwkru3gt/qn1CkATKAdOnbrzl4itjGqawmI8fnu43/9rjoFgBTa7WV3bvm3jOh7aaG7h/9NfMif1In4H7hoOTHuA4hphS5qLVf6/xaV7gF1yRjGfQADeu3loLXMHTgJ4z6AAb3QcdqgjgoRwRPjvgub1ClAK+lPpNjSD6wEGKCuyg9dJ8SYDlotM3TRJAqjfeq0MB52XpRfU50CtE52pVtdn7MjmlBZufs6ggdtlR063UkUkUxdRLQNwYO2yg5dtLitIWvNfASCB22VHbqAnxZ5WlFnEximTlgN3vzyNnUJoPH0dqTMvfsTkZDD6jQV5zwUQcoOcgLsWIG20AtIJzyhU+1k4MTHherUCCZYoC20Qtd7besVYuGCVvB0g5wA4zxoA+2A9BYfPU2cv6BOJ5Jtpjo0hnEeNJ3+PL/QffzCRh52PhSfNK0upSoyvothnAdNZBQKozZTju8KVDwJ4zxoIuNKZNJmFplYiaHdhKYxai9jJm3mAL8t/qvPq5Pc0G5CE+Qac5m0mRLn7BN1WAjaTWiCXJUu1p1/52nOgpd0Kp6NiZWY+FrnaXrdLlQ8qKNCIYjGdyVOrMQwzoM6K1TpYrrbxCSbFU/COA/qxs6dX3ObmGQzcBLGeVA3VgJgOrFi22q7ieBBDVirOibjOxcwzoO6sDKmG2YyozkgvwURVYswzgOfWQ+dZB48+7CsAL6yOqkRM2817Wc/ajfxitLgISeVLlbV4vkwtJrgG6ehk9BqAqzlpL0cZvKsBFfQaoJPnFc6yfxZCW6g1QQfOK90krvFc7PHDPHR2L0ClSsldNKgzew8Yjd44quZBg+tJlSslPZymA8TKxJaTahK6aGT3ATPvOphVhOqUFp7OczFPk3O6WN1qA2tJlShkkoXs13xOGcfE7EvqVMT23uLs+fVMYBTlVS6mO2KJwPHefjO4Ey2m3rER56SyxrqFMCpSitdzIeKh/EdlMWL0EkIHrRFpe3lMBetpjrUFk2s4Imw4Jg3lS7mzXIC1vHAEe9CJ7kJnjm0m+CCl6GTEDxoKm9DJyF40ETeTKQkyTe5Yv9xZHWCBc9OAAu8rnQxVDxoEq8rXczFXs08Visedq9AAbWodDHziid/PLlcYJf4ipcp6G+XT85VlwC01aLSxcwrnv3ASSLKM7wfnMEYD/KoVeikKHgVv9CRhN0rkFet2stYvhc6ctNqSuKrYvcKaKtdpZPyvdCRm8BJIs54wSPQVsvQSb7MaMYwswm6ahs6KQpe0H9IBO+EulSpKHhh520EDyap5ZhuVL4xnjvRInon3I0lBUhS60oXq/qdYEeh4sEkjQidFLea4vDQ4Eq1RNUdrOUheDCiEe3lqO7c8l7xk72kTislqu9l4p2dvaXNl9UlaLlGhk7yZZO0FAUP28ZAaUx7OcqnJYXVVhPreCA0ttLFvKp4eGoQCI0PnYTggU8a214O86rVlMsJeP+EVmtFpYsVq3jyVxWqv4sTDwDYJN1SrQqdFK2bhSTDdzRf+OxBq9lOrQtdzJdxXhQ8ooN416D2aG3opOLBk78+0ShagHazPVoxkZLm3tax8KC4299Rlw3YCZwk4rsDEyzt0OpKN0xWPfHr+IP48zl1qSLhHvlgoE6ggRC6Ib4ED61ms7W6vRwVVZggfFA8Ep0Qd/y76nLpolYTL//QWKh0KaJJFh6cJGJT6lLpsKTQTKh0KQa7WPgxdVqJ1dddQcVrFIRukk4o28xKt44heM2D9jKDV4voNWg1u92z02xq/Q4WdDaJb1rvd0Zc/EzB+bZsEEDoNLQ9eDJIfP0Xj4r/f79ojVJ+B3LNUt6d5J9865fRrC1jh5oePoROU3fuvRlO/Q/qFLzUqqNZWbrzy8+HjB0eBC0OVZL8QUsSha/BSyYInQFvKh5ji+cWZ3ep0zWGgyY+bp/4XmfUP40ZvnOvDZj619W7h91Q6Zj0M9YdQmfIl+CxoL+599rWi+psELb77n9SfG/y2ROpQRslKmdIJCfUhu8K5Ycs0cjP2BQIXQ4+BC9uM9m1ayt5wraWJyFLxcXPS/8l3v9O742ti+pibSF0OXkRPMbeJ0ZfFEcPqkuNF3L+ScDDZ+ocPoSuAG9aTWdk9StyFyn6+ZOFIbsSsP5C3QKI0BXkx6ymvBltt4cuvqYbotW+TmH4CxYEVxnRRd+XHBA6C5pf8WwoMcSc/4NNr+v6uuSA0FniyzoeDHDObhHvP+lj64nQWVRtxSuxktSIj+M+hM4ytJp+8il8CJ0D1bWaqHZZfAgfQudInoon4vKp+Pj71WmjDHa+kDdPJasyfAidQ00KHmf8EnH2sjpNJb7/KUb07PDPLD83YMH3Oet/jXHakPQxVQh5eC3gfE/ZwUPoHBu8onRnrzg8OrhiQraK5d9EYwEL6CL77Ppir7dT6wm90c/c78yLrzST9rnxx4j/6+EqA1hF8BC6khR/d1i3ARR3/tsUst+wDr1pEjAbfHip+zLbTYSuRHZmNu2GT4Ttqvhqv2c3b/xMBK3SxeSqw1dW1UPoSpY/ePKmkoErZk3raNg2lqXK8EXBY3Sot7TlhLpkHUJXgarW8qLAhbS798bsJXXJa5WO+zhb6C3NnlRnViF0FRk8muedYDEThY3xI+zmp6/4VtV0DQeQiP1A3HWdvwq3q3EeQlex7tyFHzPqHBGH1m+LJoQtiQwg9TtPcQp3iY7hW+IXt079k3Uh45f/srjlIXVqBUJXoe788jbO2RnxyL1RXbImemb5yo2dTQpbkjLGf7YrHkJXEfnisXyl/4GTwNVs7GaD63GyzYrnzbac1rl1Z2924IZnKzVnLjk/QDdvbG5T4KTV9xrkbEFU+WPit2W1wgeMZr7x2PJ/uo9dmFeXckOlq4BeWylvGrMlAtlSnlvasl2dtpqrttPGWh4qXcmitlJrHDcpcOOPlVFLyWlBnbZe77WtV0T1+yXxziPi9JCdykcsoGBDGATH1YVcELqyTWwrdSvb2o9r4xhOV29p8+Xe4uwxYuFC8eANfu+y1SzSZiJ0JRpUueA5dTpOpNEUAqdn8NZnNoI3UKTaIXRlSq1yqnKtLWCZEDgzq5MtLDxYLHzyJbHzVztMpJQkffLEfMJEIsaf5zdv/Krp63Cu2FhiyDupgtCVwPaaHOf87+eWtmxSp5CTleDlWL9De1mGsbYy/2OdqIn/JE5Pq1MoIGo3OTugTnOJ2sy5d/erUy0IXRk4jbx1sXE7+SHj4c9FVnfTzeubMIazZ/BMgnBPoTEe0fHoScqaELpSmY/dIpz9tLf06I96r882auOyL2zMbHLictO6FoTOsWg8x2ifOs2n02/ce7T5pmjwiAUP6s5mInSurY7n5DjOfCwnt3Y18Y0RfVQseJzxgH6nTiZC6FyjQE2gJLWWk0OIrV3lKxI8Ue2+rFPtEDrXeDhhaj8piPdQEO7BpEn5igRPZ6cKQufQYNsXfV2dGkFbWS0ZPEZk/OJEcglBHaZC6Fy6fecAET2gzoyIzzuoDqEixPsfqUMjWS0mQucSZ111ZCSqcp6/m2grBPy0ixYToXOJU67tRcTYkjqECsnn5LloMRE6gAnMWky9JSGEziXiuRZawSNGLea92ehJ28IQOpc4e18dQU3JFpM4f0GdaguJH1aHYxA6Rwbbv4Jvq1Oos054wnRCZdK4DqFzResl9qAOzCZUssd1CJ0rY0/ngTqjMPyfOswwNK5LWa9D6AB0EDd4775BtUtbr0PoKnXvURE8l2MWM21ch9BVRj4a6q3rQPXyLpQnQegqk1TlEEKf6Y/rJkPoSjeppUS76TVOufZijkLoSodqVlfRcxsttJgIHYABGy0mQgdQMoTOS3RZHUADIXQ+wkvuNUbSrhSEzjec/wuvjeIxwxnMpF0pCF3pMpYFiL+pjsBD+jOYg1nqpF0pCF3pMpYMOF1RR+ApvRnM9AdXhA6gZAidK0a70qFWtG/b5K4GoXMl58u3QQ1o37bJLSZC54jNXengl6K3LULnkK1d6eCfIrctQlcpbH5uI4SuUuM9Pyfaqg6hoRA6z4jaN999/MKEt9eCukPoXMq7bNDvIHS+K7AkhNC5lHvZgGe+xxlUrMCSEELnUN6pZYzr/Fdk2QChcyx7anl8BhPjunrIu2yA0FUuedcCxnXNhdB5C+O6JuB8fMIFoXMNG59bjTjvqcNVCJ1rWrNc4+M6TKY0BNHYqwAgdI7pzXKNj+swmdJcCF0J9Ga5xqsdJlOaCaErg9a4LmkWE5MpTYTQlSHn7gXxOXPybZTVKTQEQlcCOa7L82bxRLSNr9x9HcFrFoSuLFpvFp+wOwXB85K8PTijferUCEJXkryzmBKC56Fbd/YSsY3qzAhCV6IiT/GPgnerf0qdQtU45X4AROjKpDWLmbB0oGDtzg9mreX4m8EgdGXSmsVMbjFjPOwcVYdQFZPWMuHNYBC6EhV5DlYM1c4Dmq0l5/y8uM0RuqoR73+kDidIbzEl3g+OY1KlOqIXmVKHE4lbcUkdroHQlc1Ci4lJleqILmOjSNN+dZoh+c09EbqS2WgxpajNnF/epk6hLP1gPzHNmcuUN/dE6Cqg12JmE/XwVPTIC6XRbS3TxnMSQlcFo72Y6eM78S8zYnx3BhWvHNHvWbO1TBvPSQhdBWSLqb8XM3t8J/56+5vzy2cxueJOtDbH2Rnt1jJlPCchdFXR2oupTzyy7sDkikOm275SxnMSQleRqNqxcMFy8LCG54rBtq9J4zkJoatQb/HR02bBSx/fxbCGZ5/Ztq+o5T+oDhMhdBWLgmdpfCfhGQkOGLSWUZVbnD2vThMhdD6wPb7D4rk1csaS8+A5dZqJGP1aHaZC6DyA8Z2fVmcsLU2gxBA6T5iP77JhfJdft3t2mt8OD5sELmsCJYbQecRsfJcN47t8opbyvi98IG6LZ9WlTJzxS8RpQZ1OlD0dBqWS27p42PlQ3DDT6lJh8hGYptft6r26GS/xPoGsbuy++58UY7gXjVrKge1ZEygxhM5D3fl3nuYseMl68IgO6t4x2mQ1bCw4Kn7nxq81Kn+355a2bFenmRA6T7kIniTGjG/RVGc3ql7xsElRWxnS7t4bs5fUpUwIncecBa/lVc9G2KQ8gZMQOs9FT90JSYZP3kHsVz0WvspYkLmg2wS2wiblDZyE0NWEq6oXa3IArYeN8SPs5qev9Ho7cy3vIHQ14jp4sSYFMJr+Z+xU0bAN0Z6lTIPQ1Uzx4Im7oMHNXqcARhVtav0OFnQ2iYGr+P3wr3BGT4nx6wODjzD72UeZzlKmQehqqKyKN2oQQHaoyvCNB+seTvSM+P5sVbQ1iozhRiF0NWV3giVH9Rt+L+3olavzVcJJIUpiL1jy55U/92Q2xnCjELqac1f1zFuxsTBqcFmdirJZ3YYhdA3gclnhHvMQ2jf6Pbj7nlwFTkLoGqSc8CUxvfPnCYv8ePl5brloJ0chdA1U1USLHlfhyf91o6Bx9jIL6CL77Pqiq7DFELqGqq7q+U+E7CqFImTErjLil1xWtSQIXcN1596bYdQX4WOH2xw+8fPfpTD8M+sEJ8uoZpMgdC3RxsoXMrYSMHaktzh7TF3yAkLXMlH4+p150WI9zIiebWIAo7BxdqC3NHtSXfIKQtdicQBF8xWtk4kWbKrOQfQ9bDGEDtYYDqLvIZTjNHEPPk6fXf9hlWM0UwgdTDRaDWO2AjmYrud/FGPNJ4jYV9XlNVYnQYgGr7RV0tS+Kwgd5JYWSG01Dw8AAAAAAAAAAAAAAAAAAAAkYuz/q72kCoyv7t4AAAAASUVORK5CYII=;" parent="1" vertex="1">
          <mxGeometry x="240" y="465.14" width="19.6" height="19.86" as="geometry" />
        </mxCell>
        <mxCell id="qscG66KzJSfXzBQCQLM1-2" value="" style="ellipse;whiteSpace=wrap;html=1;aspect=fixed;fillColor=#1ba1e2;strokeColor=#006EAF;fontColor=#ffffff;" parent="1" vertex="1">
          <mxGeometry x="200" y="480.14" width="40" height="40" as="geometry" />
        </mxCell>
        <mxCell id="qscG66KzJSfXzBQCQLM1-3" value="" style="ellipse;whiteSpace=wrap;html=1;aspect=fixed;fillColor=#1ba1e2;strokeColor=#006EAF;fontColor=#ffffff;" parent="1" vertex="1">
          <mxGeometry x="280" y="560" width="40" height="40" as="geometry" />
        </mxCell>
        <mxCell id="qscG66KzJSfXzBQCQLM1-4" value="" style="ellipse;whiteSpace=wrap;html=1;aspect=fixed;fillColor=#1ba1e2;strokeColor=#006EAF;fontColor=#ffffff;" parent="1" vertex="1">
          <mxGeometry x="200" y="560" width="40" height="40" as="geometry" />
        </mxCell>
        <mxCell id="qscG66KzJSfXzBQCQLM1-5" value="" style="rounded=0;whiteSpace=wrap;html=1;fillColor=none;dashed=1;dashPattern=1 4;" parent="1" vertex="1">
          <mxGeometry x="380" y="460" width="160" height="160" as="geometry" />
        </mxCell>
        <mxCell id="qscG66KzJSfXzBQCQLM1-6" value="" style="ellipse;whiteSpace=wrap;html=1;aspect=fixed;fillColor=#1ba1e2;strokeColor=#006EAF;fontColor=#ffffff;" parent="1" vertex="1">
          <mxGeometry x="480" y="480" width="40" height="40" as="geometry" />
        </mxCell>
        <mxCell id="qscG66KzJSfXzBQCQLM1-8" value="" style="shape=image;verticalLabelPosition=bottom;labelBackgroundColor=default;verticalAlign=top;aspect=fixed;imageAspect=0;image=data:image/png,iVBORw0KGgoAAAANSUhEUgAAAN0AAADgCAYAAACHIGNpAAAAAXNSR0IArs4c6QAAAARnQU1BAACxjwv8YQUAAAAJcEhZcwAADsAAAA7AAWrWiQkAABG+SURBVHhe7d1fiB1XHQfw85sb3W1aJW8GkbJ9KgWFBDZNguhNELqbvrR5aoNKs/iQBHxoEGwDSowoSX2pPiWi0uhL0gdJi9julkJ640OTdrVRCo0P0hQfTEuESNJm8+fO8Zy5ZzZ37525c87MOTNnZr4fCJmZ7G52997v/f3On3svAwAAAAAAAAAAAAAAAIDSkfpbW7d7dppNrd/Bgs4mxsIVxoLzvcXZ8+qfASCDUei688vbOGOnxCfNqEsRce0tmurs7r26+Zq6BAApAvV3pu4T723gnJ0ZDZwkru3gt/qn1CkATKAdOnbrzl4itjGqawmI8fnu43/9rjoFgBTa7WV3bvm3jOh7aaG7h/9NfMif1In4H7hoOTHuA4hphS5qLVf6/xaV7gF1yRjGfQADeu3loLXMHTgJ4z6AAb3QcdqgjgoRwRPjvgub1ClAK+lPpNjSD6wEGKCuyg9dJ8SYDlotM3TRJAqjfeq0MB52XpRfU50CtE52pVtdn7MjmlBZufs6ggdtlR063UkUkUxdRLQNwYO2yg5dtLitIWvNfASCB22VHbqAnxZ5WlFnEximTlgN3vzyNnUJoPH0dqTMvfsTkZDD6jQV5zwUQcoOcgLsWIG20AtIJzyhU+1k4MTHherUCCZYoC20Qtd7besVYuGCVvB0g5wA4zxoA+2A9BYfPU2cv6BOJ5Jtpjo0hnEeNJ3+PL/QffzCRh52PhSfNK0upSoyvothnAdNZBQKozZTju8KVDwJ4zxoIuNKZNJmFplYiaHdhKYxai9jJm3mAL8t/qvPq5Pc0G5CE+Qac5m0mRLn7BN1WAjaTWiCXJUu1p1/52nOgpd0Kp6NiZWY+FrnaXrdLlQ8qKNCIYjGdyVOrMQwzoM6K1TpYrrbxCSbFU/COA/qxs6dX3ObmGQzcBLGeVA3VgJgOrFi22q7ieBBDVirOibjOxcwzoO6sDKmG2YyozkgvwURVYswzgOfWQ+dZB48+7CsAL6yOqkRM2817Wc/ajfxitLgISeVLlbV4vkwtJrgG6ehk9BqAqzlpL0cZvKsBFfQaoJPnFc6yfxZCW6g1QQfOK90krvFc7PHDPHR2L0ClSsldNKgzew8Yjd44quZBg+tJlSslPZymA8TKxJaTahK6aGT3ATPvOphVhOqUFp7OczFPk3O6WN1qA2tJlShkkoXs13xOGcfE7EvqVMT23uLs+fVMYBTlVS6mO2KJwPHefjO4Ey2m3rER56SyxrqFMCpSitdzIeKh/EdlMWL0EkIHrRFpe3lMBetpjrUFk2s4Imw4Jg3lS7mzXIC1vHAEe9CJ7kJnjm0m+CCl6GTEDxoKm9DJyF40ETeTKQkyTe5Yv9xZHWCBc9OAAu8rnQxVDxoEq8rXczFXs08Visedq9AAbWodDHziid/PLlcYJf4ipcp6G+XT85VlwC01aLSxcwrnv3ASSLKM7wfnMEYD/KoVeikKHgVv9CRhN0rkFet2stYvhc6ctNqSuKrYvcKaKtdpZPyvdCRm8BJIs54wSPQVsvQSb7MaMYwswm6ahs6KQpe0H9IBO+EulSpKHhh520EDyap5ZhuVL4xnjvRInon3I0lBUhS60oXq/qdYEeh4sEkjQidFLea4vDQ4Eq1RNUdrOUheDCiEe3lqO7c8l7xk72kTislqu9l4p2dvaXNl9UlaLlGhk7yZZO0FAUP28ZAaUx7OcqnJYXVVhPreCA0ttLFvKp4eGoQCI0PnYTggU8a214O86rVlMsJeP+EVmtFpYsVq3jyVxWqv4sTDwDYJN1SrQqdFK2bhSTDdzRf+OxBq9lOrQtdzJdxXhQ8ooN416D2aG3opOLBk78+0ShagHazPVoxkZLm3tax8KC4299Rlw3YCZwk4rsDEyzt0OpKN0xWPfHr+IP48zl1qSLhHvlgoE6ggRC6Ib4ED61ms7W6vRwVVZggfFA8Ep0Qd/y76nLpolYTL//QWKh0KaJJFh6cJGJT6lLpsKTQTKh0KQa7WPgxdVqJ1dddQcVrFIRukk4o28xKt44heM2D9jKDV4voNWg1u92z02xq/Q4WdDaJb1rvd0Zc/EzB+bZsEEDoNLQ9eDJIfP0Xj4r/f79ojVJ+B3LNUt6d5J9865fRrC1jh5oePoROU3fuvRlO/Q/qFLzUqqNZWbrzy8+HjB0eBC0OVZL8QUsSha/BSyYInQFvKh5ji+cWZ3ep0zWGgyY+bp/4XmfUP40ZvnOvDZj619W7h91Q6Zj0M9YdQmfIl+CxoL+599rWi+psELb77n9SfG/y2ROpQRslKmdIJCfUhu8K5Ycs0cjP2BQIXQ4+BC9uM9m1ayt5wraWJyFLxcXPS/8l3v9O742ti+pibSF0OXkRPMbeJ0ZfFEcPqkuNF3L+ScDDZ+ocPoSuAG9aTWdk9StyFyn6+ZOFIbsSsP5C3QKI0BXkx6ymvBltt4cuvqYbotW+TmH4CxYEVxnRRd+XHBA6C5pf8WwoMcSc/4NNr+v6uuSA0FniyzoeDHDObhHvP+lj64nQWVRtxSuxktSIj+M+hM4ytJp+8il8CJ0D1bWaqHZZfAgfQudInoon4vKp+Pj71WmjDHa+kDdPJasyfAidQ00KHmf8EnH2sjpNJb7/KUb07PDPLD83YMH3Oet/jXHakPQxVQh5eC3gfE/ZwUPoHBu8onRnrzg8OrhiQraK5d9EYwEL6CL77Ppir7dT6wm90c/c78yLrzST9rnxx4j/6+EqA1hF8BC6khR/d1i3ARR3/tsUst+wDr1pEjAbfHip+zLbTYSuRHZmNu2GT4Ttqvhqv2c3b/xMBK3SxeSqw1dW1UPoSpY/ePKmkoErZk3raNg2lqXK8EXBY3Sot7TlhLpkHUJXgarW8qLAhbS798bsJXXJa5WO+zhb6C3NnlRnViF0FRk8muedYDEThY3xI+zmp6/4VtV0DQeQiP1A3HWdvwq3q3EeQlex7tyFHzPqHBGH1m+LJoQtiQwg9TtPcQp3iY7hW+IXt079k3Uh45f/srjlIXVqBUJXoe788jbO2RnxyL1RXbImemb5yo2dTQpbkjLGf7YrHkJXEfnisXyl/4GTwNVs7GaD63GyzYrnzbac1rl1Z2924IZnKzVnLjk/QDdvbG5T4KTV9xrkbEFU+WPit2W1wgeMZr7x2PJ/uo9dmFeXckOlq4BeWylvGrMlAtlSnlvasl2dtpqrttPGWh4qXcmitlJrHDcpcOOPlVFLyWlBnbZe77WtV0T1+yXxziPi9JCdykcsoGBDGATH1YVcELqyTWwrdSvb2o9r4xhOV29p8+Xe4uwxYuFC8eANfu+y1SzSZiJ0JRpUueA5dTpOpNEUAqdn8NZnNoI3UKTaIXRlSq1yqnKtLWCZEDgzq5MtLDxYLHzyJbHzVztMpJQkffLEfMJEIsaf5zdv/Krp63Cu2FhiyDupgtCVwPaaHOf87+eWtmxSp5CTleDlWL9De1mGsbYy/2OdqIn/JE5Pq1MoIGo3OTugTnOJ2sy5d/erUy0IXRk4jbx1sXE7+SHj4c9FVnfTzeubMIazZ/BMgnBPoTEe0fHoScqaELpSmY/dIpz9tLf06I96r882auOyL2zMbHLictO6FoTOsWg8x2ifOs2n02/ce7T5pmjwiAUP6s5mInSurY7n5DjOfCwnt3Y18Y0RfVQseJzxgH6nTiZC6FyjQE2gJLWWk0OIrV3lKxI8Ue2+rFPtEDrXeDhhaj8piPdQEO7BpEn5igRPZ6cKQufQYNsXfV2dGkFbWS0ZPEZk/OJEcglBHaZC6Fy6fecAET2gzoyIzzuoDqEixPsfqUMjWS0mQucSZ111ZCSqcp6/m2grBPy0ixYToXOJU67tRcTYkjqECsnn5LloMRE6gAnMWky9JSGEziXiuRZawSNGLea92ehJ28IQOpc4e18dQU3JFpM4f0GdaguJH1aHYxA6Rwbbv4Jvq1Oos054wnRCZdK4DqFzResl9qAOzCZUssd1CJ0rY0/ngTqjMPyfOswwNK5LWa9D6AB0EDd4775BtUtbr0PoKnXvURE8l2MWM21ch9BVRj4a6q3rQPXyLpQnQegqk1TlEEKf6Y/rJkPoSjeppUS76TVOufZijkLoSodqVlfRcxsttJgIHYABGy0mQgdQMoTOS3RZHUADIXQ+wkvuNUbSrhSEzjec/wuvjeIxwxnMpF0pCF3pMpYFiL+pjsBD+jOYg1nqpF0pCF3pMpYMOF1RR+ApvRnM9AdXhA6gZAidK0a70qFWtG/b5K4GoXMl58u3QQ1o37bJLSZC54jNXengl6K3LULnkK1d6eCfIrctQlcpbH5uI4SuUuM9Pyfaqg6hoRA6z4jaN999/MKEt9eCukPoXMq7bNDvIHS+K7AkhNC5lHvZgGe+xxlUrMCSEELnUN6pZYzr/Fdk2QChcyx7anl8BhPjunrIu2yA0FUuedcCxnXNhdB5C+O6JuB8fMIFoXMNG59bjTjvqcNVCJ1rWrNc4+M6TKY0BNHYqwAgdI7pzXKNj+swmdJcCF0J9Ga5xqsdJlOaCaErg9a4LmkWE5MpTYTQlSHn7gXxOXPybZTVKTQEQlcCOa7L82bxRLSNr9x9HcFrFoSuLFpvFp+wOwXB85K8PTijferUCEJXkryzmBKC56Fbd/YSsY3qzAhCV6IiT/GPgnerf0qdQtU45X4AROjKpDWLmbB0oGDtzg9mreX4m8EgdGXSmsVMbjFjPOwcVYdQFZPWMuHNYBC6EhV5DlYM1c4Dmq0l5/y8uM0RuqoR73+kDidIbzEl3g+OY1KlOqIXmVKHE4lbcUkdroHQlc1Ci4lJleqILmOjSNN+dZoh+c09EbqS2WgxpajNnF/epk6hLP1gPzHNmcuUN/dE6Cqg12JmE/XwVPTIC6XRbS3TxnMSQlcFo72Y6eM78S8zYnx3BhWvHNHvWbO1TBvPSQhdBWSLqb8XM3t8J/56+5vzy2cxueJOtDbH2Rnt1jJlPCchdFXR2oupTzyy7sDkikOm275SxnMSQleRqNqxcMFy8LCG54rBtq9J4zkJoatQb/HR02bBSx/fxbCGZ5/Ztq+o5T+oDhMhdBWLgmdpfCfhGQkOGLSWUZVbnD2vThMhdD6wPb7D4rk1csaS8+A5dZqJGP1aHaZC6DyA8Z2fVmcsLU2gxBA6T5iP77JhfJdft3t2mt8OD5sELmsCJYbQecRsfJcN47t8opbyvi98IG6LZ9WlTJzxS8RpQZ1OlD0dBqWS27p42PlQ3DDT6lJh8hGYptft6r26GS/xPoGsbuy++58UY7gXjVrKge1ZEygxhM5D3fl3nuYseMl68IgO6t4x2mQ1bCw4Kn7nxq81Kn+355a2bFenmRA6T7kIniTGjG/RVGc3ql7xsElRWxnS7t4bs5fUpUwIncecBa/lVc9G2KQ8gZMQOs9FT90JSYZP3kHsVz0WvspYkLmg2wS2wiblDZyE0NWEq6oXa3IArYeN8SPs5qev9Ho7cy3vIHQ14jp4sSYFMJr+Z+xU0bAN0Z6lTIPQ1Uzx4Im7oMHNXqcARhVtav0OFnQ2iYGr+P3wr3BGT4nx6wODjzD72UeZzlKmQehqqKyKN2oQQHaoyvCNB+seTvSM+P5sVbQ1iozhRiF0NWV3giVH9Rt+L+3olavzVcJJIUpiL1jy55U/92Q2xnCjELqac1f1zFuxsTBqcFmdirJZ3YYhdA3gclnhHvMQ2jf6Pbj7nlwFTkLoGqSc8CUxvfPnCYv8ePl5brloJ0chdA1U1USLHlfhyf91o6Bx9jIL6CL77Pqiq7DFELqGqq7q+U+E7CqFImTErjLil1xWtSQIXcN1596bYdQX4WOH2xw+8fPfpTD8M+sEJ8uoZpMgdC3RxsoXMrYSMHaktzh7TF3yAkLXMlH4+p150WI9zIiebWIAo7BxdqC3NHtSXfIKQtdicQBF8xWtk4kWbKrOQfQ9bDGEDtYYDqLvIZTjNHEPPk6fXf9hlWM0UwgdTDRaDWO2AjmYrud/FGPNJ4jYV9XlNVYnQYgGr7RV0tS+Kwgd5JYWSG01Dw8AAAAAAAAAAAAAAAAAAAAkYuz/q72kCoyv7t4AAAAASUVORK5CYII=;" parent="1" vertex="1">
          <mxGeometry x="440" y="465.14" width="19.6" height="19.86" as="geometry" />
        </mxCell>
        <mxCell id="qscG66KzJSfXzBQCQLM1-14" style="edgeStyle=orthogonalEdgeStyle;rounded=0;orthogonalLoop=1;jettySize=auto;html=1;endArrow=none;endFill=0;" parent="1" source="qscG66KzJSfXzBQCQLM1-9" target="qscG66KzJSfXzBQCQLM1-11" edge="1">
          <mxGeometry relative="1" as="geometry" />
        </mxCell>
        <mxCell id="qscG66KzJSfXzBQCQLM1-9" value="" style="ellipse;whiteSpace=wrap;html=1;aspect=fixed;fillColor=#1ba1e2;strokeColor=#006EAF;fontColor=#ffffff;" parent="1" vertex="1">
          <mxGeometry x="400" y="480.14" width="40" height="40" as="geometry" />
        </mxCell>
        <mxCell id="qscG66KzJSfXzBQCQLM1-10" value="" style="ellipse;whiteSpace=wrap;html=1;aspect=fixed;fillColor=#1ba1e2;strokeColor=#006EAF;fontColor=#ffffff;" parent="1" vertex="1">
          <mxGeometry x="480" y="560" width="40" height="40" as="geometry" />
        </mxCell>
        <mxCell id="qscG66KzJSfXzBQCQLM1-15" style="edgeStyle=orthogonalEdgeStyle;rounded=0;orthogonalLoop=1;jettySize=auto;html=1;endArrow=none;endFill=0;" parent="1" source="qscG66KzJSfXzBQCQLM1-11" target="qscG66KzJSfXzBQCQLM1-10" edge="1">
          <mxGeometry relative="1" as="geometry" />
        </mxCell>
        <mxCell id="qscG66KzJSfXzBQCQLM1-21" style="rounded=0;orthogonalLoop=1;jettySize=auto;html=1;exitX=1;exitY=0;exitDx=0;exitDy=0;entryX=0;entryY=1;entryDx=0;entryDy=0;endArrow=none;endFill=0;" parent="1" source="qscG66KzJSfXzBQCQLM1-11" target="qscG66KzJSfXzBQCQLM1-6" edge="1">
          <mxGeometry relative="1" as="geometry" />
        </mxCell>
        <mxCell id="qscG66KzJSfXzBQCQLM1-11" value="" style="ellipse;whiteSpace=wrap;html=1;aspect=fixed;fillColor=#1ba1e2;strokeColor=#006EAF;fontColor=#ffffff;" parent="1" vertex="1">
          <mxGeometry x="400" y="560" width="40" height="40" as="geometry" />
        </mxCell>
        <mxCell id="qscG66KzJSfXzBQCQLM1-17" value="" style="shape=image;verticalLabelPosition=bottom;labelBackgroundColor=default;verticalAlign=top;aspect=fixed;imageAspect=0;image=data:image/png,iVBORw0KGgoAAAANSUhEUgAAAN0AAADgCAYAAACHIGNpAAAAAXNSR0IArs4c6QAAAARnQU1BAACxjwv8YQUAAAAJcEhZcwAADsAAAA7AAWrWiQkAABG+SURBVHhe7d1fiB1XHQfw85sb3W1aJW8GkbJ9KgWFBDZNguhNELqbvrR5aoNKs/iQBHxoEGwDSowoSX2pPiWi0uhL0gdJi9julkJ640OTdrVRCo0P0hQfTEuESNJm8+fO8Zy5ZzZ37525c87MOTNnZr4fCJmZ7G52997v/f3On3svAwAAAAAAAAAAAAAAAIDSkfpbW7d7dppNrd/Bgs4mxsIVxoLzvcXZ8+qfASCDUei688vbOGOnxCfNqEsRce0tmurs7r26+Zq6BAApAvV3pu4T723gnJ0ZDZwkru3gt/qn1CkATKAdOnbrzl4itjGqawmI8fnu43/9rjoFgBTa7WV3bvm3jOh7aaG7h/9NfMif1In4H7hoOTHuA4hphS5qLVf6/xaV7gF1yRjGfQADeu3loLXMHTgJ4z6AAb3QcdqgjgoRwRPjvgub1ClAK+lPpNjSD6wEGKCuyg9dJ8SYDlotM3TRJAqjfeq0MB52XpRfU50CtE52pVtdn7MjmlBZufs6ggdtlR063UkUkUxdRLQNwYO2yg5dtLitIWvNfASCB22VHbqAnxZ5WlFnEximTlgN3vzyNnUJoPH0dqTMvfsTkZDD6jQV5zwUQcoOcgLsWIG20AtIJzyhU+1k4MTHherUCCZYoC20Qtd7besVYuGCVvB0g5wA4zxoA+2A9BYfPU2cv6BOJ5Jtpjo0hnEeNJ3+PL/QffzCRh52PhSfNK0upSoyvothnAdNZBQKozZTju8KVDwJ4zxoIuNKZNJmFplYiaHdhKYxai9jJm3mAL8t/qvPq5Pc0G5CE+Qac5m0mRLn7BN1WAjaTWiCXJUu1p1/52nOgpd0Kp6NiZWY+FrnaXrdLlQ8qKNCIYjGdyVOrMQwzoM6K1TpYrrbxCSbFU/COA/qxs6dX3ObmGQzcBLGeVA3VgJgOrFi22q7ieBBDVirOibjOxcwzoO6sDKmG2YyozkgvwURVYswzgOfWQ+dZB48+7CsAL6yOqkRM2817Wc/ajfxitLgISeVLlbV4vkwtJrgG6ehk9BqAqzlpL0cZvKsBFfQaoJPnFc6yfxZCW6g1QQfOK90krvFc7PHDPHR2L0ClSsldNKgzew8Yjd44quZBg+tJlSslPZymA8TKxJaTahK6aGT3ATPvOphVhOqUFp7OczFPk3O6WN1qA2tJlShkkoXs13xOGcfE7EvqVMT23uLs+fVMYBTlVS6mO2KJwPHefjO4Ey2m3rER56SyxrqFMCpSitdzIeKh/EdlMWL0EkIHrRFpe3lMBetpjrUFk2s4Imw4Jg3lS7mzXIC1vHAEe9CJ7kJnjm0m+CCl6GTEDxoKm9DJyF40ETeTKQkyTe5Yv9xZHWCBc9OAAu8rnQxVDxoEq8rXczFXs08Visedq9AAbWodDHziid/PLlcYJf4ipcp6G+XT85VlwC01aLSxcwrnv3ASSLKM7wfnMEYD/KoVeikKHgVv9CRhN0rkFet2stYvhc6ctNqSuKrYvcKaKtdpZPyvdCRm8BJIs54wSPQVsvQSb7MaMYwswm6ahs6KQpe0H9IBO+EulSpKHhh520EDyap5ZhuVL4xnjvRInon3I0lBUhS60oXq/qdYEeh4sEkjQidFLea4vDQ4Eq1RNUdrOUheDCiEe3lqO7c8l7xk72kTislqu9l4p2dvaXNl9UlaLlGhk7yZZO0FAUP28ZAaUx7OcqnJYXVVhPreCA0ttLFvKp4eGoQCI0PnYTggU8a214O86rVlMsJeP+EVmtFpYsVq3jyVxWqv4sTDwDYJN1SrQqdFK2bhSTDdzRf+OxBq9lOrQtdzJdxXhQ8ooN416D2aG3opOLBk78+0ShagHazPVoxkZLm3tax8KC4299Rlw3YCZwk4rsDEyzt0OpKN0xWPfHr+IP48zl1qSLhHvlgoE6ggRC6Ib4ED61ms7W6vRwVVZggfFA8Ep0Qd/y76nLpolYTL//QWKh0KaJJFh6cJGJT6lLpsKTQTKh0KQa7WPgxdVqJ1dddQcVrFIRukk4o28xKt44heM2D9jKDV4voNWg1u92z02xq/Q4WdDaJb1rvd0Zc/EzB+bZsEEDoNLQ9eDJIfP0Xj4r/f79ojVJ+B3LNUt6d5J9865fRrC1jh5oePoROU3fuvRlO/Q/qFLzUqqNZWbrzy8+HjB0eBC0OVZL8QUsSha/BSyYInQFvKh5ji+cWZ3ep0zWGgyY+bp/4XmfUP40ZvnOvDZj619W7h91Q6Zj0M9YdQmfIl+CxoL+599rWi+psELb77n9SfG/y2ROpQRslKmdIJCfUhu8K5Ycs0cjP2BQIXQ4+BC9uM9m1ayt5wraWJyFLxcXPS/8l3v9O742ti+pibSF0OXkRPMbeJ0ZfFEcPqkuNF3L+ScDDZ+ocPoSuAG9aTWdk9StyFyn6+ZOFIbsSsP5C3QKI0BXkx6ymvBltt4cuvqYbotW+TmH4CxYEVxnRRd+XHBA6C5pf8WwoMcSc/4NNr+v6uuSA0FniyzoeDHDObhHvP+lj64nQWVRtxSuxktSIj+M+hM4ytJp+8il8CJ0D1bWaqHZZfAgfQudInoon4vKp+Pj71WmjDHa+kDdPJasyfAidQ00KHmf8EnH2sjpNJb7/KUb07PDPLD83YMH3Oet/jXHakPQxVQh5eC3gfE/ZwUPoHBu8onRnrzg8OrhiQraK5d9EYwEL6CL77Ppir7dT6wm90c/c78yLrzST9rnxx4j/6+EqA1hF8BC6khR/d1i3ARR3/tsUst+wDr1pEjAbfHip+zLbTYSuRHZmNu2GT4Ttqvhqv2c3b/xMBK3SxeSqw1dW1UPoSpY/ePKmkoErZk3raNg2lqXK8EXBY3Sot7TlhLpkHUJXgarW8qLAhbS798bsJXXJa5WO+zhb6C3NnlRnViF0FRk8muedYDEThY3xI+zmp6/4VtV0DQeQiP1A3HWdvwq3q3EeQlex7tyFHzPqHBGH1m+LJoQtiQwg9TtPcQp3iY7hW+IXt079k3Uh45f/srjlIXVqBUJXoe788jbO2RnxyL1RXbImemb5yo2dTQpbkjLGf7YrHkJXEfnisXyl/4GTwNVs7GaD63GyzYrnzbac1rl1Z2924IZnKzVnLjk/QDdvbG5T4KTV9xrkbEFU+WPit2W1wgeMZr7x2PJ/uo9dmFeXckOlq4BeWylvGrMlAtlSnlvasl2dtpqrttPGWh4qXcmitlJrHDcpcOOPlVFLyWlBnbZe77WtV0T1+yXxziPi9JCdykcsoGBDGATH1YVcELqyTWwrdSvb2o9r4xhOV29p8+Xe4uwxYuFC8eANfu+y1SzSZiJ0JRpUueA5dTpOpNEUAqdn8NZnNoI3UKTaIXRlSq1yqnKtLWCZEDgzq5MtLDxYLHzyJbHzVztMpJQkffLEfMJEIsaf5zdv/Krp63Cu2FhiyDupgtCVwPaaHOf87+eWtmxSp5CTleDlWL9De1mGsbYy/2OdqIn/JE5Pq1MoIGo3OTugTnOJ2sy5d/erUy0IXRk4jbx1sXE7+SHj4c9FVnfTzeubMIazZ/BMgnBPoTEe0fHoScqaELpSmY/dIpz9tLf06I96r882auOyL2zMbHLictO6FoTOsWg8x2ifOs2n02/ce7T5pmjwiAUP6s5mInSurY7n5DjOfCwnt3Y18Y0RfVQseJzxgH6nTiZC6FyjQE2gJLWWk0OIrV3lKxI8Ue2+rFPtEDrXeDhhaj8piPdQEO7BpEn5igRPZ6cKQufQYNsXfV2dGkFbWS0ZPEZk/OJEcglBHaZC6Fy6fecAET2gzoyIzzuoDqEixPsfqUMjWS0mQucSZ111ZCSqcp6/m2grBPy0ixYToXOJU67tRcTYkjqECsnn5LloMRE6gAnMWky9JSGEziXiuRZawSNGLea92ehJ28IQOpc4e18dQU3JFpM4f0GdaguJH1aHYxA6Rwbbv4Jvq1Oos054wnRCZdK4DqFzResl9qAOzCZUssd1CJ0rY0/ngTqjMPyfOswwNK5LWa9D6AB0EDd4775BtUtbr0PoKnXvURE8l2MWM21ch9BVRj4a6q3rQPXyLpQnQegqk1TlEEKf6Y/rJkPoSjeppUS76TVOufZijkLoSodqVlfRcxsttJgIHYABGy0mQgdQMoTOS3RZHUADIXQ+wkvuNUbSrhSEzjec/wuvjeIxwxnMpF0pCF3pMpYFiL+pjsBD+jOYg1nqpF0pCF3pMpYMOF1RR+ApvRnM9AdXhA6gZAidK0a70qFWtG/b5K4GoXMl58u3QQ1o37bJLSZC54jNXengl6K3LULnkK1d6eCfIrctQlcpbH5uI4SuUuM9Pyfaqg6hoRA6z4jaN999/MKEt9eCukPoXMq7bNDvIHS+K7AkhNC5lHvZgGe+xxlUrMCSEELnUN6pZYzr/Fdk2QChcyx7anl8BhPjunrIu2yA0FUuedcCxnXNhdB5C+O6JuB8fMIFoXMNG59bjTjvqcNVCJ1rWrNc4+M6TKY0BNHYqwAgdI7pzXKNj+swmdJcCF0J9Ga5xqsdJlOaCaErg9a4LmkWE5MpTYTQlSHn7gXxOXPybZTVKTQEQlcCOa7L82bxRLSNr9x9HcFrFoSuLFpvFp+wOwXB85K8PTijferUCEJXkryzmBKC56Fbd/YSsY3qzAhCV6IiT/GPgnerf0qdQtU45X4AROjKpDWLmbB0oGDtzg9mreX4m8EgdGXSmsVMbjFjPOwcVYdQFZPWMuHNYBC6EhV5DlYM1c4Dmq0l5/y8uM0RuqoR73+kDidIbzEl3g+OY1KlOqIXmVKHE4lbcUkdroHQlc1Ci4lJleqILmOjSNN+dZoh+c09EbqS2WgxpajNnF/epk6hLP1gPzHNmcuUN/dE6Cqg12JmE/XwVPTIC6XRbS3TxnMSQlcFo72Y6eM78S8zYnx3BhWvHNHvWbO1TBvPSQhdBWSLqb8XM3t8J/56+5vzy2cxueJOtDbH2Rnt1jJlPCchdFXR2oupTzyy7sDkikOm275SxnMSQleRqNqxcMFy8LCG54rBtq9J4zkJoatQb/HR02bBSx/fxbCGZ5/Ztq+o5T+oDhMhdBWLgmdpfCfhGQkOGLSWUZVbnD2vThMhdD6wPb7D4rk1csaS8+A5dZqJGP1aHaZC6DyA8Z2fVmcsLU2gxBA6T5iP77JhfJdft3t2mt8OD5sELmsCJYbQecRsfJcN47t8opbyvi98IG6LZ9WlTJzxS8RpQZ1OlD0dBqWS27p42PlQ3DDT6lJh8hGYptft6r26GS/xPoGsbuy++58UY7gXjVrKge1ZEygxhM5D3fl3nuYseMl68IgO6t4x2mQ1bCw4Kn7nxq81Kn+355a2bFenmRA6T7kIniTGjG/RVGc3ql7xsElRWxnS7t4bs5fUpUwIncecBa/lVc9G2KQ8gZMQOs9FT90JSYZP3kHsVz0WvspYkLmg2wS2wiblDZyE0NWEq6oXa3IArYeN8SPs5qev9Ho7cy3vIHQ14jp4sSYFMJr+Z+xU0bAN0Z6lTIPQ1Uzx4Im7oMHNXqcARhVtav0OFnQ2iYGr+P3wr3BGT4nx6wODjzD72UeZzlKmQehqqKyKN2oQQHaoyvCNB+seTvSM+P5sVbQ1iozhRiF0NWV3giVH9Rt+L+3olavzVcJJIUpiL1jy55U/92Q2xnCjELqac1f1zFuxsTBqcFmdirJZ3YYhdA3gclnhHvMQ2jf6Pbj7nlwFTkLoGqSc8CUxvfPnCYv8ePl5brloJ0chdA1U1USLHlfhyf91o6Bx9jIL6CL77Pqiq7DFELqGqq7q+U+E7CqFImTErjLil1xWtSQIXcN1596bYdQX4WOH2xw+8fPfpTD8M+sEJ8uoZpMgdC3RxsoXMrYSMHaktzh7TF3yAkLXMlH4+p150WI9zIiebWIAo7BxdqC3NHtSXfIKQtdicQBF8xWtk4kWbKrOQfQ9bDGEDtYYDqLvIZTjNHEPPk6fXf9hlWM0UwgdTDRaDWO2AjmYrud/FGPNJ4jYV9XlNVYnQYgGr7RV0tS+Kwgd5JYWSG01Dw8AAAAAAAAAAAAAAAAAAAAkYuz/q72kCoyv7t4AAAAASUVORK5CYII=;" parent="1" vertex="1">
          <mxGeometry x="320" y="465.14" width="19.6" height="19.86" as="geometry" />
        </mxCell>
        <mxCell id="qscG66KzJSfXzBQCQLM1-18" value="" style="shape=image;verticalLabelPosition=bottom;labelBackgroundColor=default;verticalAlign=top;aspect=fixed;imageAspect=0;image=data:image/png,iVBORw0KGgoAAAANSUhEUgAAAN0AAADgCAYAAACHIGNpAAAAAXNSR0IArs4c6QAAAARnQU1BAACxjwv8YQUAAAAJcEhZcwAADsAAAA7AAWrWiQkAABG+SURBVHhe7d1fiB1XHQfw85sb3W1aJW8GkbJ9KgWFBDZNguhNELqbvrR5aoNKs/iQBHxoEGwDSowoSX2pPiWi0uhL0gdJi9julkJ640OTdrVRCo0P0hQfTEuESNJm8+fO8Zy5ZzZ37525c87MOTNnZr4fCJmZ7G52997v/f3On3svAwAAAAAAAAAAAAAAAIDSkfpbW7d7dppNrd/Bgs4mxsIVxoLzvcXZ8+qfASCDUei688vbOGOnxCfNqEsRce0tmurs7r26+Zq6BAApAvV3pu4T723gnJ0ZDZwkru3gt/qn1CkATKAdOnbrzl4itjGqawmI8fnu43/9rjoFgBTa7WV3bvm3jOh7aaG7h/9NfMif1In4H7hoOTHuA4hphS5qLVf6/xaV7gF1yRjGfQADeu3loLXMHTgJ4z6AAb3QcdqgjgoRwRPjvgub1ClAK+lPpNjSD6wEGKCuyg9dJ8SYDlotM3TRJAqjfeq0MB52XpRfU50CtE52pVtdn7MjmlBZufs6ggdtlR063UkUkUxdRLQNwYO2yg5dtLitIWvNfASCB22VHbqAnxZ5WlFnEximTlgN3vzyNnUJoPH0dqTMvfsTkZDD6jQV5zwUQcoOcgLsWIG20AtIJzyhU+1k4MTHherUCCZYoC20Qtd7besVYuGCVvB0g5wA4zxoA+2A9BYfPU2cv6BOJ5Jtpjo0hnEeNJ3+PL/QffzCRh52PhSfNK0upSoyvothnAdNZBQKozZTju8KVDwJ4zxoIuNKZNJmFplYiaHdhKYxai9jJm3mAL8t/qvPq5Pc0G5CE+Qac5m0mRLn7BN1WAjaTWiCXJUu1p1/52nOgpd0Kp6NiZWY+FrnaXrdLlQ8qKNCIYjGdyVOrMQwzoM6K1TpYrrbxCSbFU/COA/qxs6dX3ObmGQzcBLGeVA3VgJgOrFi22q7ieBBDVirOibjOxcwzoO6sDKmG2YyozkgvwURVYswzgOfWQ+dZB48+7CsAL6yOqkRM2817Wc/ajfxitLgISeVLlbV4vkwtJrgG6ehk9BqAqzlpL0cZvKsBFfQaoJPnFc6yfxZCW6g1QQfOK90krvFc7PHDPHR2L0ClSsldNKgzew8Yjd44quZBg+tJlSslPZymA8TKxJaTahK6aGT3ATPvOphVhOqUFp7OczFPk3O6WN1qA2tJlShkkoXs13xOGcfE7EvqVMT23uLs+fVMYBTlVS6mO2KJwPHefjO4Ey2m3rER56SyxrqFMCpSitdzIeKh/EdlMWL0EkIHrRFpe3lMBetpjrUFk2s4Imw4Jg3lS7mzXIC1vHAEe9CJ7kJnjm0m+CCl6GTEDxoKm9DJyF40ETeTKQkyTe5Yv9xZHWCBc9OAAu8rnQxVDxoEq8rXczFXs08Visedq9AAbWodDHziid/PLlcYJf4ipcp6G+XT85VlwC01aLSxcwrnv3ASSLKM7wfnMEYD/KoVeikKHgVv9CRhN0rkFet2stYvhc6ctNqSuKrYvcKaKtdpZPyvdCRm8BJIs54wSPQVsvQSb7MaMYwswm6ahs6KQpe0H9IBO+EulSpKHhh520EDyap5ZhuVL4xnjvRInon3I0lBUhS60oXq/qdYEeh4sEkjQidFLea4vDQ4Eq1RNUdrOUheDCiEe3lqO7c8l7xk72kTislqu9l4p2dvaXNl9UlaLlGhk7yZZO0FAUP28ZAaUx7OcqnJYXVVhPreCA0ttLFvKp4eGoQCI0PnYTggU8a214O86rVlMsJeP+EVmtFpYsVq3jyVxWqv4sTDwDYJN1SrQqdFK2bhSTDdzRf+OxBq9lOrQtdzJdxXhQ8ooN416D2aG3opOLBk78+0ShagHazPVoxkZLm3tax8KC4299Rlw3YCZwk4rsDEyzt0OpKN0xWPfHr+IP48zl1qSLhHvlgoE6ggRC6Ib4ED61ms7W6vRwVVZggfFA8Ep0Qd/y76nLpolYTL//QWKh0KaJJFh6cJGJT6lLpsKTQTKh0KQa7WPgxdVqJ1dddQcVrFIRukk4o28xKt44heM2D9jKDV4voNWg1u92z02xq/Q4WdDaJb1rvd0Zc/EzB+bZsEEDoNLQ9eDJIfP0Xj4r/f79ojVJ+B3LNUt6d5J9865fRrC1jh5oePoROU3fuvRlO/Q/qFLzUqqNZWbrzy8+HjB0eBC0OVZL8QUsSha/BSyYInQFvKh5ji+cWZ3ep0zWGgyY+bp/4XmfUP40ZvnOvDZj619W7h91Q6Zj0M9YdQmfIl+CxoL+599rWi+psELb77n9SfG/y2ROpQRslKmdIJCfUhu8K5Ycs0cjP2BQIXQ4+BC9uM9m1ayt5wraWJyFLxcXPS/8l3v9O742ti+pibSF0OXkRPMbeJ0ZfFEcPqkuNF3L+ScDDZ+ocPoSuAG9aTWdk9StyFyn6+ZOFIbsSsP5C3QKI0BXkx6ymvBltt4cuvqYbotW+TmH4CxYEVxnRRd+XHBA6C5pf8WwoMcSc/4NNr+v6uuSA0FniyzoeDHDObhHvP+lj64nQWVRtxSuxktSIj+M+hM4ytJp+8il8CJ0D1bWaqHZZfAgfQudInoon4vKp+Pj71WmjDHa+kDdPJasyfAidQ00KHmf8EnH2sjpNJb7/KUb07PDPLD83YMH3Oet/jXHakPQxVQh5eC3gfE/ZwUPoHBu8onRnrzg8OrhiQraK5d9EYwEL6CL77Ppir7dT6wm90c/c78yLrzST9rnxx4j/6+EqA1hF8BC6khR/d1i3ARR3/tsUst+wDr1pEjAbfHip+zLbTYSuRHZmNu2GT4Ttqvhqv2c3b/xMBK3SxeSqw1dW1UPoSpY/ePKmkoErZk3raNg2lqXK8EXBY3Sot7TlhLpkHUJXgarW8qLAhbS798bsJXXJa5WO+zhb6C3NnlRnViF0FRk8muedYDEThY3xI+zmp6/4VtV0DQeQiP1A3HWdvwq3q3EeQlex7tyFHzPqHBGH1m+LJoQtiQwg9TtPcQp3iY7hW+IXt079k3Uh45f/srjlIXVqBUJXoe788jbO2RnxyL1RXbImemb5yo2dTQpbkjLGf7YrHkJXEfnisXyl/4GTwNVs7GaD63GyzYrnzbac1rl1Z2924IZnKzVnLjk/QDdvbG5T4KTV9xrkbEFU+WPit2W1wgeMZr7x2PJ/uo9dmFeXckOlq4BeWylvGrMlAtlSnlvasl2dtpqrttPGWh4qXcmitlJrHDcpcOOPlVFLyWlBnbZe77WtV0T1+yXxziPi9JCdykcsoGBDGATH1YVcELqyTWwrdSvb2o9r4xhOV29p8+Xe4uwxYuFC8eANfu+y1SzSZiJ0JRpUueA5dTpOpNEUAqdn8NZnNoI3UKTaIXRlSq1yqnKtLWCZEDgzq5MtLDxYLHzyJbHzVztMpJQkffLEfMJEIsaf5zdv/Krp63Cu2FhiyDupgtCVwPaaHOf87+eWtmxSp5CTleDlWL9De1mGsbYy/2OdqIn/JE5Pq1MoIGo3OTugTnOJ2sy5d/erUy0IXRk4jbx1sXE7+SHj4c9FVnfTzeubMIazZ/BMgnBPoTEe0fHoScqaELpSmY/dIpz9tLf06I96r882auOyL2zMbHLictO6FoTOsWg8x2ifOs2n02/ce7T5pmjwiAUP6s5mInSurY7n5DjOfCwnt3Y18Y0RfVQseJzxgH6nTiZC6FyjQE2gJLWWk0OIrV3lKxI8Ue2+rFPtEDrXeDhhaj8piPdQEO7BpEn5igRPZ6cKQufQYNsXfV2dGkFbWS0ZPEZk/OJEcglBHaZC6Fy6fecAET2gzoyIzzuoDqEixPsfqUMjWS0mQucSZ111ZCSqcp6/m2grBPy0ixYToXOJU67tRcTYkjqECsnn5LloMRE6gAnMWky9JSGEziXiuRZawSNGLea92ehJ28IQOpc4e18dQU3JFpM4f0GdaguJH1aHYxA6Rwbbv4Jvq1Oos054wnRCZdK4DqFzResl9qAOzCZUssd1CJ0rY0/ngTqjMPyfOswwNK5LWa9D6AB0EDd4775BtUtbr0PoKnXvURE8l2MWM21ch9BVRj4a6q3rQPXyLpQnQegqk1TlEEKf6Y/rJkPoSjeppUS76TVOufZijkLoSodqVlfRcxsttJgIHYABGy0mQgdQMoTOS3RZHUADIXQ+wkvuNUbSrhSEzjec/wuvjeIxwxnMpF0pCF3pMpYFiL+pjsBD+jOYg1nqpF0pCF3pMpYMOF1RR+ApvRnM9AdXhA6gZAidK0a70qFWtG/b5K4GoXMl58u3QQ1o37bJLSZC54jNXengl6K3LULnkK1d6eCfIrctQlcpbH5uI4SuUuM9Pyfaqg6hoRA6z4jaN999/MKEt9eCukPoXMq7bNDvIHS+K7AkhNC5lHvZgGe+xxlUrMCSEELnUN6pZYzr/Fdk2QChcyx7anl8BhPjunrIu2yA0FUuedcCxnXNhdB5C+O6JuB8fMIFoXMNG59bjTjvqcNVCJ1rWrNc4+M6TKY0BNHYqwAgdI7pzXKNj+swmdJcCF0J9Ga5xqsdJlOaCaErg9a4LmkWE5MpTYTQlSHn7gXxOXPybZTVKTQEQlcCOa7L82bxRLSNr9x9HcFrFoSuLFpvFp+wOwXB85K8PTijferUCEJXkryzmBKC56Fbd/YSsY3qzAhCV6IiT/GPgnerf0qdQtU45X4AROjKpDWLmbB0oGDtzg9mreX4m8EgdGXSmsVMbjFjPOwcVYdQFZPWMuHNYBC6EhV5DlYM1c4Dmq0l5/y8uM0RuqoR73+kDidIbzEl3g+OY1KlOqIXmVKHE4lbcUkdroHQlc1Ci4lJleqILmOjSNN+dZoh+c09EbqS2WgxpajNnF/epk6hLP1gPzHNmcuUN/dE6Cqg12JmE/XwVPTIC6XRbS3TxnMSQlcFo72Y6eM78S8zYnx3BhWvHNHvWbO1TBvPSQhdBWSLqb8XM3t8J/56+5vzy2cxueJOtDbH2Rnt1jJlPCchdFXR2oupTzyy7sDkikOm275SxnMSQleRqNqxcMFy8LCG54rBtq9J4zkJoatQb/HR02bBSx/fxbCGZ5/Ztq+o5T+oDhMhdBWLgmdpfCfhGQkOGLSWUZVbnD2vThMhdD6wPb7D4rk1csaS8+A5dZqJGP1aHaZC6DyA8Z2fVmcsLU2gxBA6T5iP77JhfJdft3t2mt8OD5sELmsCJYbQecRsfJcN47t8opbyvi98IG6LZ9WlTJzxS8RpQZ1OlD0dBqWS27p42PlQ3DDT6lJh8hGYptft6r26GS/xPoGsbuy++58UY7gXjVrKge1ZEygxhM5D3fl3nuYseMl68IgO6t4x2mQ1bCw4Kn7nxq81Kn+355a2bFenmRA6T7kIniTGjG/RVGc3ql7xsElRWxnS7t4bs5fUpUwIncecBa/lVc9G2KQ8gZMQOs9FT90JSYZP3kHsVz0WvspYkLmg2wS2wiblDZyE0NWEq6oXa3IArYeN8SPs5qev9Ho7cy3vIHQ14jp4sSYFMJr+Z+xU0bAN0Z6lTIPQ1Uzx4Im7oMHNXqcARhVtav0OFnQ2iYGr+P3wr3BGT4nx6wODjzD72UeZzlKmQehqqKyKN2oQQHaoyvCNB+seTvSM+P5sVbQ1iozhRiF0NWV3giVH9Rt+L+3olavzVcJJIUpiL1jy55U/92Q2xnCjELqac1f1zFuxsTBqcFmdirJZ3YYhdA3gclnhHvMQ2jf6Pbj7nlwFTkLoGqSc8CUxvfPnCYv8ePl5brloJ0chdA1U1USLHlfhyf91o6Bx9jIL6CL77Pqiq7DFELqGqq7q+U+E7CqFImTErjLil1xWtSQIXcN1596bYdQX4WOH2xw+8fPfpTD8M+sEJ8uoZpMgdC3RxsoXMrYSMHaktzh7TF3yAkLXMlH4+p150WI9zIiebWIAo7BxdqC3NHtSXfIKQtdicQBF8xWtk4kWbKrOQfQ9bDGEDtYYDqLvIZTjNHEPPk6fXf9hlWM0UwgdTDRaDWO2AjmYrud/FGPNJ4jYV9XlNVYnQYgGr7RV0tS+Kwgd5JYWSG01Dw8AAAAAAAAAAAAAAAAAAAAkYuz/q72kCoyv7t4AAAAASUVORK5CYII=;" parent="1" vertex="1">
          <mxGeometry x="320" y="545.14" width="19.6" height="19.86" as="geometry" />
        </mxCell>
        <mxCell id="qscG66KzJSfXzBQCQLM1-19" value="" style="shape=image;verticalLabelPosition=bottom;labelBackgroundColor=default;verticalAlign=top;aspect=fixed;imageAspect=0;image=data:image/png,iVBORw0KGgoAAAANSUhEUgAAAN0AAADgCAYAAACHIGNpAAAAAXNSR0IArs4c6QAAAARnQU1BAACxjwv8YQUAAAAJcEhZcwAADsAAAA7AAWrWiQkAABG+SURBVHhe7d1fiB1XHQfw85sb3W1aJW8GkbJ9KgWFBDZNguhNELqbvrR5aoNKs/iQBHxoEGwDSowoSX2pPiWi0uhL0gdJi9julkJ640OTdrVRCo0P0hQfTEuESNJm8+fO8Zy5ZzZ37525c87MOTNnZr4fCJmZ7G52997v/f3On3svAwAAAAAAAAAAAAAAAIDSkfpbW7d7dppNrd/Bgs4mxsIVxoLzvcXZ8+qfASCDUei688vbOGOnxCfNqEsRce0tmurs7r26+Zq6BAApAvV3pu4T723gnJ0ZDZwkru3gt/qn1CkATKAdOnbrzl4itjGqawmI8fnu43/9rjoFgBTa7WV3bvm3jOh7aaG7h/9NfMif1In4H7hoOTHuA4hphS5qLVf6/xaV7gF1yRjGfQADeu3loLXMHTgJ4z6AAb3QcdqgjgoRwRPjvgub1ClAK+lPpNjSD6wEGKCuyg9dJ8SYDlotM3TRJAqjfeq0MB52XpRfU50CtE52pVtdn7MjmlBZufs6ggdtlR063UkUkUxdRLQNwYO2yg5dtLitIWvNfASCB22VHbqAnxZ5WlFnEximTlgN3vzyNnUJoPH0dqTMvfsTkZDD6jQV5zwUQcoOcgLsWIG20AtIJzyhU+1k4MTHherUCCZYoC20Qtd7besVYuGCVvB0g5wA4zxoA+2A9BYfPU2cv6BOJ5Jtpjo0hnEeNJ3+PL/QffzCRh52PhSfNK0upSoyvothnAdNZBQKozZTju8KVDwJ4zxoIuNKZNJmFplYiaHdhKYxai9jJm3mAL8t/qvPq5Pc0G5CE+Qac5m0mRLn7BN1WAjaTWiCXJUu1p1/52nOgpd0Kp6NiZWY+FrnaXrdLlQ8qKNCIYjGdyVOrMQwzoM6K1TpYrrbxCSbFU/COA/qxs6dX3ObmGQzcBLGeVA3VgJgOrFi22q7ieBBDVirOibjOxcwzoO6sDKmG2YyozkgvwURVYswzgOfWQ+dZB48+7CsAL6yOqkRM2817Wc/ajfxitLgISeVLlbV4vkwtJrgG6ehk9BqAqzlpL0cZvKsBFfQaoJPnFc6yfxZCW6g1QQfOK90krvFc7PHDPHR2L0ClSsldNKgzew8Yjd44quZBg+tJlSslPZymA8TKxJaTahK6aGT3ATPvOphVhOqUFp7OczFPk3O6WN1qA2tJlShkkoXs13xOGcfE7EvqVMT23uLs+fVMYBTlVS6mO2KJwPHefjO4Ey2m3rER56SyxrqFMCpSitdzIeKh/EdlMWL0EkIHrRFpe3lMBetpjrUFk2s4Imw4Jg3lS7mzXIC1vHAEe9CJ7kJnjm0m+CCl6GTEDxoKm9DJyF40ETeTKQkyTe5Yv9xZHWCBc9OAAu8rnQxVDxoEq8rXczFXs08Visedq9AAbWodDHziid/PLlcYJf4ipcp6G+XT85VlwC01aLSxcwrnv3ASSLKM7wfnMEYD/KoVeikKHgVv9CRhN0rkFet2stYvhc6ctNqSuKrYvcKaKtdpZPyvdCRm8BJIs54wSPQVsvQSb7MaMYwswm6ahs6KQpe0H9IBO+EulSpKHhh520EDyap5ZhuVL4xnjvRInon3I0lBUhS60oXq/qdYEeh4sEkjQidFLea4vDQ4Eq1RNUdrOUheDCiEe3lqO7c8l7xk72kTislqu9l4p2dvaXNl9UlaLlGhk7yZZO0FAUP28ZAaUx7OcqnJYXVVhPreCA0ttLFvKp4eGoQCI0PnYTggU8a214O86rVlMsJeP+EVmtFpYsVq3jyVxWqv4sTDwDYJN1SrQqdFK2bhSTDdzRf+OxBq9lOrQtdzJdxXhQ8ooN416D2aG3opOLBk78+0ShagHazPVoxkZLm3tax8KC4299Rlw3YCZwk4rsDEyzt0OpKN0xWPfHr+IP48zl1qSLhHvlgoE6ggRC6Ib4ED61ms7W6vRwVVZggfFA8Ep0Qd/y76nLpolYTL//QWKh0KaJJFh6cJGJT6lLpsKTQTKh0KQa7WPgxdVqJ1dddQcVrFIRukk4o28xKt44heM2D9jKDV4voNWg1u92z02xq/Q4WdDaJb1rvd0Zc/EzB+bZsEEDoNLQ9eDJIfP0Xj4r/f79ojVJ+B3LNUt6d5J9865fRrC1jh5oePoROU3fuvRlO/Q/qFLzUqqNZWbrzy8+HjB0eBC0OVZL8QUsSha/BSyYInQFvKh5ji+cWZ3ep0zWGgyY+bp/4XmfUP40ZvnOvDZj619W7h91Q6Zj0M9YdQmfIl+CxoL+599rWi+psELb77n9SfG/y2ROpQRslKmdIJCfUhu8K5Ycs0cjP2BQIXQ4+BC9uM9m1ayt5wraWJyFLxcXPS/8l3v9O742ti+pibSF0OXkRPMbeJ0ZfFEcPqkuNF3L+ScDDZ+ocPoSuAG9aTWdk9StyFyn6+ZOFIbsSsP5C3QKI0BXkx6ymvBltt4cuvqYbotW+TmH4CxYEVxnRRd+XHBA6C5pf8WwoMcSc/4NNr+v6uuSA0FniyzoeDHDObhHvP+lj64nQWVRtxSuxktSIj+M+hM4ytJp+8il8CJ0D1bWaqHZZfAgfQudInoon4vKp+Pj71WmjDHa+kDdPJasyfAidQ00KHmf8EnH2sjpNJb7/KUb07PDPLD83YMH3Oet/jXHakPQxVQh5eC3gfE/ZwUPoHBu8onRnrzg8OrhiQraK5d9EYwEL6CL77Ppir7dT6wm90c/c78yLrzST9rnxx4j/6+EqA1hF8BC6khR/d1i3ARR3/tsUst+wDr1pEjAbfHip+zLbTYSuRHZmNu2GT4Ttqvhqv2c3b/xMBK3SxeSqw1dW1UPoSpY/ePKmkoErZk3raNg2lqXK8EXBY3Sot7TlhLpkHUJXgarW8qLAhbS798bsJXXJa5WO+zhb6C3NnlRnViF0FRk8muedYDEThY3xI+zmp6/4VtV0DQeQiP1A3HWdvwq3q3EeQlex7tyFHzPqHBGH1m+LJoQtiQwg9TtPcQp3iY7hW+IXt079k3Uh45f/srjlIXVqBUJXoe788jbO2RnxyL1RXbImemb5yo2dTQpbkjLGf7YrHkJXEfnisXyl/4GTwNVs7GaD63GyzYrnzbac1rl1Z2924IZnKzVnLjk/QDdvbG5T4KTV9xrkbEFU+WPit2W1wgeMZr7x2PJ/uo9dmFeXckOlq4BeWylvGrMlAtlSnlvasl2dtpqrttPGWh4qXcmitlJrHDcpcOOPlVFLyWlBnbZe77WtV0T1+yXxziPi9JCdykcsoGBDGATH1YVcELqyTWwrdSvb2o9r4xhOV29p8+Xe4uwxYuFC8eANfu+y1SzSZiJ0JRpUueA5dTpOpNEUAqdn8NZnNoI3UKTaIXRlSq1yqnKtLWCZEDgzq5MtLDxYLHzyJbHzVztMpJQkffLEfMJEIsaf5zdv/Krp63Cu2FhiyDupgtCVwPaaHOf87+eWtmxSp5CTleDlWL9De1mGsbYy/2OdqIn/JE5Pq1MoIGo3OTugTnOJ2sy5d/erUy0IXRk4jbx1sXE7+SHj4c9FVnfTzeubMIazZ/BMgnBPoTEe0fHoScqaELpSmY/dIpz9tLf06I96r882auOyL2zMbHLictO6FoTOsWg8x2ifOs2n02/ce7T5pmjwiAUP6s5mInSurY7n5DjOfCwnt3Y18Y0RfVQseJzxgH6nTiZC6FyjQE2gJLWWk0OIrV3lKxI8Ue2+rFPtEDrXeDhhaj8piPdQEO7BpEn5igRPZ6cKQufQYNsXfV2dGkFbWS0ZPEZk/OJEcglBHaZC6Fy6fecAET2gzoyIzzuoDqEixPsfqUMjWS0mQucSZ111ZCSqcp6/m2grBPy0ixYToXOJU67tRcTYkjqECsnn5LloMRE6gAnMWky9JSGEziXiuRZawSNGLea92ehJ28IQOpc4e18dQU3JFpM4f0GdaguJH1aHYxA6Rwbbv4Jvq1Oos054wnRCZdK4DqFzResl9qAOzCZUssd1CJ0rY0/ngTqjMPyfOswwNK5LWa9D6AB0EDd4775BtUtbr0PoKnXvURE8l2MWM21ch9BVRj4a6q3rQPXyLpQnQegqk1TlEEKf6Y/rJkPoSjeppUS76TVOufZijkLoSodqVlfRcxsttJgIHYABGy0mQgdQMoTOS3RZHUADIXQ+wkvuNUbSrhSEzjec/wuvjeIxwxnMpF0pCF3pMpYFiL+pjsBD+jOYg1nqpF0pCF3pMpYMOF1RR+ApvRnM9AdXhA6gZAidK0a70qFWtG/b5K4GoXMl58u3QQ1o37bJLSZC54jNXengl6K3LULnkK1d6eCfIrctQlcpbH5uI4SuUuM9Pyfaqg6hoRA6z4jaN999/MKEt9eCukPoXMq7bNDvIHS+K7AkhNC5lHvZgGe+xxlUrMCSEELnUN6pZYzr/Fdk2QChcyx7anl8BhPjunrIu2yA0FUuedcCxnXNhdB5C+O6JuB8fMIFoXMNG59bjTjvqcNVCJ1rWrNc4+M6TKY0BNHYqwAgdI7pzXKNj+swmdJcCF0J9Ga5xqsdJlOaCaErg9a4LmkWE5MpTYTQlSHn7gXxOXPybZTVKTQEQlcCOa7L82bxRLSNr9x9HcFrFoSuLFpvFp+wOwXB85K8PTijferUCEJXkryzmBKC56Fbd/YSsY3qzAhCV6IiT/GPgnerf0qdQtU45X4AROjKpDWLmbB0oGDtzg9mreX4m8EgdGXSmsVMbjFjPOwcVYdQFZPWMuHNYBC6EhV5DlYM1c4Dmq0l5/y8uM0RuqoR73+kDidIbzEl3g+OY1KlOqIXmVKHE4lbcUkdroHQlc1Ci4lJleqILmOjSNN+dZoh+c09EbqS2WgxpajNnF/epk6hLP1gPzHNmcuUN/dE6Cqg12JmE/XwVPTIC6XRbS3TxnMSQlcFo72Y6eM78S8zYnx3BhWvHNHvWbO1TBvPSQhdBWSLqb8XM3t8J/56+5vzy2cxueJOtDbH2Rnt1jJlPCchdFXR2oupTzyy7sDkikOm275SxnMSQleRqNqxcMFy8LCG54rBtq9J4zkJoatQb/HR02bBSx/fxbCGZ5/Ztq+o5T+oDhMhdBWLgmdpfCfhGQkOGLSWUZVbnD2vThMhdD6wPb7D4rk1csaS8+A5dZqJGP1aHaZC6DyA8Z2fVmcsLU2gxBA6T5iP77JhfJdft3t2mt8OD5sELmsCJYbQecRsfJcN47t8opbyvi98IG6LZ9WlTJzxS8RpQZ1OlD0dBqWS27p42PlQ3DDT6lJh8hGYptft6r26GS/xPoGsbuy++58UY7gXjVrKge1ZEygxhM5D3fl3nuYseMl68IgO6t4x2mQ1bCw4Kn7nxq81Kn+355a2bFenmRA6T7kIniTGjG/RVGc3ql7xsElRWxnS7t4bs5fUpUwIncecBa/lVc9G2KQ8gZMQOs9FT90JSYZP3kHsVz0WvspYkLmg2wS2wiblDZyE0NWEq6oXa3IArYeN8SPs5qev9Ho7cy3vIHQ14jp4sSYFMJr+Z+xU0bAN0Z6lTIPQ1Uzx4Im7oMHNXqcARhVtav0OFnQ2iYGr+P3wr3BGT4nx6wODjzD72UeZzlKmQehqqKyKN2oQQHaoyvCNB+seTvSM+P5sVbQ1iozhRiF0NWV3giVH9Rt+L+3olavzVcJJIUpiL1jy55U/92Q2xnCjELqac1f1zFuxsTBqcFmdirJZ3YYhdA3gclnhHvMQ2jf6Pbj7nlwFTkLoGqSc8CUxvfPnCYv8ePl5brloJ0chdA1U1USLHlfhyf91o6Bx9jIL6CL77Pqiq7DFELqGqq7q+U+E7CqFImTErjLil1xWtSQIXcN1596bYdQX4WOH2xw+8fPfpTD8M+sEJ8uoZpMgdC3RxsoXMrYSMHaktzh7TF3yAkLXMlH4+p150WI9zIiebWIAo7BxdqC3NHtSXfIKQtdicQBF8xWtk4kWbKrOQfQ9bDGEDtYYDqLvIZTjNHEPPk6fXf9hlWM0UwgdTDRaDWO2AjmYrud/FGPNJ4jYV9XlNVYnQYgGr7RV0tS+Kwgd5JYWSG01Dw8AAAAAAAAAAAAAAAAAAAAkYuz/q72kCoyv7t4AAAAASUVORK5CYII=;" parent="1" vertex="1">
          <mxGeometry x="520.4" y="465.14" width="19.6" height="19.86" as="geometry" />
        </mxCell>
        <mxCell id="qscG66KzJSfXzBQCQLM1-20" value="" style="shape=image;verticalLabelPosition=bottom;labelBackgroundColor=default;verticalAlign=top;aspect=fixed;imageAspect=0;image=data:image/png,iVBORw0KGgoAAAANSUhEUgAAAN0AAADgCAYAAACHIGNpAAAAAXNSR0IArs4c6QAAAARnQU1BAACxjwv8YQUAAAAJcEhZcwAADsAAAA7AAWrWiQkAABG+SURBVHhe7d1fiB1XHQfw85sb3W1aJW8GkbJ9KgWFBDZNguhNELqbvrR5aoNKs/iQBHxoEGwDSowoSX2pPiWi0uhL0gdJi9julkJ640OTdrVRCo0P0hQfTEuESNJm8+fO8Zy5ZzZ37525c87MOTNnZr4fCJmZ7G52997v/f3On3svAwAAAAAAAAAAAAAAAIDSkfpbW7d7dppNrd/Bgs4mxsIVxoLzvcXZ8+qfASCDUei688vbOGOnxCfNqEsRce0tmurs7r26+Zq6BAApAvV3pu4T723gnJ0ZDZwkru3gt/qn1CkATKAdOnbrzl4itjGqawmI8fnu43/9rjoFgBTa7WV3bvm3jOh7aaG7h/9NfMif1In4H7hoOTHuA4hphS5qLVf6/xaV7gF1yRjGfQADeu3loLXMHTgJ4z6AAb3QcdqgjgoRwRPjvgub1ClAK+lPpNjSD6wEGKCuyg9dJ8SYDlotM3TRJAqjfeq0MB52XpRfU50CtE52pVtdn7MjmlBZufs6ggdtlR063UkUkUxdRLQNwYO2yg5dtLitIWvNfASCB22VHbqAnxZ5WlFnEximTlgN3vzyNnUJoPH0dqTMvfsTkZDD6jQV5zwUQcoOcgLsWIG20AtIJzyhU+1k4MTHherUCCZYoC20Qtd7besVYuGCVvB0g5wA4zxoA+2A9BYfPU2cv6BOJ5Jtpjo0hnEeNJ3+PL/QffzCRh52PhSfNK0upSoyvothnAdNZBQKozZTju8KVDwJ4zxoIuNKZNJmFplYiaHdhKYxai9jJm3mAL8t/qvPq5Pc0G5CE+Qac5m0mRLn7BN1WAjaTWiCXJUu1p1/52nOgpd0Kp6NiZWY+FrnaXrdLlQ8qKNCIYjGdyVOrMQwzoM6K1TpYrrbxCSbFU/COA/qxs6dX3ObmGQzcBLGeVA3VgJgOrFi22q7ieBBDVirOibjOxcwzoO6sDKmG2YyozkgvwURVYswzgOfWQ+dZB48+7CsAL6yOqkRM2817Wc/ajfxitLgISeVLlbV4vkwtJrgG6ehk9BqAqzlpL0cZvKsBFfQaoJPnFc6yfxZCW6g1QQfOK90krvFc7PHDPHR2L0ClSsldNKgzew8Yjd44quZBg+tJlSslPZymA8TKxJaTahK6aGT3ATPvOphVhOqUFp7OczFPk3O6WN1qA2tJlShkkoXs13xOGcfE7EvqVMT23uLs+fVMYBTlVS6mO2KJwPHefjO4Ey2m3rER56SyxrqFMCpSitdzIeKh/EdlMWL0EkIHrRFpe3lMBetpjrUFk2s4Imw4Jg3lS7mzXIC1vHAEe9CJ7kJnjm0m+CCl6GTEDxoKm9DJyF40ETeTKQkyTe5Yv9xZHWCBc9OAAu8rnQxVDxoEq8rXczFXs08Visedq9AAbWodDHziid/PLlcYJf4ipcp6G+XT85VlwC01aLSxcwrnv3ASSLKM7wfnMEYD/KoVeikKHgVv9CRhN0rkFet2stYvhc6ctNqSuKrYvcKaKtdpZPyvdCRm8BJIs54wSPQVsvQSb7MaMYwswm6ahs6KQpe0H9IBO+EulSpKHhh520EDyap5ZhuVL4xnjvRInon3I0lBUhS60oXq/qdYEeh4sEkjQidFLea4vDQ4Eq1RNUdrOUheDCiEe3lqO7c8l7xk72kTislqu9l4p2dvaXNl9UlaLlGhk7yZZO0FAUP28ZAaUx7OcqnJYXVVhPreCA0ttLFvKp4eGoQCI0PnYTggU8a214O86rVlMsJeP+EVmtFpYsVq3jyVxWqv4sTDwDYJN1SrQqdFK2bhSTDdzRf+OxBq9lOrQtdzJdxXhQ8ooN416D2aG3opOLBk78+0ShagHazPVoxkZLm3tax8KC4299Rlw3YCZwk4rsDEyzt0OpKN0xWPfHr+IP48zl1qSLhHvlgoE6ggRC6Ib4ED61ms7W6vRwVVZggfFA8Ep0Qd/y76nLpolYTL//QWKh0KaJJFh6cJGJT6lLpsKTQTKh0KQa7WPgxdVqJ1dddQcVrFIRukk4o28xKt44heM2D9jKDV4voNWg1u92z02xq/Q4WdDaJb1rvd0Zc/EzB+bZsEEDoNLQ9eDJIfP0Xj4r/f79ojVJ+B3LNUt6d5J9865fRrC1jh5oePoROU3fuvRlO/Q/qFLzUqqNZWbrzy8+HjB0eBC0OVZL8QUsSha/BSyYInQFvKh5ji+cWZ3ep0zWGgyY+bp/4XmfUP40ZvnOvDZj619W7h91Q6Zj0M9YdQmfIl+CxoL+599rWi+psELb77n9SfG/y2ROpQRslKmdIJCfUhu8K5Ycs0cjP2BQIXQ4+BC9uM9m1ayt5wraWJyFLxcXPS/8l3v9O742ti+pibSF0OXkRPMbeJ0ZfFEcPqkuNF3L+ScDDZ+ocPoSuAG9aTWdk9StyFyn6+ZOFIbsSsP5C3QKI0BXkx6ymvBltt4cuvqYbotW+TmH4CxYEVxnRRd+XHBA6C5pf8WwoMcSc/4NNr+v6uuSA0FniyzoeDHDObhHvP+lj64nQWVRtxSuxktSIj+M+hM4ytJp+8il8CJ0D1bWaqHZZfAgfQudInoon4vKp+Pj71WmjDHa+kDdPJasyfAidQ00KHmf8EnH2sjpNJb7/KUb07PDPLD83YMH3Oet/jXHakPQxVQh5eC3gfE/ZwUPoHBu8onRnrzg8OrhiQraK5d9EYwEL6CL77Ppir7dT6wm90c/c78yLrzST9rnxx4j/6+EqA1hF8BC6khR/d1i3ARR3/tsUst+wDr1pEjAbfHip+zLbTYSuRHZmNu2GT4Ttqvhqv2c3b/xMBK3SxeSqw1dW1UPoSpY/ePKmkoErZk3raNg2lqXK8EXBY3Sot7TlhLpkHUJXgarW8qLAhbS798bsJXXJa5WO+zhb6C3NnlRnViF0FRk8muedYDEThY3xI+zmp6/4VtV0DQeQiP1A3HWdvwq3q3EeQlex7tyFHzPqHBGH1m+LJoQtiQwg9TtPcQp3iY7hW+IXt079k3Uh45f/srjlIXVqBUJXoe788jbO2RnxyL1RXbImemb5yo2dTQpbkjLGf7YrHkJXEfnisXyl/4GTwNVs7GaD63GyzYrnzbac1rl1Z2924IZnKzVnLjk/QDdvbG5T4KTV9xrkbEFU+WPit2W1wgeMZr7x2PJ/uo9dmFeXckOlq4BeWylvGrMlAtlSnlvasl2dtpqrttPGWh4qXcmitlJrHDcpcOOPlVFLyWlBnbZe77WtV0T1+yXxziPi9JCdykcsoGBDGATH1YVcELqyTWwrdSvb2o9r4xhOV29p8+Xe4uwxYuFC8eANfu+y1SzSZiJ0JRpUueA5dTpOpNEUAqdn8NZnNoI3UKTaIXRlSq1yqnKtLWCZEDgzq5MtLDxYLHzyJbHzVztMpJQkffLEfMJEIsaf5zdv/Krp63Cu2FhiyDupgtCVwPaaHOf87+eWtmxSp5CTleDlWL9De1mGsbYy/2OdqIn/JE5Pq1MoIGo3OTugTnOJ2sy5d/erUy0IXRk4jbx1sXE7+SHj4c9FVnfTzeubMIazZ/BMgnBPoTEe0fHoScqaELpSmY/dIpz9tLf06I96r882auOyL2zMbHLictO6FoTOsWg8x2ifOs2n02/ce7T5pmjwiAUP6s5mInSurY7n5DjOfCwnt3Y18Y0RfVQseJzxgH6nTiZC6FyjQE2gJLWWk0OIrV3lKxI8Ue2+rFPtEDrXeDhhaj8piPdQEO7BpEn5igRPZ6cKQufQYNsXfV2dGkFbWS0ZPEZk/OJEcglBHaZC6Fy6fecAET2gzoyIzzuoDqEixPsfqUMjWS0mQucSZ111ZCSqcp6/m2grBPy0ixYToXOJU67tRcTYkjqECsnn5LloMRE6gAnMWky9JSGEziXiuRZawSNGLea92ehJ28IQOpc4e18dQU3JFpM4f0GdaguJH1aHYxA6Rwbbv4Jvq1Oos054wnRCZdK4DqFzResl9qAOzCZUssd1CJ0rY0/ngTqjMPyfOswwNK5LWa9D6AB0EDd4775BtUtbr0PoKnXvURE8l2MWM21ch9BVRj4a6q3rQPXyLpQnQegqk1TlEEKf6Y/rJkPoSjeppUS76TVOufZijkLoSodqVlfRcxsttJgIHYABGy0mQgdQMoTOS3RZHUADIXQ+wkvuNUbSrhSEzjec/wuvjeIxwxnMpF0pCF3pMpYFiL+pjsBD+jOYg1nqpF0pCF3pMpYMOF1RR+ApvRnM9AdXhA6gZAidK0a70qFWtG/b5K4GoXMl58u3QQ1o37bJLSZC54jNXengl6K3LULnkK1d6eCfIrctQlcpbH5uI4SuUuM9Pyfaqg6hoRA6z4jaN999/MKEt9eCukPoXMq7bNDvIHS+K7AkhNC5lHvZgGe+xxlUrMCSEELnUN6pZYzr/Fdk2QChcyx7anl8BhPjunrIu2yA0FUuedcCxnXNhdB5C+O6JuB8fMIFoXMNG59bjTjvqcNVCJ1rWrNc4+M6TKY0BNHYqwAgdI7pzXKNj+swmdJcCF0J9Ga5xqsdJlOaCaErg9a4LmkWE5MpTYTQlSHn7gXxOXPybZTVKTQEQlcCOa7L82bxRLSNr9x9HcFrFoSuLFpvFp+wOwXB85K8PTijferUCEJXkryzmBKC56Fbd/YSsY3qzAhCV6IiT/GPgnerf0qdQtU45X4AROjKpDWLmbB0oGDtzg9mreX4m8EgdGXSmsVMbjFjPOwcVYdQFZPWMuHNYBC6EhV5DlYM1c4Dmq0l5/y8uM0RuqoR73+kDidIbzEl3g+OY1KlOqIXmVKHE4lbcUkdroHQlc1Ci4lJleqILmOjSNN+dZoh+c09EbqS2WgxpajNnF/epk6hLP1gPzHNmcuUN/dE6Cqg12JmE/XwVPTIC6XRbS3TxnMSQlcFo72Y6eM78S8zYnx3BhWvHNHvWbO1TBvPSQhdBWSLqb8XM3t8J/56+5vzy2cxueJOtDbH2Rnt1jJlPCchdFXR2oupTzyy7sDkikOm275SxnMSQleRqNqxcMFy8LCG54rBtq9J4zkJoatQb/HR02bBSx/fxbCGZ5/Ztq+o5T+oDhMhdBWLgmdpfCfhGQkOGLSWUZVbnD2vThMhdD6wPb7D4rk1csaS8+A5dZqJGP1aHaZC6DyA8Z2fVmcsLU2gxBA6T5iP77JhfJdft3t2mt8OD5sELmsCJYbQecRsfJcN47t8opbyvi98IG6LZ9WlTJzxS8RpQZ1OlD0dBqWS27p42PlQ3DDT6lJh8hGYptft6r26GS/xPoGsbuy++58UY7gXjVrKge1ZEygxhM5D3fl3nuYseMl68IgO6t4x2mQ1bCw4Kn7nxq81Kn+355a2bFenmRA6T7kIniTGjG/RVGc3ql7xsElRWxnS7t4bs5fUpUwIncecBa/lVc9G2KQ8gZMQOs9FT90JSYZP3kHsVz0WvspYkLmg2wS2wiblDZyE0NWEq6oXa3IArYeN8SPs5qev9Ho7cy3vIHQ14jp4sSYFMJr+Z+xU0bAN0Z6lTIPQ1Uzx4Im7oMHNXqcARhVtav0OFnQ2iYGr+P3wr3BGT4nx6wODjzD72UeZzlKmQehqqKyKN2oQQHaoyvCNB+seTvSM+P5sVbQ1iozhRiF0NWV3giVH9Rt+L+3olavzVcJJIUpiL1jy55U/92Q2xnCjELqac1f1zFuxsTBqcFmdirJZ3YYhdA3gclnhHvMQ2jf6Pbj7nlwFTkLoGqSc8CUxvfPnCYv8ePl5brloJ0chdA1U1USLHlfhyf91o6Bx9jIL6CL77Pqiq7DFELqGqq7q+U+E7CqFImTErjLil1xWtSQIXcN1596bYdQX4WOH2xw+8fPfpTD8M+sEJ8uoZpMgdC3RxsoXMrYSMHaktzh7TF3yAkLXMlH4+p150WI9zIiebWIAo7BxdqC3NHtSXfIKQtdicQBF8xWtk4kWbKrOQfQ9bDGEDtYYDqLvIZTjNHEPPk6fXf9hlWM0UwgdTDRaDWO2AjmYrud/FGPNJ4jYV9XlNVYnQYgGr7RV0tS+Kwgd5JYWSG01Dw8AAAAAAAAAAAAAAAAAAAAkYuz/q72kCoyv7t4AAAAASUVORK5CYII=;" parent="1" vertex="1">
          <mxGeometry x="520" y="545.14" width="19.6" height="19.86" as="geometry" />
        </mxCell>
      </root>
    </mxGraphModel>
  </diagram>
  <diagram id="BePL0eET0lS4Yv2gOPst" name="B_Cycle">
    <mxGraphModel dx="877" dy="468" grid="1" gridSize="10" guides="1" tooltips="1" connect="1" arrows="1" fold="1" page="1" pageScale="1" pageWidth="850" pageHeight="1100" math="0" shadow="0">
      <root>
        <mxCell id="0" />
        <mxCell id="1" parent="0" />
        <mxCell id="KWbQpUOCJT9VVSy9cRNQ-1" style="edgeStyle=orthogonalEdgeStyle;rounded=0;orthogonalLoop=1;jettySize=auto;html=1;" edge="1" parent="1" source="KWbQpUOCJT9VVSy9cRNQ-2" target="KWbQpUOCJT9VVSy9cRNQ-10">
          <mxGeometry relative="1" as="geometry" />
        </mxCell>
        <mxCell id="KWbQpUOCJT9VVSy9cRNQ-2" value="" style="rounded=0;whiteSpace=wrap;html=1;fillColor=none;dashed=1;dashPattern=1 4;" vertex="1" parent="1">
          <mxGeometry x="180" y="460" width="160" height="160" as="geometry" />
        </mxCell>
        <mxCell id="KWbQpUOCJT9VVSy9cRNQ-3" value="" style="ellipse;whiteSpace=wrap;html=1;aspect=fixed;fillColor=#1ba1e2;strokeColor=#006EAF;fontColor=#ffffff;" vertex="1" parent="1">
          <mxGeometry x="280" y="480" width="40" height="40" as="geometry" />
        </mxCell>
        <mxCell id="KWbQpUOCJT9VVSy9cRNQ-4" value="&lt;span style=&quot;font-size: 10px;&quot;&gt;A &quot;cycle&quot; node must be part of a cycle.&amp;nbsp;&lt;/span&gt;" style="text;html=1;align=center;verticalAlign=middle;whiteSpace=wrap;rounded=0;" vertex="1" parent="1">
          <mxGeometry x="10" y="520" width="150" height="35" as="geometry" />
        </mxCell>
        <mxCell id="KWbQpUOCJT9VVSy9cRNQ-5" value="Cycle" style="text;html=1;align=left;verticalAlign=middle;whiteSpace=wrap;rounded=0;" vertex="1" parent="1">
          <mxGeometry x="180" y="440" width="60" height="20" as="geometry" />
        </mxCell>
        <mxCell id="KWbQpUOCJT9VVSy9cRNQ-7" value="" style="ellipse;whiteSpace=wrap;html=1;aspect=fixed;fillColor=#1ba1e2;strokeColor=#006EAF;fontColor=#ffffff;" vertex="1" parent="1">
          <mxGeometry x="200" y="480.14" width="40" height="40" as="geometry" />
        </mxCell>
        <mxCell id="KWbQpUOCJT9VVSy9cRNQ-8" value="" style="ellipse;whiteSpace=wrap;html=1;aspect=fixed;fillColor=#1ba1e2;strokeColor=#006EAF;fontColor=#ffffff;" vertex="1" parent="1">
          <mxGeometry x="280" y="560" width="40" height="40" as="geometry" />
        </mxCell>
        <mxCell id="KWbQpUOCJT9VVSy9cRNQ-9" value="" style="ellipse;whiteSpace=wrap;html=1;aspect=fixed;fillColor=#1ba1e2;strokeColor=#006EAF;fontColor=#ffffff;" vertex="1" parent="1">
          <mxGeometry x="200" y="560" width="40" height="40" as="geometry" />
        </mxCell>
        <mxCell id="KWbQpUOCJT9VVSy9cRNQ-10" value="" style="rounded=0;whiteSpace=wrap;html=1;fillColor=none;dashed=1;dashPattern=1 4;" vertex="1" parent="1">
          <mxGeometry x="380" y="460" width="160" height="160" as="geometry" />
        </mxCell>
        <mxCell id="KWbQpUOCJT9VVSy9cRNQ-26" style="edgeStyle=orthogonalEdgeStyle;rounded=0;orthogonalLoop=1;jettySize=auto;html=1;exitX=0.5;exitY=1;exitDx=0;exitDy=0;endArrow=none;endFill=0;" edge="1" parent="1" source="KWbQpUOCJT9VVSy9cRNQ-11" target="KWbQpUOCJT9VVSy9cRNQ-15">
          <mxGeometry relative="1" as="geometry" />
        </mxCell>
        <mxCell id="KWbQpUOCJT9VVSy9cRNQ-11" value="" style="ellipse;whiteSpace=wrap;html=1;aspect=fixed;fillColor=#1ba1e2;strokeColor=#006EAF;fontColor=#ffffff;" vertex="1" parent="1">
          <mxGeometry x="480" y="480" width="40" height="40" as="geometry" />
        </mxCell>
        <mxCell id="KWbQpUOCJT9VVSy9cRNQ-13" style="edgeStyle=orthogonalEdgeStyle;rounded=0;orthogonalLoop=1;jettySize=auto;html=1;endArrow=none;endFill=0;" edge="1" parent="1" source="KWbQpUOCJT9VVSy9cRNQ-14" target="KWbQpUOCJT9VVSy9cRNQ-18">
          <mxGeometry relative="1" as="geometry" />
        </mxCell>
        <mxCell id="KWbQpUOCJT9VVSy9cRNQ-25" style="edgeStyle=orthogonalEdgeStyle;rounded=0;orthogonalLoop=1;jettySize=auto;html=1;strokeColor=default;startArrow=none;startFill=0;endArrow=none;endFill=0;" edge="1" parent="1" source="KWbQpUOCJT9VVSy9cRNQ-14" target="KWbQpUOCJT9VVSy9cRNQ-11">
          <mxGeometry relative="1" as="geometry" />
        </mxCell>
        <mxCell id="KWbQpUOCJT9VVSy9cRNQ-14" value="" style="ellipse;whiteSpace=wrap;html=1;aspect=fixed;fillColor=#1ba1e2;strokeColor=#006EAF;fontColor=#ffffff;" vertex="1" parent="1">
          <mxGeometry x="400" y="480.14" width="40" height="40" as="geometry" />
        </mxCell>
        <mxCell id="KWbQpUOCJT9VVSy9cRNQ-15" value="" style="ellipse;whiteSpace=wrap;html=1;aspect=fixed;fillColor=#1ba1e2;strokeColor=#006EAF;fontColor=#ffffff;" vertex="1" parent="1">
          <mxGeometry x="480" y="560" width="40" height="40" as="geometry" />
        </mxCell>
        <mxCell id="KWbQpUOCJT9VVSy9cRNQ-16" style="edgeStyle=orthogonalEdgeStyle;rounded=0;orthogonalLoop=1;jettySize=auto;html=1;endArrow=none;endFill=0;" edge="1" parent="1" source="KWbQpUOCJT9VVSy9cRNQ-18" target="KWbQpUOCJT9VVSy9cRNQ-15">
          <mxGeometry relative="1" as="geometry" />
        </mxCell>
        <mxCell id="KWbQpUOCJT9VVSy9cRNQ-18" value="" style="ellipse;whiteSpace=wrap;html=1;aspect=fixed;fillColor=#1ba1e2;strokeColor=#006EAF;fontColor=#ffffff;" vertex="1" parent="1">
          <mxGeometry x="400" y="560" width="40" height="40" as="geometry" />
        </mxCell>
        <mxCell id="KWbQpUOCJT9VVSy9cRNQ-23" value="" style="shape=image;verticalLabelPosition=bottom;labelBackgroundColor=default;verticalAlign=top;aspect=fixed;imageAspect=0;image=data:image/png,iVBORw0KGgoAAAANSUhEUgAAAN0AAADgCAYAAACHIGNpAAAAAXNSR0IArs4c6QAAAARnQU1BAACxjwv8YQUAAAAJcEhZcwAADsEAAA7BAbiRa+0AABFvSURBVHhe7Z0/kBzFFca12q1CmalygJyJCIhAkXHV/eEyEaHMZJYiUITIUAQXSUQ4AyKkSCgCIp+j9d2qLBxJRODIciZnCq/q9vb8vdse1Wq1p5vpee9198z3q9qanis47e7NN9/709N9hhBCCCGEEEIIIYQQQgghhBBCCOk6g3AkJBnj8fjN0Wh0PpyeGQwGT9fW1h6F085B0ZFk7O7uXj979uxHGL45/8lzPMbrznQ6vbW1tbU//1E3oOiIO+Jsw+HwOzjau+FHL+M3vK6ur6//PD8tn7PhSIgLcLfPEEo+rCk4QVzwgfx/89PyodMRFxq620lswfH+EcbFQtERc+BSV5C7fY3huflPonmCHO8t5HhPw3mRMLwkpkhYqCQ44TxC06/CuFjodMQEpXByFftwuz+U7HZ0OqKOhJMNiyVNOAcxvxfGRULREVXu37//jmI4uZKjo6NVfb1ioOiIGuJwEMQDDM0EJ0DUpr/fGoqOqKBYoew8FB1pjXKFsvNQdCQaiO36ZDL5FYK7iVM3wSGElalhxcKWAWmMYTugFtPp9PWtrS2ZEF0kdDrSCON2wKnA5R6VLDiBoiO1yaBYso9//2oYFwtFR2qRQ7FkNpttd+HhVuZ05KWkzt8W2FlfX38/jIuGTkdORNwtZf62QGcEJ9DpyAtk5G77ElJubm7eCuedgKIjzxFyt88xTN3o7twyDRUUHTkmI3cTOhVOLsOcjiTvvS0g4eSNLgtOoNP1nAx6bxWdDSeXodP1mBx6b4Gd6XR6sQ+CE+h0PQRie9kir950On9bBUXXIzIrlgi9E5xA0fWEjHK3il4KTqDoViCOMBqNzs9mswu4UC+EH0eD3/MYv+cxHCbJxhiZCa6TDe8m9F50iwJD6PXG0dHRZfzYMtdx3RgjfL6HGD4nOHxO2R0nnLnyBP/u94eHh7+kvBGlpLeiy6CY4FIi39vbe7CYw4nY8LmPjxnR2R16VtEr0cldHxfcZbz+gtMslnGTZrBVqBVuLMcrIjdxNvnvEolSXPA2jve4P13hZFYiX4XJxhiTyeQ/OETnpAlDUIH705UIxCbN32xc7SWob4whi75CNA8TC0cD7k9XAiK2hVWqchecoL4xBsLW489duOAE+RwPcBO5ifQgl3ZHKzolOrm7S+GgILEt8iEuqlfDuDVwuFcT5WUm4LMcP1CLm2kujf1oOiE6ydnE2SScwp291D+K9sYY+x1wuWU64XpFi06qkcHZJDQrzdleADcNtc8AVzgMw85RuusVKzrJ2+SLL9jZXgA3D7W79+FhZzVXUazrFSe6BXdzXcq7NOAGvw/DTlOi6xUjOhFbF91tEVxAamv046akVpQpgGPXk+tjfpo32YuuKpJAbO4bVXiDkFCtFzWbzTo/nWoZuT5KEF62outakeQ04HLaa/Q/CcdeUYLwshQdvrRcFsrxQn2Nfvw+tVC1NHIXXnaikwY3vrScHrY0R54v057gO51O5fepTSsrjZyFl5XoxOEQZpnvWZ0ZOxZPGYRJwt/Pz/pJrsLLRnQiuJ45nMcaj3fCsbfkKLwsRNdDwUm+tWW9ZIFxiDlFVPLPMM6a3ISXfHJeYYITsdybD5sDZ3uK1w5CP7cix2Qyke/24/mZOrch7G38/S7hdT78TCqxm4PBQHMeqRYmzy02JanoMhfcM4GlEIsW4/FYHhv6FUOTZrmEyKscG/+uLOr0TIyZCFH9ucUYkokuR8FJrwyvO6UK7CSM3e5E4S2zIMQPcHpp/lN3bsPtkm6hnER0GQpOBNbZdfSD28nSDWbfd13hVch7Gg6HdxO5X9Iw0110GQnuN1wo33bN1U4CbvcdDlfmZzY0FZ4g7ocbglwPns6XNMx0FV0ugsPd9dbBwcE2vvTezE8MbmeW2y0Q5SLWIfAKkoWZbqLDH33loqeeSM4GwV3rahh5Gk4XdrSLeAsvxpk1cOvTycYVOKQS3HEjemNjozfbMa1Cyvs4WIdU0Yss4W9zDX8ncR+XsA9RV5L+nYvo5IPBYVJNXpZ8zbwRXQJwH3nywGNq2JXYixl/J+n9vYWoxKXQIcKDw7oWc8zDy4R5XKcrkrE45natwzfHcNO1sGLqdJLHJRBcNafxLQruRRzdrnX4JuEmDt/Mz0yJDoljMBVdgjyOoWQNQm7n8pBrQcKTdUefTWWzxEx0znmc7FktzkZ3q4G4HXImuZhdUBKetTufg9vJciDmmOR0znlcb3f0bEuC3lj0TJCQi0rLydKN9nHzfj2E4GaoO51zHkfBtSA4iEfoVnEX10dUAcfJnV3cTl10jnkcBaeAs/BaFSw2NjZ+xMH6vZrndqqiQ1h53SmPo+AUcRbelTZ9MYf3au52qqJDWPlJGFpCwRkQLmavNVWiw0zB4b2aup2a6MTlcIje9bMOMneSgrNjOp1+ioNHK6F1X8z4vZq6nZroHFxOfW1I8jzOrYRWYabDezVzOxXRebjczGBtSPIiTsWKilZhZnivVmGmmdupiM7B5UzWhiSrcShWVGiFmVZzJlu58Um0Fp21yzGPS4Oj8FqFcaGRbVlUaeXGq2gtOmOXYx6XECfhtQ7j4HaWzwmqT4ZuJTprl2Melx4n4bUuquBQTAuhleiMXY55XCYE4Vn38FqFccZup1pUiRadpcsxj8sPhx5eqzCuJLeLFp2lyzGPyw+nHl70Mg9CcLvsG+ZRopM95HAwcznmcXli3Bc7Bjfc6GfvSmmYR4luNpuZbUdMl8sbhzDzWHixhZUSGuZRosPdhC7XU5zCTCG6sBJuDFZFldZuFyU63Ik+CkNV6HJl4BFmgujCinFRpbXbNRadVT5HlysLjzATiKvEup1lC6GV2zUW3eHhofpcNIEuVxZOYea54XAYdb3l7HaNRQdxqLcK6HJl4hFm4tqILto5uF2UCzcSnVVoORgMfgpDUhjWYSZu8tHr7Vi7XawLNxKdVasAd7PO7w/XVRyrmVFYul2sCzcSHf4RtUmfiyBP5AKxBeNUzYzC0u3gwm+HYSMaiQ52+loYqgEhP8IX8zickkKxCjM1oiBDt7sck9c1dboPw1CTL8ORFIxVmKkRBRm6XVReV1t0VkUUhpbdIYSZas/eaUZBVm6H99g4r6stOosiiuaXSvJA8aFX1VUDrNwuJq+rLToIRL2IwlZBN9EQnsWqAfid/wpDTRrndbVFB0VHNQJJP2kpPJNVA3ANW7SmGud1tUUHV3olDNWAe7I/12FEeHAXCRHr5lLVLromqwYgrxPnTJ7XNQkv1SuXLKJ0HzhW3Y37zXfRRV63j4NFXtdo1kytTSGlcokvTTbkUwO/79HGxsbFcEp6AHKfC7hAL+H1rD4AZ3uK1w4E4RL17M43LJXt3DTZhjt/EcanUkt0e3t7HyK8vBtOtWj0RgnRYDKZyFZuD+ZnajS6lmuFl3Alk+lfhHhjldc1oZboYMesXJJOEPI6aeJr8kY41qJ2IUUbuCcrlyQV/w1HLS6FYy2SiY6VS9IhXh2Px7XbBklEJ5VLTv8iqZjNZhJiqjIcDmVuci2SiI7Tv0hi1B9BwjWdt9MRkpKzNtPBakPRkd4R2gbqIWZdKDrSO4zaBrWh6Ehf+Xc4ukPREeIMRUeIMxQdIc5QdKSXWDyUXReKjvSSI5vlJGtB0ZHeYbl9dx0oOtI7Zobbd9chlegaPX9EiCapH8pOJbqoNeAJ0SD1Q9mpRBe9txchOdLkoexkOd1gMPggDAlxBdfe78JQjSYPZdcSncVDfyB6+1hC2gBXuhyGKjR9KLuu06k/9AcYYhJ3LNoFTR/KriU6q4f+GGISbxAGJr/R1xKd4VqBEmJyTU3iBgzkkzBUA+lXo0iwlujCQ38mO1mORqObYUyIKVYzUZAmNVrZrm5OJ9wJR21YUCEuGM1E2T84OGiUftUWnWGIKQWVRot1EhKDxUyUULlsVN2vLTrDEFMKKl/R7Yg1uLm/FoZq4Nr9exjWpkl4KViFmOeR230VxoSYAFdSf5wHv7NxZb+R6Ix3PGElk5hhVUSJ2R6gkegsQ0zASiYxw6I/13QmSkXT8FLcbhsHuh0pCov+XNOZKBWNRQdlSyOQbkeKIfWT4ss0Fp0Q3M5iErRAtyOqWD0pHlNEEaJER7cjJQFxmNzEY/dYjBKdALe7gYNVbndld3f3szAmpBUW/bnYIooQLTpjt5PE9yaFRzSAQCyW2/syHBsTLTrBuJJ5LLzJZMJn7kg0OfXnKlqJztrtAnc5RYzEklN/rqKV6ARrtwOcIkaiyak/V9FadE5ux8IKaQyumes4ZNOfq2gtOiG4nYjPDMnv9vb2+AgQqY2Fywmx/bkKFdGJ2+GNXAunZsDW/0bHI3WwnIXSpogiqIhO2NjYkD2crcNMthJILSwKKELbIoqgJjoBYeanOJiGmQKFR07DKrQE0f25ClXRhTBThGcOhUdOIlwXWYaWwiAcVZlMJndxcNl0DyJ/H6HtTjglPWc8Hr85Go0eYnhu/hM9JLTEtXYxnEaj6nQVXmGmwOIKWWQ4HH6Hg7rgBERXV8OwFSai86pmVkioyXYCwc33Om7C74ZTVcTl1tbWZLmS1piITgjVzG/mZ/bQ8Yhh8URoXUCpMBOdsL6+Lm5n3kaooOP1F3E5HMxmn2gUUCpMRSd45ncCHa+fWLqchJZte3OLmIvOO78TxPHu379/czwemyTUJC/CTdbM5XA9qRRQKkxaBquYTCZf4/Dx/MwNmSN3FWGuWmhA8gKCuwJRyLVlcoPVahMsYu50FSG/cyusBGRBmgcMN7uJteDAvrbLCW5OV+HZOF8Eud6tg4ODbYS7VquYEUccBCeriN3Y3Ny8FU7VcHO6iul0KncOaSe4gjDhM5mpANGb9HGIHx6Ck7DSQnCCu9NVJMrxjqHrlYuH4ARcIxe1muHLJBOdkFJ4gEWWwpDcHIL7HENTwVkUTxZJKjohsfDoegUgk5hlTiX+Vi6pgaXLCclFJ6Qqriwgjc87yDdvUXx54RVOVli7nOBeSFlFquLKAtJY/Xw0Gv2KG8AXbKrngbfgBPx76i2CZbJwuooMHK/i2PkQZvxoGWaQk0khOA+XE7ISHRxG1riUBxBz2rWHoaczKQQH9nGT/ZPHTTYr0Ql7e3uX8eF/CKc5QfdzIJHgzBrhq8hOdELqimYNnkB8t3G8RwHqALFdh9g+wtBkL7lT2FlfX38/jM3JUnRCuOPJcuq572NAB2xIWMfkPNzlwnA4fAO51GX8OIXYBFfBCdmKTpAcD3+Uu7igS9m5R54blCrs/47PAC6sx7h5PMZneNpHUWYmsGXcBSdkLbqKAsLNuoj4fjw8PPyli0JcEtjbEJg8xZ+LwJZJIjihCNEJBYWbTSlSiJk72GkkE5xQjOiEAsPNWLIUoggN7+cSXqkKHhokFZxQlOgqOux6L+OFfNELiP6VwpzsJJILTihSdEKPXI/okIXghGJFV9GhIguxIxvBCVlMeG4DvsxrSOZlkqrlFsykTPZxbdzISXBC8U5XwXCTLJHtQ8qdEV0FxCclbHngkeLrL1mFk8t0TnQVIr7RaCT5HpdZ7xdZC07orOgqetpe6CvZC07ovOgE5nu9oAjBCb0QXQXzvW6Cv+df19bWXLbd1qBXoqug+DpFMQ5X0UvRVYj4ZC4hxPdnCrA4pAe37fW0tya9Ft0idL+iKHqhYIpuicr98JLFkf6IF1sOefAbnO1bvHa2trZEdMVC0Z0CRMjKZ1o6t/w9RVcTOqALIrB7MoCjPe2Cq62ComvBZDJ5DxfGOxDis8b70dHRJl3x5eA7eoTv6Kdw2mmBrYKiM2DJFSnEeT52B9/Hz9Pp9Oe+L9pL0TnRIyH2IkRsA0WXkGUhBkrMFztTWfSAosuUVflibtDJCCGEEEIIIYQQQgghhBBCCCGEEEIIIYQQQgghhBBCCCGEEEIIIYQQQgghhBBCCCGEEEIIIYT0lDNn/g9s6xFrolsW2wAAAABJRU5ErkJggg==;" vertex="1" parent="1">
          <mxGeometry x="240" y="460.14" width="19.73" height="20" as="geometry" />
        </mxCell>
        <mxCell id="KWbQpUOCJT9VVSy9cRNQ-24" value="" style="shape=image;verticalLabelPosition=bottom;labelBackgroundColor=default;verticalAlign=top;aspect=fixed;imageAspect=0;image=data:image/png,iVBORw0KGgoAAAANSUhEUgAAAN0AAADgCAYAAACHIGNpAAAAAXNSR0IArs4c6QAAAARnQU1BAACxjwv8YQUAAAAJcEhZcwAADsEAAA7BAbiRa+0AABFvSURBVHhe7Z0/kBzFFca12q1CmalygJyJCIhAkXHV/eEyEaHMZJYiUITIUAQXSUQ4AyKkSCgCIp+j9d2qLBxJRODIciZnCq/q9vb8vdse1Wq1p5vpee9198z3q9qanis47e7NN9/709N9hhBCCCGEEEIIIYQQQgghhBBCCOk6g3AkJBnj8fjN0Wh0PpyeGQwGT9fW1h6F085B0ZFk7O7uXj979uxHGL45/8lzPMbrznQ6vbW1tbU//1E3oOiIO+Jsw+HwOzjau+FHL+M3vK6ur6//PD8tn7PhSIgLcLfPEEo+rCk4QVzwgfx/89PyodMRFxq620lswfH+EcbFQtERc+BSV5C7fY3huflPonmCHO8t5HhPw3mRMLwkpkhYqCQ44TxC06/CuFjodMQEpXByFftwuz+U7HZ0OqKOhJMNiyVNOAcxvxfGRULREVXu37//jmI4uZKjo6NVfb1ioOiIGuJwEMQDDM0EJ0DUpr/fGoqOqKBYoew8FB1pjXKFsvNQdCQaiO36ZDL5FYK7iVM3wSGElalhxcKWAWmMYTugFtPp9PWtrS2ZEF0kdDrSCON2wKnA5R6VLDiBoiO1yaBYso9//2oYFwtFR2qRQ7FkNpttd+HhVuZ05KWkzt8W2FlfX38/jIuGTkdORNwtZf62QGcEJ9DpyAtk5G77ElJubm7eCuedgKIjzxFyt88xTN3o7twyDRUUHTkmI3cTOhVOLsOcjiTvvS0g4eSNLgtOoNP1nAx6bxWdDSeXodP1mBx6b4Gd6XR6sQ+CE+h0PQRie9kir950On9bBUXXIzIrlgi9E5xA0fWEjHK3il4KTqDoViCOMBqNzs9mswu4UC+EH0eD3/MYv+cxHCbJxhiZCa6TDe8m9F50iwJD6PXG0dHRZfzYMtdx3RgjfL6HGD4nOHxO2R0nnLnyBP/u94eHh7+kvBGlpLeiy6CY4FIi39vbe7CYw4nY8LmPjxnR2R16VtEr0cldHxfcZbz+gtMslnGTZrBVqBVuLMcrIjdxNvnvEolSXPA2jve4P13hZFYiX4XJxhiTyeQ/OETnpAlDUIH705UIxCbN32xc7SWob4whi75CNA8TC0cD7k9XAiK2hVWqchecoL4xBsLW489duOAE+RwPcBO5ifQgl3ZHKzolOrm7S+GgILEt8iEuqlfDuDVwuFcT5WUm4LMcP1CLm2kujf1oOiE6ydnE2SScwp291D+K9sYY+x1wuWU64XpFi06qkcHZJDQrzdleADcNtc8AVzgMw85RuusVKzrJ2+SLL9jZXgA3D7W79+FhZzVXUazrFSe6BXdzXcq7NOAGvw/DTlOi6xUjOhFbF91tEVxAamv046akVpQpgGPXk+tjfpo32YuuKpJAbO4bVXiDkFCtFzWbzTo/nWoZuT5KEF62outakeQ04HLaa/Q/CcdeUYLwshQdvrRcFsrxQn2Nfvw+tVC1NHIXXnaikwY3vrScHrY0R54v057gO51O5fepTSsrjZyFl5XoxOEQZpnvWZ0ZOxZPGYRJwt/Pz/pJrsLLRnQiuJ45nMcaj3fCsbfkKLwsRNdDwUm+tWW9ZIFxiDlFVPLPMM6a3ISXfHJeYYITsdybD5sDZ3uK1w5CP7cix2Qyke/24/mZOrch7G38/S7hdT78TCqxm4PBQHMeqRYmzy02JanoMhfcM4GlEIsW4/FYHhv6FUOTZrmEyKscG/+uLOr0TIyZCFH9ucUYkokuR8FJrwyvO6UK7CSM3e5E4S2zIMQPcHpp/lN3bsPtkm6hnER0GQpOBNbZdfSD28nSDWbfd13hVch7Gg6HdxO5X9Iw0110GQnuN1wo33bN1U4CbvcdDlfmZzY0FZ4g7ocbglwPns6XNMx0FV0ugsPd9dbBwcE2vvTezE8MbmeW2y0Q5SLWIfAKkoWZbqLDH33loqeeSM4GwV3rahh5Gk4XdrSLeAsvxpk1cOvTycYVOKQS3HEjemNjozfbMa1Cyvs4WIdU0Yss4W9zDX8ncR+XsA9RV5L+nYvo5IPBYVJNXpZ8zbwRXQJwH3nywGNq2JXYixl/J+n9vYWoxKXQIcKDw7oWc8zDy4R5XKcrkrE45natwzfHcNO1sGLqdJLHJRBcNafxLQruRRzdrnX4JuEmDt/Mz0yJDoljMBVdgjyOoWQNQm7n8pBrQcKTdUefTWWzxEx0znmc7FktzkZ3q4G4HXImuZhdUBKetTufg9vJciDmmOR0znlcb3f0bEuC3lj0TJCQi0rLydKN9nHzfj2E4GaoO51zHkfBtSA4iEfoVnEX10dUAcfJnV3cTl10jnkcBaeAs/BaFSw2NjZ+xMH6vZrndqqiQ1h53SmPo+AUcRbelTZ9MYf3au52qqJDWPlJGFpCwRkQLmavNVWiw0zB4b2aup2a6MTlcIje9bMOMneSgrNjOp1+ioNHK6F1X8z4vZq6nZroHFxOfW1I8jzOrYRWYabDezVzOxXRebjczGBtSPIiTsWKilZhZnivVmGmmdupiM7B5UzWhiSrcShWVGiFmVZzJlu58Um0Fp21yzGPS4Oj8FqFcaGRbVlUaeXGq2gtOmOXYx6XECfhtQ7j4HaWzwmqT4ZuJTprl2Melx4n4bUuquBQTAuhleiMXY55XCYE4Vn38FqFccZup1pUiRadpcsxj8sPhx5eqzCuJLeLFp2lyzGPyw+nHl70Mg9CcLvsG+ZRopM95HAwcznmcXli3Bc7Bjfc6GfvSmmYR4luNpuZbUdMl8sbhzDzWHixhZUSGuZRosPdhC7XU5zCTCG6sBJuDFZFldZuFyU63Ik+CkNV6HJl4BFmgujCinFRpbXbNRadVT5HlysLjzATiKvEup1lC6GV2zUW3eHhofpcNIEuVxZOYea54XAYdb3l7HaNRQdxqLcK6HJl4hFm4tqILto5uF2UCzcSnVVoORgMfgpDUhjWYSZu8tHr7Vi7XawLNxKdVasAd7PO7w/XVRyrmVFYul2sCzcSHf4RtUmfiyBP5AKxBeNUzYzC0u3gwm+HYSMaiQ52+loYqgEhP8IX8zickkKxCjM1oiBDt7sck9c1dboPw1CTL8ORFIxVmKkRBRm6XVReV1t0VkUUhpbdIYSZas/eaUZBVm6H99g4r6stOosiiuaXSvJA8aFX1VUDrNwuJq+rLToIRL2IwlZBN9EQnsWqAfid/wpDTRrndbVFB0VHNQJJP2kpPJNVA3ANW7SmGud1tUUHV3olDNWAe7I/12FEeHAXCRHr5lLVLromqwYgrxPnTJ7XNQkv1SuXLKJ0HzhW3Y37zXfRRV63j4NFXtdo1kytTSGlcokvTTbkUwO/79HGxsbFcEp6AHKfC7hAL+H1rD4AZ3uK1w4E4RL17M43LJXt3DTZhjt/EcanUkt0e3t7HyK8vBtOtWj0RgnRYDKZyFZuD+ZnajS6lmuFl3Alk+lfhHhjldc1oZboYMesXJJOEPI6aeJr8kY41qJ2IUUbuCcrlyQV/w1HLS6FYy2SiY6VS9IhXh2Px7XbBklEJ5VLTv8iqZjNZhJiqjIcDmVuci2SiI7Tv0hi1B9BwjWdt9MRkpKzNtPBakPRkd4R2gbqIWZdKDrSO4zaBrWh6Ehf+Xc4ukPREeIMRUeIMxQdIc5QdKSXWDyUXReKjvSSI5vlJGtB0ZHeYbl9dx0oOtI7Zobbd9chlegaPX9EiCapH8pOJbqoNeAJ0SD1Q9mpRBe9txchOdLkoexkOd1gMPggDAlxBdfe78JQjSYPZdcSncVDfyB6+1hC2gBXuhyGKjR9KLuu06k/9AcYYhJ3LNoFTR/KriU6q4f+GGISbxAGJr/R1xKd4VqBEmJyTU3iBgzkkzBUA+lXo0iwlujCQ38mO1mORqObYUyIKVYzUZAmNVrZrm5OJ9wJR21YUCEuGM1E2T84OGiUftUWnWGIKQWVRot1EhKDxUyUULlsVN2vLTrDEFMKKl/R7Yg1uLm/FoZq4Nr9exjWpkl4KViFmOeR230VxoSYAFdSf5wHv7NxZb+R6Ix3PGElk5hhVUSJ2R6gkegsQ0zASiYxw6I/13QmSkXT8FLcbhsHuh0pCov+XNOZKBWNRQdlSyOQbkeKIfWT4ss0Fp0Q3M5iErRAtyOqWD0pHlNEEaJER7cjJQFxmNzEY/dYjBKdALe7gYNVbndld3f3szAmpBUW/bnYIooQLTpjt5PE9yaFRzSAQCyW2/syHBsTLTrBuJJ5LLzJZMJn7kg0OfXnKlqJztrtAnc5RYzEklN/rqKV6ARrtwOcIkaiyak/V9FadE5ux8IKaQyumes4ZNOfq2gtOiG4nYjPDMnv9vb2+AgQqY2Fywmx/bkKFdGJ2+GNXAunZsDW/0bHI3WwnIXSpogiqIhO2NjYkD2crcNMthJILSwKKELbIoqgJjoBYeanOJiGmQKFR07DKrQE0f25ClXRhTBThGcOhUdOIlwXWYaWwiAcVZlMJndxcNl0DyJ/H6HtTjglPWc8Hr85Go0eYnhu/hM9JLTEtXYxnEaj6nQVXmGmwOIKWWQ4HH6Hg7rgBERXV8OwFSai86pmVkioyXYCwc33Om7C74ZTVcTl1tbWZLmS1piITgjVzG/mZ/bQ8Yhh8URoXUCpMBOdsL6+Lm5n3kaooOP1F3E5HMxmn2gUUCpMRSd45ncCHa+fWLqchJZte3OLmIvOO78TxPHu379/czwemyTUJC/CTdbM5XA9qRRQKkxaBquYTCZf4/Dx/MwNmSN3FWGuWmhA8gKCuwJRyLVlcoPVahMsYu50FSG/cyusBGRBmgcMN7uJteDAvrbLCW5OV+HZOF8Eud6tg4ODbYS7VquYEUccBCeriN3Y3Ny8FU7VcHO6iul0KncOaSe4gjDhM5mpANGb9HGIHx6Ck7DSQnCCu9NVJMrxjqHrlYuH4ARcIxe1muHLJBOdkFJ4gEWWwpDcHIL7HENTwVkUTxZJKjohsfDoegUgk5hlTiX+Vi6pgaXLCclFJ6Qqriwgjc87yDdvUXx54RVOVli7nOBeSFlFquLKAtJY/Xw0Gv2KG8AXbKrngbfgBPx76i2CZbJwuooMHK/i2PkQZvxoGWaQk0khOA+XE7ISHRxG1riUBxBz2rWHoaczKQQH9nGT/ZPHTTYr0Ql7e3uX8eF/CKc5QfdzIJHgzBrhq8hOdELqimYNnkB8t3G8RwHqALFdh9g+wtBkL7lT2FlfX38/jM3JUnRCuOPJcuq572NAB2xIWMfkPNzlwnA4fAO51GX8OIXYBFfBCdmKTpAcD3+Uu7igS9m5R54blCrs/47PAC6sx7h5PMZneNpHUWYmsGXcBSdkLbqKAsLNuoj4fjw8PPyli0JcEtjbEJg8xZ+LwJZJIjihCNEJBYWbTSlSiJk72GkkE5xQjOiEAsPNWLIUoggN7+cSXqkKHhokFZxQlOgqOux6L+OFfNELiP6VwpzsJJILTihSdEKPXI/okIXghGJFV9GhIguxIxvBCVlMeG4DvsxrSOZlkqrlFsykTPZxbdzISXBC8U5XwXCTLJHtQ8qdEV0FxCclbHngkeLrL1mFk8t0TnQVIr7RaCT5HpdZ7xdZC07orOgqetpe6CvZC07ovOgE5nu9oAjBCb0QXQXzvW6Cv+df19bWXLbd1qBXoqug+DpFMQ5X0UvRVYj4ZC4hxPdnCrA4pAe37fW0tya9Ft0idL+iKHqhYIpuicr98JLFkf6IF1sOefAbnO1bvHa2trZEdMVC0Z0CRMjKZ1o6t/w9RVcTOqALIrB7MoCjPe2Cq62ComvBZDJ5DxfGOxDis8b70dHRJl3x5eA7eoTv6Kdw2mmBrYKiM2DJFSnEeT52B9/Hz9Pp9Oe+L9pL0TnRIyH2IkRsA0WXkGUhBkrMFztTWfSAosuUVflibtDJCCGEEEIIIYQQQgghhBBCCCGEEEIIIYQQQgghhBBCCCGEEEIIIYQQQgghhBBCCCGEEEIIIYT0lDNn/g9s6xFrolsW2wAAAABJRU5ErkJggg==;" vertex="1" parent="1">
          <mxGeometry x="440" y="460" width="19.73" height="20" as="geometry" />
        </mxCell>
      </root>
    </mxGraphModel>
  </diagram>
  <diagram id="PzQL7U6stbTnKmAgALF3" name="B_BranchEqual">
    <mxGraphModel dx="1841" dy="982" grid="1" gridSize="10" guides="1" tooltips="1" connect="1" arrows="1" fold="1" page="1" pageScale="1" pageWidth="850" pageHeight="1100" math="0" shadow="0">
      <root>
        <mxCell id="0" />
        <mxCell id="1" parent="0" />
      </root>
    </mxGraphModel>
  </diagram>
  <diagram id="91DZL2hy45-EKxXeF2cv" name="B_SkillCheck1">
    <mxGraphModel dx="2074" dy="1098" grid="1" gridSize="10" guides="1" tooltips="1" connect="1" arrows="1" fold="1" page="1" pageScale="1" pageWidth="850" pageHeight="1100" math="0" shadow="0">
      <root>
        <mxCell id="0" />
        <mxCell id="1" parent="0" />
      </root>
    </mxGraphModel>
  </diagram>
</mxfile>
